# Rhino

mtllib CN - Base Tenon (Ver. 3).mtl
o object_1
usemtl diffuse_0
v 10 -128 -10
v 10 -128 10
v 12.5 -53 -12.5
v 12.5 -53 12.5
v 15 22 -15
v 15 22 15
v 11.25 -90.5 -11.25
v 13.75 -15.5 -13.75
v 13.75 -15.5 13.75
v 11.25 -90.5 11.25
v 10 -128 10
v -10 -128 10
v 12.5 -53 12.5
v -12.5 -53 12.5
v 15 22 15
v -15 22 15
v 11.25 -90.5 11.25
v 13.75 -15.5 13.75
v -13.75 -15.5 13.75
v -11.25 -90.5 11.25
v -10 -128 10
v -10 -128 -10
v -12.5 -53 12.5
v -12.5 -53 -12.5
v -15 22 15
v -15 22 -15
v -11.25 -90.5 11.25
v -13.75 -15.5 13.75
v -13.75 -15.5 -13.75
v -11.25 -90.5 -11.25
v -10 -128 -10
v 10 -128 -10
v -12.5 -53 -12.5
v 12.5 -53 -12.5
v -15 22 -15
v 15 22 -15
v 13.75 -15.5 -13.75
v 11.25 -90.5 -11.25
v -11.25 -90.5 -11.25
v -13.75 -15.5 -13.75
v -10 -128 10
v -10 -128 -10
v 10 -128 10
v 10 -128 -10
v 15 22 15
v 15 22 -15
v -15 22 15
v -15 22 -15
v -40 22 -20
v -20 22 -20
v -20 22 -40
v 20 22 -40
v 20 22 -20
v 40 22 -20
v 40 22 20
v 20 22 20
v 20 22 40
v -20 22 40
v -20 22 20
v -40 22 20
v -20 222 -20
v -40 222 -20
v -40 222 20
v -20 222 20
v -20 222 40
v 20 222 40
v 20 222 20
v 40 222 20
v 40 222 -20
v 20 222 -20
v 20 222 -40
v -20 222 -40
v -20 22 40
v -20 222 40
v -20 22 20
v -20 222 20
v -20 22 20
v -20 222 20
v -40 22 20
v -40 222 20
v -20 22 40
v -20 222 40
v 20 22 40
v 20 222 40
v 40 22 20
v 40 222 20
v 20 22 20
v 20 222 20
v 20 22 20
v 20 222 20
v 20 22 40
v 20 222 40
v 40 22 20
v 40 222 20
v 40 22 -20
v 40 222 -20
v 20 22 -20
v 20 222 -20
v 40 22 -20
v 40 222 -20
v 20 22 -40
v 20 222 -40
v 20 22 -20
v 20 222 -20
v 20 22 -40
v 20 222 -40
v -20 22 -40
v -20 222 -40
v -40 22 -20
v -40 222 -20
v -20 22 -20
v -20 222 -20
v -20 22 -20
v -20 222 -20
v -20 22 -40
v -20 222 -40
v -40 22 -20
v -40 222 -20
v -40 22 20
v -40 222 20
vt 0.87353515625 0.40000000596046448
vt 0.80000001192092896 0.40000000596046448
vt 0.87353515625 0.5877082347869873
vt 0.80000001192092896 0.5877082347869873
vt 0.87353515625 0.77541643381118774
vt 0.80000001192092896 0.77541643381118774
vt 0.87353515625 0.4938541054725647
vt 0.87353515625 0.68156230449676514
vt 0.80000001192092896 0.68156230449676514
vt 0.80000001192092896 0.4938541054725647
vt 0 0.51923078298568726
vt 0 0.5942307710647583
vt 0.18770821392536163 0.51923078298568726
vt 0.18770821392536163 0.5942307710647583
vt 0.37541642785072327 0.51923078298568726
vt 0.37541642785072327 0.5942307710647583
vt 0.093854106962680817 0.51923078298568726
vt 0.28156232833862305 0.51923078298568726
vt 0.28156232833862305 0.5942307710647583
vt 0.093854106962680817 0.5942307710647583
vt 0 0.41538462042808533
vt 0 0.49038460850715637
vt 0.18770821392536163 0.41538462042808533
vt 0.18770821392536163 0.49038460850715637
vt 0.37541642785072327 0.41538462042808533
vt 0.37541642785072327 0.49038460850715637
vt 0.093854106962680817 0.41538462042808533
vt 0.28156232833862305 0.41538462042808533
vt 0.28156232833862305 0.49038460850715637
vt 0.093854106962680817 0.49038460850715637
vt 0.99853515625 0.40000000596046448
vt 0.92500001192092896 0.40000000596046448
vt 0.99853515625 0.5877082347869873
vt 0.92500001192092896 0.5877082347869873
vt 0.99853515625 0.77541643381118774
vt 0.92500001192092896 0.77541643381118774
vt 0.92500001192092896 0.68156230449676514
vt 0.92500001192092896 0.4938541054725647
vt 0.99853515625 0.4938541054725647
vt 0.99853515625 0.68156230449676514
vt 0.05000000074505806 0.6230769157409668
vt 0 0.6230769157409668
vt 0.05000000074505806 0.67307692766189575
vt 0 0.67307692766189575
vt 0.0625 0.0625
vt 0.0625 0.13750000298023224
vt 0.13750000298023224 0.0625
vt 0.13750000298023224 0.13750000298023224
vt 0.20000000298023224 0.15000000596046448
vt 0.15000000596046448 0.15000000596046448
vt 0.15000000596046448 0.20000000298023224
vt 0.05000000074505806 0.20000000298023224
vt 0.05000000074505806 0.15000000596046448
vt 0 0.15000000596046448
vt 0 0.05000000074505806
vt 0.05000000074505806 0.05000000074505806
vt 0.05000000074505806 0
vt 0.15000000596046448 0
vt 0.15000000596046448 0.05000000074505806
vt 0.20000000298023224 0.05000000074505806
vt 0.84963381290435791 0.2496337890625
vt 0.84963381290435791 0.20000000298023224
vt 0.94890135526657104 0.20000000298023224
vt 0.94890135526657104 0.2496337890625
vt 0.99853515625 0.2496337890625
vt 0.99853515625 0.34890136122703552
vt 0.94890135526657104 0.34890136122703552
vt 0.94890135526657104 0.39853516221046448
vt 0.84963381290435791 0.39853516221046448
vt 0.84963381290435791 0.34890136122703552
vt 0.80000001192092896 0.34890136122703552
vt 0.80000001192092896 0.2496337890625
vt 0.875 0.40000000596046448
vt 0.875 0.89853513240814209
vt 0.92353516817092896 0.40000000596046448
vt 0.92353516817092896 0.89853513240814209
vt 0.49853515625 0.3461538553237915
vt 0 0.3461538553237915
vt 0.49853515625 0.39615383744239807
vt 0 0.39615383744239807
vt 0.69999998807907104 0.20000000298023224
vt 0.69999998807907104 0.69999998807907104
vt 0.79853516817092896 0.20000000298023224
vt 0.79853516817092896 0.69999998807907104
vt 0.49853515625 0.27692309021949768
vt 0 0.27692309021949768
vt 0.49853515625 0.32692307233810425
vt 0 0.32692307233810425
vt 0.55000001192092896 0.20000000298023224
vt 0.55000001192092896 0.69999998807907104
vt 0.59853518009185791 0.20000000298023224
vt 0.59853518009185791 0.69999998807907104
vt 0.99853515625 0.10000000149011612
vt 0.5 0.10000000149011612
vt 0.99853515625 0.19853515923023224
vt 0.5 0.19853515923023224
vt 0.5 0.20000000298023224
vt 0.5 0.69999998807907104
vt 0.54853516817092896 0.20000000298023224
vt 0.54853516817092896 0.69999998807907104
vt 0.64999997615814209 0.20000000298023224
vt 0.64999997615814209 0.69999998807907104
vt 0.69853514432907104 0.20000000298023224
vt 0.69853514432907104 0.69999998807907104
vt 0.99853515625 0
vt 0.5 0
vt 0.99853515625 0.098535157740116119
vt 0.5 0.098535157740116119
vt 0.60000002384185791 0.20000000298023224
vt 0.60000002384185791 0.69999998807907104
vt 0.64853513240814209 0.20000000298023224
vt 0.64853513240814209 0.69999998807907104
vt 0.49853515625 0.69230771064758301
vt 0 0.69230771064758301
vt 0.49853515625 0.74230766296386719
vt 0 0.74230766296386719
vt 0.49853515625 0.76153844594955444
vt 0 0.76153844594955444
vt 0.49853515625 0.86153846979141235
vt 0 0.86153846979141235
vn 0.99944490194320679 -0.033314831554889679 0
vn 0.99944490194320679 -0.033314831554889679 0
vn 0.99944490194320679 -0.033314831554889679 0
vn 0.99944490194320679 -0.033314831554889679 0
vn 0.99944490194320679 -0.033314831554889679 0
vn 0.99944490194320679 -0.033314831554889679 0
vn 0.99944490194320679 -0.033314831554889679 0
vn 0.99944490194320679 -0.033314831554889679 0
vn 0.99944490194320679 -0.033314831554889679 0
vn 0.99944490194320679 -0.033314831554889679 0
vn 0 -0.033314831554889679 0.99944490194320679
vn 0 -0.033314831554889679 0.99944490194320679
vn 0 -0.033314831554889679 0.99944490194320679
vn 0 -0.033314831554889679 0.99944490194320679
vn 0 -0.033314831554889679 0.99944490194320679
vn 0 -0.033314831554889679 0.99944490194320679
vn 0 -0.033314831554889679 0.99944490194320679
vn 0 -0.033314831554889679 0.99944490194320679
vn 0 -0.033314831554889679 0.99944490194320679
vn 0 -0.033314831554889679 0.99944490194320679
vn -0.99944490194320679 -0.033314831554889679 0
vn -0.99944490194320679 -0.033314831554889679 0
vn -0.99944490194320679 -0.033314831554889679 0
vn -0.99944490194320679 -0.033314831554889679 0
vn -0.99944490194320679 -0.033314831554889679 0
vn -0.99944490194320679 -0.033314831554889679 0
vn -0.99944490194320679 -0.033314831554889679 0
vn -0.99944490194320679 -0.033314831554889679 0
vn -0.99944490194320679 -0.033314831554889679 0
vn -0.99944490194320679 -0.033314831554889679 0
vn 0 -0.033314831554889679 -0.99944490194320679
vn 0 -0.033314831554889679 -0.99944490194320679
vn 0 -0.033314831554889679 -0.99944490194320679
vn 0 -0.033314831554889679 -0.99944490194320679
vn 0 -0.033314831554889679 -0.99944490194320679
vn 0 -0.033314831554889679 -0.99944490194320679
vn 0 -0.033314831554889679 -0.99944490194320679
vn 0 -0.033314831554889679 -0.99944490194320679
vn 0 -0.033314831554889679 -0.99944490194320679
vn 0 -0.033314831554889679 -0.99944490194320679
vn 0 -1 0
vn 0 -1 0
vn 0 -1 0
vn 0 -1 0
vn 0 -1 0
vn 0 -1 0
vn 0 -1 0
vn 0 -1 0
vn 0 -1 0
vn 0 -1 0
vn 0 -1 0
vn 0 -1 0
vn 0 -1 0
vn 0 -1 0
vn 0 -1 0
vn 0 -1 0
vn 0 -1 0
vn 0 -1 0
vn 0 -1 0
vn 0 -1 0
vn 0 1 0
vn 0 1 0
vn 0 1 0
vn 0 1 0
vn 0 1 0
vn 0 1 0
vn 0 1 0
vn 0 1 0
vn 0 1 0
vn 0 1 0
vn 0 1 0
vn 0 1 0
vn -1 0 0
vn -1 0 0
vn -1 0 0
vn -1 0 0
vn 0 0 1
vn 0 0 1
vn 0 0 1
vn 0 0 1
vn 0 0 1
vn 0 0 1
vn 0 0 1
vn 0 0 1
vn 0 0 1
vn 0 0 1
vn 0 0 1
vn 0 0 1
vn 1 0 0
vn 1 0 0
vn 1 0 0
vn 1 0 0
vn 1 0 0
vn 1 0 0
vn 1 0 0
vn 1 0 0
vn 0 0 -1
vn 0 0 -1
vn 0 0 -1
vn 0 0 -1
vn 1 0 0
vn 1 0 0
vn 1 0 0
vn 1 0 0
vn 0 0 -1
vn 0 0 -1
vn 0 0 -1
vn 0 0 -1
vn 0 0 -1
vn 0 0 -1
vn 0 0 -1
vn 0 0 -1
vn -1 0 0
vn -1 0 0
vn -1 0 0
vn -1 0 0
vn -1 0 0
vn -1 0 0
vn -1 0 0
vn -1 0 0
f 7/7/7 10/10/10 2/2/2 1/1/1
f 10/10/10 7/7/7 3/3/3 4/4/4
f 5/5/5 6/6/6 9/9/9 8/8/8
f 8/8/8 9/9/9 4/4/4 3/3/3
f 17/17/17 20/20/20 12/12/12 11/11/11
f 20/20/20 17/17/17 13/13/13 14/14/14
f 15/15/15 16/16/16 19/19/19 18/18/18
f 18/18/18 19/19/19 14/14/14 13/13/13
f 27/27/27 30/30/30 22/22/22 21/21/21
f 30/30/30 27/27/27 23/23/23 24/24/24
f 25/25/25 26/26/26 29/29/29 28/28/28
f 28/28/28 29/29/29 24/24/24 23/23/23
f 39/39/39 38/38/38 32/32/32 31/31/31
f 38/38/38 39/39/39 33/33/33 34/34/34
f 35/35/35 36/36/36 37/37/37 40/40/40
f 40/40/40 37/37/37 34/34/34 33/33/33
f 42/42/42 44/44/44 43/43/43 41/41/41
f 58/58/58 59/59/59 47/47/47
f 60/60/60 47/47/47 59/59/59
f 48/48/48 47/47/47 60/60/60 49/49/49
f 47/47/47 45/45/45 57/57/57 58/58/58
f 45/45/45 56/56/56 57/57/57
f 45/45/45 46/46/46 54/54/54 55/55/55
f 56/56/56 45/45/45 55/55/55
f 51/51/51 48/48/48 50/50/50
f 49/49/49 50/50/50 48/48/48
f 51/51/51 52/52/52 46/46/46 48/48/48
f 54/54/54 46/46/46 53/53/53
f 52/52/52 53/53/53 46/46/46
f 65/65/65 66/66/66 67/67/67 64/64/64
f 64/64/64 61/61/61 62/62/62 63/63/63
f 72/72/72 61/61/61 70/70/70 71/71/71
f 61/61/61 64/64/64 67/67/67 70/70/70
f 68/68/68 69/69/69 70/70/70 67/67/67
f 74/74/74 76/76/76 75/75/75 73/73/73
f 78/78/78 80/80/80 79/79/79 77/77/77
f 82/82/82 81/81/81 83/83/83 84/84/84
f 86/86/86 88/88/88 87/87/87 85/85/85
f 90/90/90 92/92/92 91/91/91 89/89/89
f 94/94/94 93/93/93 95/95/95 96/96/96
f 98/98/98 100/100/100 99/99/99 97/97/97
f 102/102/102 104/104/104 103/103/103 101/101/101
f 106/106/106 105/105/105 107/107/107 108/108/108
f 110/110/110 112/112/112 111/111/111 109/109/109
f 114/114/114 116/116/116 115/115/115 113/113/113
f 118/118/118 117/117/117 119/119/119 120/120/120
o object_2
usemtl diffuse_0
v 44 10 -44
v 44 10 0
v 44 10 44
v 40 22 -40
v 40 22 0
v 40 22 40
v 44 10 44
v 0 10 44
v -44 10 44
v 40 22 40
v 0 22 40
v -40 22 40
v -44 10 44
v -44 10 0
v -44 10 -44
v -40 22 40
v -40 22 0
v -40 22 -40
v -44 10 -44
v 0 10 -44
v 44 10 -44
v -40 22 -40
v 0 22 -40
v 40 22 -40
v -40 22 -40
v -40 22 40
v 40 22 -40
v 40 22 40
v 40 22 0
v 0 22 40
v -40 22 0
v 0 22 -40
v 15 22 -15
v -15 22 -15
v -15 22 15
v 15 22 15
v -60 -10 60
v -60 10 60
v 60 -10 60
v 60 10 60
v 60 -10 60
v 60 10 60
v 60 -10 -60
v 60 10 -60
v 60 -10 -60
v 60 10 -60
v -60 -10 -60
v -60 10 -60
v -60 -10 -60
v -60 10 -60
v -60 -10 60
v -60 10 60
v -60 -10 60
v 60 -10 60
v -60 -10 -60
v 60 -10 -60
v 13.933333396911621 -10 -13.933333396911621
v 0 -10 -13.933333396911621
v -13.933333396911621 -10 -13.933333396911621
v -13.933333396911621 -10 0
v -13.933333396911621 -10 13.933333396911621
v 0 -10 13.933333396911621
v 13.933333396911621 -10 13.933333396911621
v 13.933333396911621 -10 0
v -60 10 60
v -60 10 -60
v 60 10 60
v 60 10 -60
v 44 10 -44
v 44 10 0
v 44 10 44
v 0 10 44
v -44 10 44
v -44 10 0
v -44 10 -44
v 0 10 -44
v 13.933333396911621 -10 -13.933333396911621
v 13.933333396911621 -10 13.933333396911621
v 15 22 -15
v 15 22 15
v 13.933333396911621 -10 0
v 14.466666221618652 6 -14.466666221618652
v 14.466666221618652 6 14.466666221618652
v 13.933333396911621 -10 13.933333396911621
v -13.933333396911621 -10 13.933333396911621
v 15 22 15
v -15 22 15
v 0 -10 13.933333396911621
v 14.466666221618652 6 14.466666221618652
v -14.466666221618652 6 14.466666221618652
v -13.933333396911621 -10 13.933333396911621
v -13.933333396911621 -10 -13.933333396911621
v -15 22 15
v -15 22 -15
v -13.933333396911621 -10 0
v -14.466666221618652 6 14.466666221618652
v -14.466666221618652 6 -14.466666221618652
v -13.933333396911621 -10 -13.933333396911621
v 13.933333396911621 -10 -13.933333396911621
v -15 22 -15
v 15 22 -15
v 0 -10 -13.933333396911621
v 14.466666221618652 6 -14.466666221618652
v -14.466666221618652 6 -14.466666221618652
vt 0.79885578155517578 0
vt 0.79885578155517578 0.15714286267757416
vt 0.79885578155517578 0.31428572535514832
vt 0.84623616933822632 0
vt 0.84623616933822632 0.15714286267757416
vt 0.84623616933822632 0.31428572535514832
vt 0.73180770874023438 0
vt 0.73180770874023438 0.15714286267757416
vt 0.73180770874023438 0.31428572535514832
vt 0.77918809652328491 0
vt 0.77918809652328491 0.15714286267757416
vt 0.77918809652328491 0.31428572535514832
vt 0.93295192718505859 0
vt 0.93295192718505859 0.15714286267757416
vt 0.93295192718505859 0.31428572535514832
vt 0.98033231496810913 0
vt 0.98033231496810913 0.15714286267757416
vt 0.98033231496810913 0.31428572535514832
vt 0.86590385437011719 0
vt 0.86590385437011719 0.15714286267757416
vt 0.86590385437011719 0.31428572535514832
vt 0.91328424215316772 0
vt 0.91328424215316772 0.15714286267757416
vt 0.91328424215316772 0.31428572535514832
vt 0.4285714328289032 0.36263737082481384
vt 0.4285714328289032 0.64835166931152344
vt 0.71282088756561279 0.36263737082481384
vt 0.71282088756561279 0.64835166931152344
vt 0.71282088756561279 0.50549453496932983
vt 0.57069617509841919 0.64835166931152344
vt 0.4285714328289032 0.50549453496932983
vt 0.57069617509841919 0.36263737082481384
vt 0.623992919921875 0.45192307233810425
vt 0.5173993706703186 0.45192307233810425
vt 0.5173993706703186 0.55906593799591064
vt 0.623992919921875 0.55906593799591064
vt 0.8556780219078064 0.36263737082481384
vt 0.78571426868438721 0.36263737082481384
vt 0.8556780219078064 0.79120880365371704
vt 0.78571426868438721 0.79120880365371704
vt 0.78424942493438721 0.36263737082481384
vt 0.71428573131561279 0.36263737082481384
vt 0.78424942493438721 0.79120880365371704
vt 0.71428573131561279 0.79120880365371704
vt 0.99853515625 0.36263737082481384
vt 0.92857140302658081 0.36263737082481384
vt 0.99853515625 0.79120880365371704
vt 0.92857140302658081 0.79120880365371704
vt 0.92710655927658081 0.36263737082481384
vt 0.8571428656578064 0.36263737082481384
vt 0.92710655927658081 0.79120880365371704
vt 0.8571428656578064 0.79120880365371704
vt 0.4271065890789032 0.4285714328289032
vt 0 0.4285714328289032
vt 0.4271065890789032 0.8556780219078064
vt 0 0.8556780219078064
vt 0.16396147012710571 0.69171655178070068
vt 0.2135532945394516 0.69171655178070068
vt 0.26314511895179749 0.69171655178070068
vt 0.26314511895179749 0.6421247124671936
vt 0.26314511895179749 0.5925329327583313
vt 0.2135532945394516 0.5925329327583313
vt 0.16396147012710571 0.5925329327583313
vt 0.16396147012710571 0.6421247124671936
vt 0.4271065890789032 0
vt 0 0
vt 0.4271065890789032 0.4271065890789032
vt 0 0.4271065890789032
vt 0.056947540491819382 0.37015902996063232
vt 0.2135532945394516 0.37015902996063232
vt 0.37015902996063232 0.37015902996063232
vt 0.37015902996063232 0.2135532945394516
vt 0.37015902996063232 0.056947547942399979
vt 0.2135532945394516 0.056947547942399979
vt 0.056947540491819382 0.056947547942399979
vt 0.056947540491819382 0.2135532945394516
vt 0.68733245134353638 0
vt 0.58018958568572998 0
vt 0.68733245134353638 0.11441262811422348
vt 0.58018958568572998 0.11441262811422348
vt 0.63376098871231079 0
vt 0.68733245134353638 0.05720631405711174
vt 0.58018958568572998 0.05720631405711174
vt 0.53571426868438721 0
vt 0.4285714328289032 0
vt 0.53571426868438721 0.11441262811422348
vt 0.4285714328289032 0.11441262811422348
vt 0.4821428656578064 0
vt 0.53571426868438721 0.05720631405711174
vt 0.4285714328289032 0.05720631405711174
vt 0.68733245134353638 0.18131868541240692
vt 0.58018958568572998 0.18131868541240692
vt 0.68733245134353638 0.2957313060760498
vt 0.58018958568572998 0.2957313060760498
vt 0.63376098871231079 0.18131868541240692
vt 0.68733245134353638 0.23852498829364777
vt 0.58018958568572998 0.23852498829364777
vt 0.53571426868438721 0.18131868541240692
vt 0.4285714328289032 0.18131868541240692
vt 0.53571426868438721 0.2957313060760498
vt 0.4285714328289032 0.2957313060760498
vt 0.4821428656578064 0.18131868541240692
vt 0.4285714328289032 0.23852498829364777
vt 0.53571426868438721 0.23852498829364777
vn 0.94868332147598267 0.31622776389122009 0
vn 0.94868332147598267 0.31622776389122009 0
vn 0.94868332147598267 0.31622776389122009 0
vn 0.94868332147598267 0.31622776389122009 0
vn 0.94868332147598267 0.31622776389122009 0
vn 0.94868332147598267 0.31622776389122009 0
vn 0 0.31622776389122009 0.94868332147598267
vn 0 0.31622776389122009 0.94868332147598267
vn 0 0.31622776389122009 0.94868332147598267
vn 0 0.31622776389122009 0.94868332147598267
vn 0 0.31622776389122009 0.94868332147598267
vn 0 0.31622776389122009 0.94868332147598267
vn -0.94868332147598267 0.31622776389122009 0
vn -0.94868332147598267 0.31622776389122009 0
vn -0.94868332147598267 0.31622776389122009 0
vn -0.94868332147598267 0.31622776389122009 0
vn -0.94868332147598267 0.31622776389122009 0
vn -0.94868332147598267 0.31622776389122009 0
vn 0 0.31622776389122009 -0.94868332147598267
vn 0 0.31622776389122009 -0.94868332147598267
vn 0 0.31622776389122009 -0.94868332147598267
vn 0 0.31622776389122009 -0.94868332147598267
vn 0 0.31622776389122009 -0.94868332147598267
vn 0 0.31622776389122009 -0.94868332147598267
vn 0 1 0
vn 0 1 0
vn 0 1 0
vn 0 1 0
vn 0 1 0
vn 0 1 0
vn 0 1 0
vn 0 1 0
vn 0 1 0
vn 0 1 0
vn 0 1 0
vn 0 1 0
vn 0 0 1
vn 0 0 1
vn 0 0 1
vn 0 0 1
vn 1 0 0
vn 1 0 0
vn 1 0 0
vn 1 0 0
vn 0 0 -1
vn 0 0 -1
vn 0 0 -1
vn 0 0 -1
vn -1 0 0
vn -1 0 0
vn -1 0 0
vn -1 0 0
vn 0 -1 0
vn 0 -1 0
vn 0 -1 0
vn 0 -1 0
vn 0 -1 0
vn 0 -1 0
vn 0 -1 0
vn 0 -1 0
vn 0 -1 0
vn 0 -1 0
vn 0 -1 0
vn 0 -1 0
vn 0 1 0
vn 0 1 0
vn 0 1 0
vn 0 1 0
vn 0 1 0
vn 0 1 0
vn 0 1 0
vn 0 1 0
vn 0 1 0
vn 0 1 0
vn 0 1 0
vn 0 1 0
vn -0.99944490194320679 0.033314831554889679 0
vn -0.99944490194320679 0.033314831554889679 0
vn -0.99944490194320679 0.033314831554889679 0
vn -0.99944490194320679 0.033314831554889679 0
vn -0.99944490194320679 0.033314831554889679 0
vn -0.99944490194320679 0.033314831554889679 0
vn -0.99944490194320679 0.033314831554889679 0
vn 0 0.033314831554889679 -0.99944490194320679
vn 0 0.033314831554889679 -0.99944490194320679
vn 0 0.033314831554889679 -0.99944490194320679
vn 0 0.033314831554889679 -0.99944490194320679
vn 0 0.033314831554889679 -0.99944490194320679
vn 0 0.033314831554889679 -0.99944490194320679
vn 0 0.033314831554889679 -0.99944490194320679
vn 0.99944490194320679 0.033314831554889679 0
vn 0.99944490194320679 0.033314831554889679 0
vn 0.99944490194320679 0.033314831554889679 0
vn 0.99944490194320679 0.033314831554889679 0
vn 0.99944490194320679 0.033314831554889679 0
vn 0.99944490194320679 0.033314831554889679 0
vn 0.99944490194320679 0.033314831554889679 0
vn 0 0.033314831554889679 0.99944490194320679
vn 0 0.033314831554889679 0.99944490194320679
vn 0 0.033314831554889679 0.99944490194320679
vn 0 0.033314831554889679 0.99944490194320679
vn 0 0.033314831554889679 0.99944490194320679
vn 0 0.033314831554889679 0.99944490194320679
vn 0 0.033314831554889679 0.99944490194320679
f 122/122/122 121/121/121 124/124/124 125/125/125
f 123/123/123 122/122/122 125/125/125 126/126/126
f 128/128/128 127/127/127 130/130/130 131/131/131
f 129/129/129 128/128/128 131/131/131 132/132/132
f 134/134/134 133/133/133 136/136/136 137/137/137
f 135/135/135 134/134/134 137/137/137 138/138/138
f 140/140/140 139/139/139 142/142/142 143/143/143
f 141/141/141 140/140/140 143/143/143 144/144/144
f 154/154/154 152/152/152 145/145/145
f 151/151/151 154/154/154 145/145/145
f 146/146/146 155/155/155 151/151/151
f 154/154/154 151/151/151 155/155/155
f 150/150/150 155/155/155 146/146/146
f 153/153/153 152/152/152 154/154/154
f 149/149/149 147/147/147 153/153/153
f 152/152/152 153/153/153 147/147/147
f 156/156/156 149/149/149 153/153/153
f 148/148/148 156/156/156 150/150/150
f 156/156/156 155/155/155 150/150/150
f 149/149/149 156/156/156 148/148/148
f 158/158/158 157/157/157 159/159/159 160/160/160
f 162/162/162 161/161/161 163/163/163 164/164/164
f 166/166/166 165/165/165 167/167/167 168/168/168
f 170/170/170 169/169/169 171/171/171 172/172/172
f 181/181/181 173/173/173 180/180/180
f 175/175/175 180/180/180 173/173/173
f 182/182/182 173/173/173 181/181/181
f 183/183/183 174/174/174 182/182/182
f 173/173/173 182/182/182 174/174/174
f 184/184/184 174/174/174 183/183/183
f 178/178/178 179/179/179 175/175/175
f 180/180/180 175/175/175 179/179/179
f 176/176/176 178/178/178 175/175/175
f 176/176/176 184/184/184 177/177/177
f 178/178/178 176/176/176 177/177/177
f 174/174/174 184/184/184 176/176/176
f 193/193/193 185/185/185 192/192/192
f 187/187/187 192/192/192 185/185/185
f 194/194/194 185/185/185 193/193/193
f 195/195/195 186/186/186 194/194/194
f 185/185/185 194/194/194 186/186/186
f 196/196/196 186/186/186 195/195/195
f 190/190/190 191/191/191 187/187/187
f 192/192/192 187/187/187 191/191/191
f 188/188/188 190/190/190 187/187/187
f 188/188/188 196/196/196 189/189/189
f 190/190/190 188/188/188 189/189/189
f 186/186/186 196/196/196 188/188/188
f 202/202/202 197/197/197 201/201/201
f 203/203/203 201/201/201 198/198/198
f 199/199/199 202/202/202 203/203/203 200/200/200
f 201/201/201 203/203/203 202/202/202
f 209/209/209 204/204/204 208/208/208
f 210/210/210 208/208/208 205/205/205
f 206/206/206 209/209/209 210/210/210 207/207/207
f 208/208/208 210/210/210 209/209/209
f 216/216/216 211/211/211 215/215/215
f 217/217/217 215/215/215 212/212/212
f 213/213/213 216/216/216 217/217/217 214/214/214
f 215/215/215 217/217/217 216/216/216
f 224/224/224 218/218/218 222/222/222
f 223/223/223 222/222/222 219/219/219
f 220/220/220 224/224/224 223/223/223 221/221/221
f 222/222/222 223/223/223 224/224/224
