# Rhino

mtllib Dovetailed Joint 2 M.mtl
usemtl diffuse_0
v -15 0 -33.75
v 0 0 -33.75
v -15 0 -71.25
v 0 0 -71.25
v -15 0 -33.75
v -15 0 -71.25
v -15 52.5 -33.75
v -15 52.5 -71.25
v -15 52.5 -37.5
v -15 52.5 -67.5
v -15 0 -71.25
v 0 0 -71.25
v -15 52.5 -71.25
v 0 52.5 -71.25
v 0 0 -33.75
v -15 0 -33.75
v 0 52.5 -33.75
v -15 52.5 -33.75
v -88.361068725585938 52.5 -83.093376159667969
v -15 52.5 -67.5
v -88.361068725585938 52.5 -21.906623840332031
v -15 52.5 -37.5
v -88.361068725585938 52.5 -83.093376159667969
v -88.361068725585938 52.5 -21.906623840332031
v -88.361068725585938 105 -83.093376159667969
v -88.361068725585938 105 -21.906623840332031
v -88.361068725585938 52.5 -21.906623840332031
v -15 52.5 -37.5
v -88.361068725585938 105 -21.906623840332031
v -15 105 -37.5
v -15 52.5 -67.5
v -88.361068725585938 52.5 -83.093376159667969
v -15 105 -67.5
v -88.361068725585938 105 -83.093376159667969
v -88.361068725585938 105 -83.093376159667969
v -15 105 -67.5
v -88.361068725585938 105 -21.906623840332031
v -15 105 -37.5
v -15 52.5 0
v -15 52.5 -37.5
v -15 105 0
v -15 105 -37.5
v -15 52.5 -33.75
v -15 52.5 -105
v 0 52.5 -105
v -15 105 -105
v 0 105 -105
v 0 52.5 0
v -15 52.5 0
v 0 105 0
v -15 105 0
v -15 105 0
v 0 105 0
v -15 105 -105
v 0 105 -105
v -15 105 -37.5
v -15 105 -67.5
v -15 52.5 -67.5
v -15 52.5 -105
v -15 105 -67.5
v -15 105 -105
v -15 52.5 -71.25
v 0 0 0
v 200 0 0
v 0 0 -105
v 200 0 -105
v 0 0 -33.75
v 0 0 -71.25
v 0 0 -105
v 200 0 -105
v 0 105 -105
v 200 105 -105
v 0 52.5 -105
v 200 0 -105
v 200 0 0
v 200 105 -105
v 200 105 0
v 200 0 0
v 0 0 0
v 200 105 0
v 0 105 0
v 0 52.5 0
v 0 105 0
v 200 105 0
v 0 105 -105
v 200 105 -105
v 0 0 0
v 0 0 -33.75
v 0 52.5 0
v 0 52.5 -33.75
v -15 52.5 -71.25
v 0 52.5 -71.25
v -15 52.5 -105
v 0 52.5 -105
v -15 52.5 0
v 0 52.5 0
v -15 52.5 -33.75
v 0 52.5 -33.75
v 0 0 -71.25
v 0 0 -105
v 0 52.5 -71.25
v 0 52.5 -105
vt 0.035714287310838699 0.18805447220802307
vt 0 0.18805447220802307
vt 0.035714287310838699 0.27734017372131348
vt 0 0.27734017372131348
vt 0.19454887509346008 0.18805447220802307
vt 0.10526315867900848 0.18805447220802307
vt 0.19454887509346008 0.31305447220802307
vt 0.10526315867900848 0.31305447220802307
vt 0.18562030792236328 0.31305447220802307
vt 0.11419173330068588 0.31305447220802307
vt 0.25 0.37610894441604614
vt 0.25 0.41182324290275574
vt 0.375 0.37610894441604614
vt 0.375 0.41182324290275574
vt 0.21334587037563324 0
vt 0.17763157188892365 0
vt 0.21334587037563324 0.125
vt 0.17763157188892365 0.125
vt 0.41541352868080139 0.18805447220802307
vt 0.23684211075305939 0.18805447220802307
vt 0.41541352868080139 0.33373722434043884
vt 0.23684211075305939 0.33373722434043884
vt 0.39568275213241577 0.46831247210502625
vt 0.25 0.46831247210502625
vt 0.39568275213241577 0.59331244230270386
vt 0.25 0.59331244230270386
vt 0 0.37610894441604614
vt 0 0.55468034744262695
vt 0.12353515625 0.37610894441604614
vt 0.12353515625 0.55468034744262695
vt 0.125 0.66424494981765747
vt 0.125 0.84281635284423828
vt 0.24853515625 0.66424494981765747
vt 0.24853515625 0.84281635284423828
vt 0.41541352868080139 0
vt 0.23684211075305939 0
vt 0.41541352868080139 0.14568275213241577
vt 0.23684211075305939 0.14568275213241577
vt 0.125 0.52017694711685181
vt 0.125 0.6094626784324646
vt 0.24853515625 0.52017694711685181
vt 0.24853515625 0.6094626784324646
vt 0.125 0.60053408145904541
vt 0.1541353315114975 0
vt 0.11842105537652969 0
vt 0.1541353315114975 0.125
vt 0.11842105537652969 0.125
vt 0.088345862925052643 0.18805447220802307
vt 0.052631579339504242 0.18805447220802307
vt 0.088345862925052643 0.31305447220802307
vt 0.052631579339504242 0.31305447220802307
vt 0.25 0.422210693359375
vt 0.25 0.45792499184608459
vt 0.49853515625 0.422210693359375
vt 0.49853515625 0.45792499184608459
vt 0.3387625515460968 0.422210693359375
vt 0.4097726047039032 0.422210693359375
vt 0.125 0.37610894441604614
vt 0.125 0.46539464592933655
vt 0.24853515625 0.37610894441604614
vt 0.24853515625 0.46539464592933655
vt 0.125 0.38503751158714294
vt 0.75 0
vt 0.75 0.4747256338596344
vt 0.99853515625 0
vt 0.99853515625 0.4747256338596344
vt 0.82988631725311279 0
vt 0.91864883899688721 0
vt 0.5 0
vt 0.5 0.4747256338596344
vt 0.74853515625 0
vt 0.74853515625 0.4747256338596344
vt 0.624267578125 0
vt 0.49853515625 0.62966865301132202
vt 0.25 0.62966865301132202
vt 0.49853515625 0.87966865301132202
vt 0.25 0.87966865301132202
vt 0.75 0.4761904776096344
vt 0.75 0.9509161114692688
vt 0.99853515625 0.4761904776096344
vt 0.99853515625 0.9509161114692688
vt 0.874267578125 0.9509161114692688
vt 0.5 0.4761904776096344
vt 0.5 0.9509161114692688
vt 0.74853515625 0.4761904776096344
vt 0.74853515625 0.9509161114692688
vt 0 0.80831295251846313
vt 0 0.88867008686065674
vt 0.12353515625 0.80831295251846313
vt 0.12353515625 0.88867008686065674
vt 0.094924814999103546 0
vt 0.059210527688264847 0
vt 0.094924814999103546 0.0803571417927742
vt 0.059210527688264847 0.0803571417927742
vt 0.035714287310838699 0
vt 0 0
vt 0.035714287310838699 0.0803571417927742
vt 0 0.0803571417927742
vt 0 0.66424494981765747
vt 0 0.74460208415985107
vt 0.12353515625 0.66424494981765747
vt 0.12353515625 0.74460208415985107
vn 0 -1 0
vn 0 -1 0
vn 0 -1 0
vn 0 -1 0
vn -1 0 0
vn -1 0 0
vn -1 0 0
vn -1 0 0
vn -1 0 0
vn -1 0 0
vn 0 0 -1
vn 0 0 -1
vn 0 0 -1
vn 0 0 -1
vn 0 0 1
vn 0 0 1
vn 0 0 1
vn 0 0 1
vn 0 -1 0
vn 0 -1 0
vn 0 -1 0
vn 0 -1 0
vn -1 0 0
vn -1 0 0
vn -1 0 0
vn -1 0 0
vn 0.20791168510913849 0 0.97814762592315674
vn 0.20791168510913849 0 0.97814762592315674
vn 0.20791168510913849 0 0.97814762592315674
vn 0.20791168510913849 0 0.97814762592315674
vn 0.20791168510913849 0 -0.97814762592315674
vn 0.20791168510913849 0 -0.97814762592315674
vn 0.20791168510913849 0 -0.97814762592315674
vn 0.20791168510913849 0 -0.97814762592315674
vn 0 1 0
vn 0 1 0
vn 0 1 0
vn 0 1 0
vn -1 0 0
vn -1 0 0
vn -1 0 0
vn -1 0 0
vn -1 0 0
vn 0 0 -1
vn 0 0 -1
vn 0 0 -1
vn 0 0 -1
vn 0 0 1
vn 0 0 1
vn 0 0 1
vn 0 0 1
vn 0 1 0
vn 0 1 0
vn 0 1 0
vn 0 1 0
vn 0 1 0
vn 0 1 0
vn -1 0 0
vn -1 0 0
vn -1 0 0
vn -1 0 0
vn -1 0 0
vn 0 -1 0
vn 0 -1 0
vn 0 -1 0
vn 0 -1 0
vn 0 -1 0
vn 0 -1 0
vn 0 0 -1
vn 0 0 -1
vn 0 0 -1
vn 0 0 -1
vn 0 0 -1
vn 1 0 0
vn 1 0 0
vn 1 0 0
vn 1 0 0
vn 0 0 1
vn 0 0 1
vn 0 0 1
vn 0 0 1
vn 0 0 1
vn 0 1 0
vn 0 1 0
vn 0 1 0
vn 0 1 0
vn -1 0 0
vn -1 0 0
vn -1 0 0
vn -1 0 0
vn 0 -1 0
vn 0 -1 0
vn 0 -1 0
vn 0 -1 0
vn 0 -1 0
vn 0 -1 0
vn 0 -1 0
vn 0 -1 0
vn -1 0 0
vn -1 0 0
vn -1 0 0
vn -1 0 0
f 2/2/2 1/1/1 3/3/3 4/4/4
f 6/6/6 5/5/5 9/9/9 10/10/10
f 7/7/7 9/9/9 5/5/5
f 6/6/6 10/10/10 8/8/8
f 12/12/12 11/11/11 13/13/13 14/14/14
f 16/16/16 15/15/15 17/17/17 18/18/18
f 20/20/20 22/22/22 21/21/21 19/19/19
f 24/24/24 26/26/26 25/25/25 23/23/23
f 28/28/28 30/30/30 29/29/29 27/27/27
f 32/32/32 34/34/34 33/33/33 31/31/31
f 36/36/36 35/35/35 37/37/37 38/38/38
f 43/43/43 39/39/39 41/41/41 42/42/42
f 40/40/40 43/43/43 42/42/42
f 45/45/45 44/44/44 46/46/46 47/47/47
f 49/49/49 48/48/48 50/50/50 51/51/51
f 53/53/53 56/56/56 52/52/52
f 57/57/57 56/56/56 53/53/53
f 55/55/55 54/54/54 57/57/57
f 53/53/53 55/55/55 57/57/57
f 60/60/60 62/62/62 58/58/58
f 59/59/59 62/62/62 60/60/60 61/61/61
f 64/64/64 63/63/63 67/67/67
f 68/68/68 64/64/64 67/67/67
f 66/66/66 68/68/68 65/65/65
f 64/64/64 68/68/68 66/66/66
f 73/73/73 70/70/70 69/69/69
f 72/72/72 73/73/73 71/71/71
f 70/70/70 73/73/73 72/72/72
f 75/75/75 74/74/74 76/76/76 77/77/77
f 82/82/82 79/79/79 78/78/78
f 81/81/81 82/82/82 80/80/80
f 78/78/78 80/80/80 82/82/82
f 84/84/84 86/86/86 85/85/85 83/83/83
f 88/88/88 87/87/87 89/89/89 90/90/90
f 92/92/92 91/91/91 93/93/93 94/94/94
f 96/96/96 95/95/95 97/97/97 98/98/98
f 100/100/100 99/99/99 101/101/101 102/102/102
