# Rhino

mtllib Dovetailed Joint 2 F.mtl
usemtl diffuse_0
v 0 0 0
v -200 0 0
v 0 0 -105
v -200 0 -105
v 0 0 -33.75
v -15 0 -33.75
v -15 0 -71.25
v 0 0 -71.25
v -200 0 -105
v -200 0 0
v -200 105 -105
v -200 105 0
v -88.361068725585938 52.5 -83.093376159667969
v -15 52.5 -67.5
v -88.361068725585938 52.5 -21.906623840332031
v -15 52.5 -37.5
v -88.361068725585938 52.5 -83.093376159667969
v -88.361068725585938 52.5 -21.906623840332031
v -88.361068725585938 105 -83.093376159667969
v -88.361068725585938 105 -21.906623840332031
v -88.361068725585938 52.5 -21.906623840332031
v -15 52.5 -37.5
v -88.361068725585938 105 -21.906623840332031
v -15 105 -37.5
v -15 52.5 -67.5
v -88.361068725585938 52.5 -83.093376159667969
v -15 105 -67.5
v -88.361068725585938 105 -83.093376159667969
v -15 52.5 0
v -15 52.5 -37.5
v -15 105 0
v -15 105 -37.5
v -15 52.5 -33.75
v -15 52.5 -67.5
v -15 52.5 -105
v -15 105 -67.5
v -15 105 -105
v -15 52.5 -71.25
v 0 0 0
v 0 0 -33.75
v 0 52.5 0
v 0 52.5 -33.75
v 0 0 -105
v -200 0 -105
v -200 105 -105
v 0 52.5 -105
v -15 52.5 -105
v -15 105 -105
v -200 0 0
v 0 0 0
v -200 105 0
v 0 52.5 0
v -15 105 0
v -15 52.5 0
v -15 105 0
v -200 105 0
v -200 105 -105
v -15 105 -37.5
v -88.361068725585938 105 -21.906623840332031
v -88.361068725585938 105 -83.093376159667969
v -15 105 -67.5
v -15 105 -105
v -15 0 -33.75
v -15 0 -71.25
v -15 52.5 -33.75
v -15 52.5 -71.25
v -15 52.5 -37.5
v -15 52.5 -67.5
v -15 0 -71.25
v 0 0 -71.25
v -15 52.5 -71.25
v 0 52.5 -71.25
v 0 0 -33.75
v -15 0 -33.75
v 0 52.5 -33.75
v -15 52.5 -33.75
v -15 52.5 0
v 0 52.5 0
v -15 52.5 -33.75
v 0 52.5 -33.75
v -15 52.5 -71.25
v 0 52.5 -71.25
v -15 52.5 -105
v 0 52.5 -105
v 0 0 -71.25
v 0 0 -105
v 0 52.5 -71.25
v 0 52.5 -105
vt 0 0.43956044316291809
vt 0 0.87912088632583618
vt 0.22930438816547394 0.43956044316291809
vt 0.22930438816547394 0.87912088632583618
vt 0.073704980313777924 0.43956044316291809
vt 0.073704980313777924 0.47252747416496277
vt 0.15559940040111542 0.47252747416496277
vt 0.15559940040111542 0.43956044316291809
vt 0.46153846383094788 0.43956044316291809
vt 0.23076923191547394 0.43956044316291809
vt 0.46153846383094788 0.66886484622955322
vt 0.23076923191547394 0.66886484622955322
vt 0.96703296899795532 0.41612318158149719
vt 0.80219781398773193 0.41612318158149719
vt 0.96703296899795532 0.55059957504272461
vt 0.80219781398773193 0.55059957504272461
vt 0.88461536169052124 0.65861105918884277
vt 0.88461536169052124 0.7930874228477478
vt 0.99853515625 0.65861105918884277
vt 0.99853515625 0.7930874228477478
vt 0.95151907205581665 0
vt 0.78668391704559326 0
vt 0.95151907205581665 0.11538461595773697
vt 0.78668391704559326 0.11538461595773697
vt 0.80073297023773193 0.65861105918884277
vt 0.63736265897750854 0.65861105918884277
vt 0.80073297023773193 0.77399563789367676
vt 0.63736265897750854 0.77399563789367676
vt 0.88315051794052124 0.65861105918884277
vt 0.80219781398773193 0.65861105918884277
vt 0.88315051794052124 0.77399563789367676
vt 0.80219781398773193 0.77399563789367676
vt 0.81029307842254639 0.65861105918884277
vt 0.97575950622558594 0.2080615907907486
vt 0.89334195852279663 0.2080615907907486
vt 0.97575950622558594 0.32344621419906616
vt 0.89334195852279663 0.32344621419906616
vt 0.96751779317855835 0.2080615907907486
vt 0.79395604133605957 0.41612318158149719
vt 0.71978020668029785 0.41612318158149719
vt 0.79395604133605957 0.53150779008865356
vt 0.71978020668029785 0.53150779008865356
vt 0.31868132948875427 0
vt 0.31868132948875427 0.43809559941291809
vt 0.5494505763053894 0.43809559941291809
vt 0.43406593799591064 0
vt 0.43406593799591064 0.032857172191143036
vt 0.5494505763053894 0.032857172191143036
vt 0 0
vt 0 0.43809559941291809
vt 0.23076923191547394 0
vt 0.11538461595773697 0.43809559941291809
vt 0.23076923191547394 0.40523841977119446
vt 0.11538461595773697 0.40523841977119446
vt 0.63589781522750854 0.67032968997955322
vt 0.23076923191547394 0.67032968997955322
vt 0.23076923191547394 0.89963406324386597
vt 0.63589781522750854 0.75222408771514893
vt 0.47524553537368774 0.71817046403884888
vt 0.47524553537368774 0.85179322957992554
vt 0.63589781522750854 0.81773960590362549
vt 0.63589781522750854 0.89963406324386597
vt 0.86910146474838257 0.2080615907907486
vt 0.78668391704559326 0.2080615907907486
vt 0.86910146474838257 0.32344621419906616
vt 0.78668391704559326 0.32344621419906616
vt 0.86085975170135498 0.32344621419906616
vt 0.79492568969726563 0.32344621419906616
vt 0.63736265897750854 0.3120923638343811
vt 0.63736265897750854 0.34505942463874817
vt 0.75274723768234253 0.3120923638343811
vt 0.75274723768234253 0.34505942463874817
vt 0.63736265897750854 0.2080615907907486
vt 0.63736265897750854 0.24102862179279327
vt 0.75274723768234253 0.2080615907907486
vt 0.75274723768234253 0.24102862179279327
vt 0.63736265897750854 0.1040307953953743
vt 0.63736265897750854 0.13699781894683838
vt 0.71153843402862549 0.1040307953953743
vt 0.71153843402862549 0.13699781894683838
vt 0.63736265897750854 0
vt 0.63736265897750854 0.032967034727334976
vt 0.71153843402862549 0
vt 0.71153843402862549 0.032967034727334976
vt 0.71153843402862549 0.41612318158149719
vt 0.63736265897750854 0.41612318158149719
vt 0.71153843402862549 0.53150779008865356
vt 0.63736265897750854 0.53150779008865356
vn 0 -1 0
vn 0 -1 0
vn 0 -1 0
vn 0 -1 0
vn 0 -1 0
vn 0 -1 0
vn 0 -1 0
vn 0 -1 0
vn -1 0 0
vn -1 0 0
vn -1 0 0
vn -1 0 0
vn 0 1 0
vn 0 1 0
vn 0 1 0
vn 0 1 0
vn 1 0 0
vn 1 0 0
vn 1 0 0
vn 1 0 0
vn -0.20791168510913849 0 -0.97814762592315674
vn -0.20791168510913849 0 -0.97814762592315674
vn -0.20791168510913849 0 -0.97814762592315674
vn -0.20791168510913849 0 -0.97814762592315674
vn -0.20791168510913849 0 0.97814762592315674
vn -0.20791168510913849 0 0.97814762592315674
vn -0.20791168510913849 0 0.97814762592315674
vn -0.20791168510913849 0 0.97814762592315674
vn 1 0 0
vn 1 0 0
vn 1 0 0
vn 1 0 0
vn 1 0 0
vn 1 0 0
vn 1 0 0
vn 1 0 0
vn 1 0 0
vn 1 0 0
vn 1 0 0
vn 1 0 0
vn 1 0 0
vn 1 0 0
vn 0 0 -1
vn 0 0 -1
vn 0 0 -1
vn 0 0 -1
vn 0 0 -1
vn 0 0 -1
vn 0 0 1
vn 0 0 1
vn 0 0 1
vn 0 0 1
vn 0 0 1
vn 0 0 1
vn 0 1 0
vn 0 1 0
vn 0 1 0
vn 0 1 0
vn 0 1 0
vn 0 1 0
vn 0 1 0
vn 0 1 0
vn 1 0 0
vn 1 0 0
vn 1 0 0
vn 1 0 0
vn 1 0 0
vn 1 0 0
vn 0 0 1
vn 0 0 1
vn 0 0 1
vn 0 0 1
vn 0 0 -1
vn 0 0 -1
vn 0 0 -1
vn 0 0 -1
vn 0 1 0
vn 0 1 0
vn 0 1 0
vn 0 1 0
vn 0 1 0
vn 0 1 0
vn 0 1 0
vn 0 1 0
vn 1 0 0
vn 1 0 0
vn 1 0 0
vn 1 0 0
f 6/6/6 5/5/5 1/1/1
f 7/7/7 6/6/6 2/2/2
f 1/1/1 2/2/2 6/6/6
f 7/7/7 3/3/3 8/8/8
f 2/2/2 4/4/4 7/7/7
f 3/3/3 7/7/7 4/4/4
f 10/10/10 12/12/12 11/11/11 9/9/9
f 14/14/14 13/13/13 15/15/15 16/16/16
f 18/18/18 17/17/17 19/19/19 20/20/20
f 22/22/22 21/21/21 23/23/23 24/24/24
f 26/26/26 25/25/25 27/27/27 28/28/28
f 33/33/33 32/32/32 31/31/31 29/29/29
f 30/30/30 32/32/32 33/33/33
f 36/36/36 34/34/34 38/38/38
f 35/35/35 37/37/37 36/36/36 38/38/38
f 40/40/40 42/42/42 41/41/41 39/39/39
f 47/47/47 43/43/43 44/44/44
f 46/46/46 43/43/43 47/47/47
f 45/45/45 48/48/48 47/47/47
f 44/44/44 45/45/45 47/47/47
f 50/50/50 54/54/54 49/49/49
f 51/51/51 49/49/49 54/54/54
f 52/52/52 54/54/54 50/50/50
f 51/51/51 54/54/54 53/53/53
f 59/59/59 55/55/55 58/58/58
f 59/59/59 60/60/60 57/57/57 56/56/56
f 55/55/55 59/59/59 56/56/56
f 60/60/60 61/61/61 62/62/62
f 62/62/62 57/57/57 60/60/60
f 64/64/64 68/68/68 67/67/67 63/63/63
f 65/65/65 63/63/63 67/67/67
f 64/64/64 66/66/66 68/68/68
f 70/70/70 72/72/72 71/71/71 69/69/69
f 74/74/74 76/76/76 75/75/75 73/73/73
f 78/78/78 80/80/80 79/79/79 77/77/77
f 82/82/82 84/84/84 83/83/83 81/81/81
f 86/86/86 88/88/88 87/87/87 85/85/85
