# Rhino

mtllib 十字刻半榫.mtl
o object_1
usemtl diffuse_0
v 150.07107543945313 15 -25.071067810058594
v 100.07106781005859 15 -25.071067810058594
v 150.07107543945313 15 -78.071067810058594
v 100.07106781005859 15 -78.071067810058594
v 150.07107543945313 15 -25.071067810058594
v 150.07107543945313 -15 -25.071067810058594
v 150.07107543945313 15 -78.071067810058594
v 150.07107543945313 -15 -78.071067810058594
v 150.07107543945313 -15 -25.071067810058594
v 100.07106781005859 -15 -25.071067810058594
v 150.07107543945313 -15 -78.071067810058594
v 100.07106781005859 -15 -78.071067810058594
v 100.07106781005859 -15 -25.071067810058594
v 100.07106781005859 15 -25.071067810058594
v 100.07106781005859 -15 -78.071067810058594
v 100.07106781005859 15 -78.071067810058594
v 150.07107543945313 15 -78.071067810058594
v 100.07106781005859 15 -78.071067810058594
v 150.07107543945313 -15 -78.071067810058594
v 100.07106781005859 -15 -78.071067810058594
v 150.07107543945313 15 -25.071067810058594
v 143 15 -18
v 100.07106781005859 15 -25.071067810058594
v 107.14213562011719 15 -18
v 100.07106781005859 15 -25.071067810058594
v 107.14213562011719 15 -18
v 100.07106781005859 -15 -25.071067810058594
v 107.14213562011719 -15 -18
v 107.14213562011719 0 -18
v 143 15 -18
v 150.07107543945313 15 -25.071067810058594
v 143 -15 -18
v 150.07107543945313 -15 -25.071067810058594
v 143 0 -18
v 150.07107543945313 -15 -25.071067810058594
v 143 -15 -18
v 100.07106781005859 -15 -25.071067810058594
v 107.14213562011719 -15 -18
v 107.14213562011719 -15 18
v 143 -15 18
v 107.14213562011719 -15 -18
v 143 -15 -18
v 143 -15 18
v 143 0 18
v 143 -15 -18
v 143 0 -18
v 150.07107543945313 15 25.071067810058594
v 143 15 18
v 100.07106781005859 15 25.071067810058594
v 107.14213562011719 15 18
v 100.07106781005859 15 25.071067810058594
v 107.14213562011719 15 18
v 100.07106781005859 -15 25.071067810058594
v 107.14213562011719 -15 18
v 107.14213562011719 0 18
v 143 15 18
v 150.07107543945313 15 25.071067810058594
v 143 -15 18
v 150.07107543945313 -15 25.071067810058594
v 143 0 18
v 150.07107543945313 -15 25.071067810058594
v 143 -15 18
v 100.07106781005859 -15 25.071067810058594
v 107.14213562011719 -15 18
v 150.07107543945313 15 225.07107543945313
v 150.07107543945313 -15 225.07107543945313
v 150.07107543945313 15 25.071067810058594
v 150.07107543945313 -15 25.071067810058594
v 100.07106781005859 15 25.071067810058594
v 100.07106781005859 -15 25.071067810058594
v 100.07106781005859 15 225.07107543945313
v 100.07106781005859 -15 225.07107543945313
v 100.07106781005859 15 225.07107543945313
v 100.07106781005859 -15 225.07107543945313
v 150.07107543945313 15 225.07107543945313
v 150.07107543945313 -15 225.07107543945313
v 150.07107543945313 15 225.07107543945313
v 150.07107543945313 15 25.071067810058594
v 100.07106781005859 15 225.07107543945313
v 100.07106781005859 15 25.071067810058594
v 150.07107543945313 -15 225.07107543945313
v 100.07106781005859 -15 225.07107543945313
v 150.07107543945313 -15 25.071067810058594
v 100.07106781005859 -15 25.071067810058594
v 107.14213562011719 15 18
v 143 15 18
v 107.14213562011719 0 18
v 143 0 18
v 107.14213562011719 15 -18
v 143 15 -18
v 107.14213562011719 0 -18
v 143 0 -18
v 107.14213562011719 0 18
v 143 0 18
v 107.14213562011719 0 -18
v 143 0 -18
v 107.14213562011719 -15 18
v 107.14213562011719 0 18
v 107.14213562011719 -15 -18
v 107.14213562011719 0 -18
vt 0.69597071409225464 0.49816849827766418
vt 0.69597071409225464 0.68131870031356812
vt 0.88864505290985107 0.49816849827766418
vt 0.88864505290985107 0.68131870031356812
vt 0.21831537783145905 0.61936765909194946
vt 0.10989011079072952 0.61936765909194946
vt 0.21831537783145905 0.81350690126419067
vt 0.10989011079072952 0.81350690126419067
vt 0.69597071409225464 0
vt 0.69597071409225464 0.18315018713474274
vt 0.88864505290985107 0
vt 0.88864505290985107 0.18315018713474274
vt 0.10842526704072952 0.61936765909194946
vt 0 0.61936765909194946
vt 0.10842526704072952 0.81350690126419067
vt 0 0.81350690126419067
vt 0.10989011079072952 0.26373627781867981
vt 0.10989011079072952 0.44688645005226135
vt 0.21831537783145905 0.26373627781867981
vt 0.21831537783145905 0.44688645005226135
vt 0 0.15070644021034241
vt 0 0.18691819906234741
vt 0.18315018713474274 0.15070644021034241
vt 0.18315018713474274 0.18691819906234741
vt 0.10810505598783493 0
vt 0.071475014090538025 0
vt 0.10810505598783493 0.10989011079072952
vt 0.071475014090538025 0.10989011079072952
vt 0.071475014090538025 0.054945055395364761
vt 0.036630038172006607 0
vt 0 0
vt 0.036630038172006607 0.10989011079072952
vt 0 0.10989011079072952
vt 0.036630038172006607 0.054945055395364761
vt 0 0.11302983015775681
vt 0 0.14924159646034241
vt 0.18315018713474274 0.11302983015775681
vt 0.18315018713474274 0.14924159646034241
vt 0.62228286266326904 0.1318681389093399
vt 0.49093538522720337 0.1318681389093399
vt 0.62228286266326904 0.26227143406867981
vt 0.49093538522720337 0.26227143406867981
vt 0.64839810132980347 0
vt 0.593453049659729 0
vt 0.64839810132980347 0.1304032951593399
vt 0.593453049659729 0.1304032951593399
vt 0 0.22605966031551361
vt 0 0.26227143406867981
vt 0.18315018713474274 0.22605966031551361
vt 0.18315018713474274 0.26227143406867981
vt 0.25105509161949158 0
vt 0.21442504227161407 0
vt 0.25105509161949158 0.10989011079072952
vt 0.21442504227161407 0.10989011079072952
vt 0.21442504227161407 0.054945055395364761
vt 0.17958006262779236 0
vt 0.14295002818107605 0
vt 0.17958006262779236 0.10989011079072952
vt 0.14295002818107605 0.10989011079072952
vt 0.17958006262779236 0.054945055395364761
vt 0 0.18838304281234741
vt 0 0.22459481656551361
vt 0.18315018713474274 0.18838304281234741
vt 0.18315018713474274 0.22459481656551361
vt 0.69450587034225464 0.26373627781867981
vt 0.58608061075210571 0.26373627781867981
vt 0.69450587034225464 0.99487215280532837
vt 0.58608061075210571 0.99487215280532837
vt 0.99853515625 0
vt 0.89010989665985107 0
vt 0.99853515625 0.73260074853897095
vt 0.89010989665985107 0.73260074853897095
vt 0.10842526704072952 0.26373627781867981
vt 0 0.26373627781867981
vt 0.10842526704072952 0.44688645005226135
vt 0 0.44688645005226135
vt 0.40293040871620178 0.26373627781867981
vt 0.40293040871620178 0.99487215280532837
vt 0.58461576700210571 0.26373627781867981
vt 0.58461576700210571 0.99487215280532837
vt 0.40146556496620178 0.26373627781867981
vt 0.21978022158145905 0.26373627781867981
vt 0.40146556496620178 0.99487215280532837
vt 0.21978022158145905 0.99487215280532837
vt 0.38841772079467773 0
vt 0.38841772079467773 0.1304032951593399
vt 0.4433627724647522 0
vt 0.4433627724647522 0.1304032951593399
vt 0.2859000563621521 0
vt 0.2859000563621521 0.1304032951593399
vt 0.34084510803222656 0
vt 0.34084510803222656 0.1304032951593399
vt 0.41724756360054016 0.1318681389093399
vt 0.2859000563621521 0.1318681389093399
vt 0.41724756360054016 0.26227143406867981
vt 0.2859000563621521 0.26227143406867981
vt 0.54588043689727783 0
vt 0.49093538522720337 0
vt 0.54588043689727783 0.1304032951593399
vt 0.49093538522720337 0.1304032951593399
vn 0 1 0
vn 0 1 0
vn 0 1 0
vn 0 1 0
vn 1 0 0
vn 1 0 0
vn 1 0 0
vn 1 0 0
vn 0 -1 0
vn 0 -1 0
vn 0 -1 0
vn 0 -1 0
vn -1 0 0
vn -1 0 0
vn -1 0 0
vn -1 0 0
vn 0 0 -1
vn 0 0 -1
vn 0 0 -1
vn 0 0 -1
vn 0 1 0
vn 0 1 0
vn 0 1 0
vn 0 1 0
vn -0.70710676908493042 0 0.70710676908493042
vn -0.70710676908493042 0 0.70710676908493042
vn -0.70710676908493042 0 0.70710676908493042
vn -0.70710676908493042 0 0.70710676908493042
vn -0.70710676908493042 0 0.70710676908493042
vn 0.70710676908493042 0 0.70710676908493042
vn 0.70710676908493042 0 0.70710676908493042
vn 0.70710676908493042 0 0.70710676908493042
vn 0.70710676908493042 0 0.70710676908493042
vn 0.70710676908493042 0 0.70710676908493042
vn 0 -1 0
vn 0 -1 0
vn 0 -1 0
vn 0 -1 0
vn 0 -1 0
vn 0 -1 0
vn 0 -1 0
vn 0 -1 0
vn 1 0 0
vn 1 0 0
vn 1 0 0
vn 1 0 0
vn 0 1 0
vn 0 1 0
vn 0 1 0
vn 0 1 0
vn -0.70710676908493042 0 -0.70710676908493042
vn -0.70710676908493042 0 -0.70710676908493042
vn -0.70710676908493042 0 -0.70710676908493042
vn -0.70710676908493042 0 -0.70710676908493042
vn -0.70710676908493042 0 -0.70710676908493042
vn 0.70710676908493042 0 -0.70710676908493042
vn 0.70710676908493042 0 -0.70710676908493042
vn 0.70710676908493042 0 -0.70710676908493042
vn 0.70710676908493042 0 -0.70710676908493042
vn 0.70710676908493042 0 -0.70710676908493042
vn 0 -1 0
vn 0 -1 0
vn 0 -1 0
vn 0 -1 0
vn 1 0 0
vn 1 0 0
vn 1 0 0
vn 1 0 0
vn -1 0 0
vn -1 0 0
vn -1 0 0
vn -1 0 0
vn 0 0 1
vn 0 0 1
vn 0 0 1
vn 0 0 1
vn 0 1 0
vn 0 1 0
vn 0 1 0
vn 0 1 0
vn 0 -1 0
vn 0 -1 0
vn 0 -1 0
vn 0 -1 0
vn 0 0 -1
vn 0 0 -1
vn 0 0 -1
vn 0 0 -1
vn 0 0 1
vn 0 0 1
vn 0 0 1
vn 0 0 1
vn 0 1 0
vn 0 1 0
vn 0 1 0
vn 0 1 0
vn -1 0 0
vn -1 0 0
vn -1 0 0
vn -1 0 0
f 2/2/2 1/1/1 3/3/3 4/4/4
f 6/6/6 8/8/8 7/7/7 5/5/5
f 10/10/10 12/12/12 11/11/11 9/9/9
f 14/14/14 16/16/16 15/15/15 13/13/13
f 18/18/18 17/17/17 19/19/19 20/20/20
f 22/22/22 21/21/21 23/23/23 24/24/24
f 29/29/29 26/26/26 25/25/25
f 28/28/28 29/29/29 27/27/27
f 25/25/25 27/27/27 29/29/29
f 34/34/34 31/31/31 30/30/30
f 33/33/33 34/34/34 32/32/32
f 31/31/31 34/34/34 33/33/33
f 36/36/36 38/38/38 37/37/37 35/35/35
f 40/40/40 39/39/39 41/41/41 42/42/42
f 44/44/44 43/43/43 45/45/45 46/46/46
f 48/48/48 50/50/50 49/49/49 47/47/47
f 55/55/55 51/51/51 52/52/52
f 54/54/54 53/53/53 55/55/55
f 51/51/51 55/55/55 53/53/53
f 60/60/60 56/56/56 57/57/57
f 59/59/59 58/58/58 60/60/60
f 57/57/57 59/59/59 60/60/60
f 62/62/62 61/61/61 63/63/63 64/64/64
f 66/66/66 68/68/68 67/67/67 65/65/65
f 70/70/70 72/72/72 71/71/71 69/69/69
f 74/74/74 76/76/76 75/75/75 73/73/73
f 78/78/78 80/80/80 79/79/79 77/77/77
f 82/82/82 84/84/84 83/83/83 81/81/81
f 86/86/86 88/88/88 87/87/87 85/85/85
f 90/90/90 89/89/89 91/91/91 92/92/92
f 94/94/94 96/96/96 95/95/95 93/93/93
f 98/98/98 100/100/100 99/99/99 97/97/97
o object_2
usemtl diffuse_0
v 150.14213562011719 -15 25
v 150.14213562011719 -15 -25
v 203.14213562011719 -15 25
v 203.14213562011719 -15 -25
v 150.14213562011719 -15 25
v 150.14213562011719 15 25
v 203.14213562011719 -15 25
v 203.14213562011719 15 25
v 150.14213562011719 15 25
v 150.14213562011719 15 -25
v 203.14213562011719 15 25
v 203.14213562011719 15 -25
v 150.14213562011719 15 -25
v 150.14213562011719 -15 -25
v 203.14213562011719 15 -25
v 203.14213562011719 -15 -25
v 203.14213562011719 -15 25
v 203.14213562011719 -15 -25
v 203.14213562011719 15 25
v 203.14213562011719 15 -25
v 150.14213562011719 -15 25
v 143.07107543945313 -15 17.928932189941406
v 150.14213562011719 -15 -25
v 143.07107543945313 -15 -17.928932189941406
v 150.14213562011719 -15 -25
v 143.07107543945313 -15 -17.928932189941406
v 150.14213562011719 15 -25
v 143.07107543945313 15 -17.928932189941406
v 143.07107543945313 0 -17.928932189941406
v 143.07107543945313 -15 17.928932189941406
v 150.14213562011719 -15 25
v 143.07107543945313 15 17.928932189941406
v 150.14213562011719 15 25
v 143.07107543945313 0 17.928932189941406
v 150.14213562011719 15 25
v 143.07107543945313 15 17.928932189941406
v 150.14213562011719 15 -25
v 143.07107543945313 15 -17.928932189941406
v 107.07106781005859 15 -17.928932189941406
v 107.07106781005859 15 17.928932189941406
v 143.07107543945313 15 -17.928932189941406
v 143.07107543945313 15 17.928932189941406
v 107.07106781005859 15 17.928932189941406
v 107.07106781005859 0 17.928932189941406
v 143.07107543945313 15 17.928932189941406
v 143.07107543945313 0 17.928932189941406
v 100 -15 25
v 107.07106781005859 -15 17.928932189941406
v 100 -15 -25
v 107.07106781005859 -15 -17.928932189941406
v 100 -15 -25
v 107.07106781005859 -15 -17.928932189941406
v 100 15 -25
v 107.07106781005859 15 -17.928932189941406
v 107.07106781005859 0 -17.928932189941406
v 107.07106781005859 -15 17.928932189941406
v 100 -15 25
v 107.07106781005859 15 17.928932189941406
v 100 15 25
v 107.07106781005859 0 17.928932189941406
v 100 15 25
v 107.07106781005859 15 17.928932189941406
v 100 15 -25
v 107.07106781005859 15 -17.928932189941406
v -100 -15 25
v -100 15 25
v 100 -15 25
v 100 15 25
v 100 -15 -25
v 100 15 -25
v -100 -15 -25
v -100 15 -25
v -100 -15 -25
v -100 15 -25
v -100 -15 25
v -100 15 25
v -100 -15 25
v 100 -15 25
v -100 -15 -25
v 100 -15 -25
v -100 15 25
v -100 15 -25
v 100 15 25
v 100 15 -25
v 107.07106781005859 -15 -17.928932189941406
v 107.07106781005859 -15 17.928932189941406
v 107.07106781005859 0 -17.928932189941406
v 107.07106781005859 0 17.928932189941406
v 143.07107543945313 -15 -17.928932189941406
v 143.07107543945313 -15 17.928932189941406
v 143.07107543945313 0 -17.928932189941406
v 143.07107543945313 0 17.928932189941406
v 107.07106781005859 0 -17.928932189941406
v 107.07106781005859 0 17.928932189941406
v 143.07107543945313 0 -17.928932189941406
v 143.07107543945313 0 17.928932189941406
v 107.07106781005859 15 -17.928932189941406
v 107.07106781005859 0 -17.928932189941406
v 143.07107543945313 15 -17.928932189941406
v 143.07107543945313 0 -17.928932189941406
vt 0.69597071409225464 0.49816849827766418
vt 0.69597071409225464 0.68131870031356812
vt 0.88864505290985107 0.49816849827766418
vt 0.88864505290985107 0.68131870031356812
vt 0.21831537783145905 0.61936765909194946
vt 0.10989011079072952 0.61936765909194946
vt 0.21831537783145905 0.81350690126419067
vt 0.10989011079072952 0.81350690126419067
vt 0.69597071409225464 0
vt 0.69597071409225464 0.18315018713474274
vt 0.88864505290985107 0
vt 0.88864505290985107 0.18315018713474274
vt 0.10842526704072952 0.61936765909194946
vt 0 0.61936765909194946
vt 0.10842526704072952 0.81350690126419067
vt 0 0.81350690126419067
vt 0.10989011079072952 0.26373627781867981
vt 0.10989011079072952 0.44688645005226135
vt 0.21831537783145905 0.26373627781867981
vt 0.21831537783145905 0.44688645005226135
vt 0 0.15070644021034241
vt 0 0.18691819906234741
vt 0.18315018713474274 0.15070644021034241
vt 0.18315018713474274 0.18691819906234741
vt 0.10810505598783493 0
vt 0.071475014090538025 0
vt 0.10810505598783493 0.10989011079072952
vt 0.071475014090538025 0.10989011079072952
vt 0.071475014090538025 0.054945055395364761
vt 0.036630038172006607 0
vt 0 0
vt 0.036630038172006607 0.10989011079072952
vt 0 0.10989011079072952
vt 0.036630038172006607 0.054945055395364761
vt 0 0.11302983015775681
vt 0 0.14924159646034241
vt 0.18315018713474274 0.11302983015775681
vt 0.18315018713474274 0.14924159646034241
vt 0.62228286266326904 0.1318681389093399
vt 0.49093538522720337 0.1318681389093399
vt 0.62228286266326904 0.26227143406867981
vt 0.49093538522720337 0.26227143406867981
vt 0.64839810132980347 0
vt 0.593453049659729 0
vt 0.64839810132980347 0.1304032951593399
vt 0.593453049659729 0.1304032951593399
vt 0 0.22605966031551361
vt 0 0.26227143406867981
vt 0.18315018713474274 0.22605966031551361
vt 0.18315018713474274 0.26227143406867981
vt 0.25105509161949158 0
vt 0.21442504227161407 0
vt 0.25105509161949158 0.10989011079072952
vt 0.21442504227161407 0.10989011079072952
vt 0.21442504227161407 0.054945055395364761
vt 0.17958006262779236 0
vt 0.14295002818107605 0
vt 0.17958006262779236 0.10989011079072952
vt 0.14295002818107605 0.10989011079072952
vt 0.17958006262779236 0.054945055395364761
vt 0 0.18838304281234741
vt 0 0.22459481656551361
vt 0.18315018713474274 0.18838304281234741
vt 0.18315018713474274 0.22459481656551361
vt 0.69450587034225464 0.26373627781867981
vt 0.58608061075210571 0.26373627781867981
vt 0.69450587034225464 0.99487215280532837
vt 0.58608061075210571 0.99487215280532837
vt 0.99853515625 0
vt 0.89010989665985107 0
vt 0.99853515625 0.73260074853897095
vt 0.89010989665985107 0.73260074853897095
vt 0.10842526704072952 0.26373627781867981
vt 0 0.26373627781867981
vt 0.10842526704072952 0.44688645005226135
vt 0 0.44688645005226135
vt 0.40293040871620178 0.26373627781867981
vt 0.40293040871620178 0.99487215280532837
vt 0.58461576700210571 0.26373627781867981
vt 0.58461576700210571 0.99487215280532837
vt 0.40146556496620178 0.26373627781867981
vt 0.21978022158145905 0.26373627781867981
vt 0.40146556496620178 0.99487215280532837
vt 0.21978022158145905 0.99487215280532837
vt 0.38841772079467773 0
vt 0.38841772079467773 0.1304032951593399
vt 0.4433627724647522 0
vt 0.4433627724647522 0.1304032951593399
vt 0.2859000563621521 0
vt 0.2859000563621521 0.1304032951593399
vt 0.34084510803222656 0
vt 0.34084510803222656 0.1304032951593399
vt 0.41724756360054016 0.1318681389093399
vt 0.2859000563621521 0.1318681389093399
vt 0.41724756360054016 0.26227143406867981
vt 0.2859000563621521 0.26227143406867981
vt 0.54588043689727783 0
vt 0.49093538522720337 0
vt 0.54588043689727783 0.1304032951593399
vt 0.49093538522720337 0.1304032951593399
vn 0 -1 0
vn 0 -1 0
vn 0 -1 0
vn 0 -1 0
vn 0 0 1
vn 0 0 1
vn 0 0 1
vn 0 0 1
vn 0 1 0
vn 0 1 0
vn 0 1 0
vn 0 1 0
vn 0 0 -1
vn 0 0 -1
vn 0 0 -1
vn 0 0 -1
vn 1 0 0
vn 1 0 0
vn 1 0 0
vn 1 0 0
vn 0 -1 0
vn 0 -1 0
vn 0 -1 0
vn 0 -1 0
vn -0.70710676908493042 0 -0.70710676908493042
vn -0.70710676908493042 0 -0.70710676908493042
vn -0.70710676908493042 0 -0.70710676908493042
vn -0.70710676908493042 0 -0.70710676908493042
vn -0.70710676908493042 0 -0.70710676908493042
vn -0.70710676908493042 0 0.70710676908493042
vn -0.70710676908493042 0 0.70710676908493042
vn -0.70710676908493042 0 0.70710676908493042
vn -0.70710676908493042 0 0.70710676908493042
vn -0.70710676908493042 0 0.70710676908493042
vn 0 1 0
vn 0 1 0
vn 0 1 0
vn 0 1 0
vn 0 1 0
vn 0 1 0
vn 0 1 0
vn 0 1 0
vn 0 0 1
vn 0 0 1
vn 0 0 1
vn 0 0 1
vn 0 -1 0
vn 0 -1 0
vn 0 -1 0
vn 0 -1 0
vn 0.70710676908493042 0 -0.70710676908493042
vn 0.70710676908493042 0 -0.70710676908493042
vn 0.70710676908493042 0 -0.70710676908493042
vn 0.70710676908493042 0 -0.70710676908493042
vn 0.70710676908493042 0 -0.70710676908493042
vn 0.70710676908493042 0 0.70710676908493042
vn 0.70710676908493042 0 0.70710676908493042
vn 0.70710676908493042 0 0.70710676908493042
vn 0.70710676908493042 0 0.70710676908493042
vn 0.70710676908493042 0 0.70710676908493042
vn 0 1 0
vn 0 1 0
vn 0 1 0
vn 0 1 0
vn 0 0 1
vn 0 0 1
vn 0 0 1
vn 0 0 1
vn 0 0 -1
vn 0 0 -1
vn 0 0 -1
vn 0 0 -1
vn -1 0 0
vn -1 0 0
vn -1 0 0
vn -1 0 0
vn 0 -1 0
vn 0 -1 0
vn 0 -1 0
vn 0 -1 0
vn 0 1 0
vn 0 1 0
vn 0 1 0
vn 0 1 0
vn 1 0 0
vn 1 0 0
vn 1 0 0
vn 1 0 0
vn -1 0 0
vn -1 0 0
vn -1 0 0
vn -1 0 0
vn 0 -1 0
vn 0 -1 0
vn 0 -1 0
vn 0 -1 0
vn 0 0 -1
vn 0 0 -1
vn 0 0 -1
vn 0 0 -1
f 102/102/102 104/104/104 103/103/103 101/101/101
f 106/106/106 105/105/105 107/107/107 108/108/108
f 110/110/110 109/109/109 111/111/111 112/112/112
f 114/114/114 113/113/113 115/115/115 116/116/116
f 118/118/118 120/120/120 119/119/119 117/117/117
f 122/122/122 124/124/124 123/123/123 121/121/121
f 129/129/129 125/125/125 126/126/126
f 128/128/128 127/127/127 129/129/129
f 125/125/125 129/129/129 127/127/127
f 134/134/134 130/130/130 131/131/131
f 133/133/133 132/132/132 134/134/134
f 131/131/131 133/133/133 134/134/134
f 136/136/136 135/135/135 137/137/137 138/138/138
f 140/140/140 142/142/142 141/141/141 139/139/139
f 144/144/144 146/146/146 145/145/145 143/143/143
f 148/148/148 147/147/147 149/149/149 150/150/150
f 155/155/155 152/152/152 151/151/151
f 154/154/154 155/155/155 153/153/153
f 151/151/151 153/153/153 155/155/155
f 160/160/160 157/157/157 156/156/156
f 159/159/159 160/160/160 158/158/158
f 157/157/157 160/160/160 159/159/159
f 162/162/162 164/164/164 163/163/163 161/161/161
f 166/166/166 165/165/165 167/167/167 168/168/168
f 170/170/170 169/169/169 171/171/171 172/172/172
f 174/174/174 173/173/173 175/175/175 176/176/176
f 178/178/178 177/177/177 179/179/179 180/180/180
f 182/182/182 181/181/181 183/183/183 184/184/184
f 186/186/186 185/185/185 187/187/187 188/188/188
f 190/190/190 192/192/192 191/191/191 189/189/189
f 194/194/194 193/193/193 195/195/195 196/196/196
f 198/198/198 197/197/197 199/199/199 200/200/200
