# Rhino

mtllib Dovetailed Joint (Ver. 1).mtl
o object_1
usemtl diffuse_0
v -88.361068725585938 52.5 -85.593376159667969
v -15 52.5 -70
v -88.361068725585938 52.5 -19.406623840332031
v -15 52.5 -35
v -88.361068725585938 52.5 -85.593376159667969
v -88.361068725585938 52.5 -19.406623840332031
v -88.361068725585938 105 -85.593376159667969
v -88.361068725585938 105 -19.406623840332031
v -88.361068725585938 52.5 -19.406623840332031
v -15 52.5 -35
v -88.361068725585938 105 -19.406623840332031
v -15 105 -35
v -15 52.5 -70
v -88.361068725585938 52.5 -85.593376159667969
v -15 105 -70
v -88.361068725585938 105 -85.593376159667969
v -88.361068725585938 105 -85.593376159667969
v -15 105 -70
v -88.361068725585938 105 -19.406623840332031
v -15 105 -35
v -15 52.5 0
v 0 52.5 0
v -15 52.5 -105
v 0 52.5 -105
v -15 52.5 -35
v -15 52.5 -70
v -15 52.5 0
v -15 52.5 -35
v -15 105 0
v -15 105 -35
v -15 52.5 -105
v 0 52.5 -105
v -15 105 -105
v 0 105 -105
v 0 52.5 0
v -15 52.5 0
v 0 105 0
v -15 105 0
v -15 105 0
v 0 105 0
v -15 105 -105
v 0 105 -105
v -15 105 -35
v -15 105 -70
v -15 52.5 -70
v -15 52.5 -105
v -15 105 -70
v -15 105 -105
v 0 0 0
v 200 0 0
v 0 0 -105
v 200 0 -105
v 0 0 -105
v 200 0 -105
v 0 105 -105
v 200 105 -105
v 0 52.5 -105
v 200 0 -105
v 200 0 0
v 200 105 -105
v 200 105 0
v 200 0 0
v 0 0 0
v 200 105 0
v 0 105 0
v 0 52.5 0
v 0 105 0
v 200 105 0
v 0 105 -105
v 200 105 -105
v 0 0 0
v 0 0 -105
v 0 52.5 0
v 0 52.5 -105
vt 0.38814496994018555 0.15194244682788849
vt 0.21520909667015076 0.15194244682788849
vt 0.38814496994018555 0.30455663800239563
vt 0.21520909667015076 0.30455663800239563
vt 0.4842204749584198 0.18989036977291107
vt 0.4842204749584198 0.34250456094741821
vt 0.60527557134628296 0.18989036977291107
vt 0.60527557134628296 0.34250456094741821
vt 0.72633069753646851 0.46116235852241516
vt 0.72633069753646851 0.63409823179244995
vt 0.84592097997665405 0.46116235852241516
vt 0.84592097997665405 0.63409823179244995
vt 0.61316531896591187 0.18989036977291107
vt 0.61316531896591187 0.36282625794410706
vt 0.73422044515609741 0.18989036977291107
vt 0.73422044515609741 0.36282625794410706
vt 0.84738582372665405 0.46116235852241516
vt 0.84738582372665405 0.63409823179244995
vt 0.99853515625 0.46116235852241516
vt 0.99853515625 0.63409823179244995
vt 0.19599398970603943 0
vt 0.16140681505203247 0
vt 0.19599398970603943 0.2421102374792099
vt 0.16140681505203247 0.2421102374792099
vt 0.19599398970603943 0.080703414976596832
vt 0.19599398970603943 0.16140682995319366
vt 0.43041819334030151 0
vt 0.34971478581428528 0
vt 0.43041819334030151 0.12105511873960495
vt 0.34971478581428528 0.12105511873960495
vt 0.088389448821544647 0
vt 0.053802274167537689 0
vt 0.088389448821544647 0.12105511873960495
vt 0.053802274167537689 0.12105511873960495
vt 0.034587174654006958 0
vt 0 0
vt 0.034587174654006958 0.12105511873960495
vt 0 0.12105511873960495
vt 0.14219172298908234 0
vt 0.10760454833507538 0
vt 0.14219172298908234 0.2421102374792099
vt 0.10760454833507538 0.2421102374792099
vt 0.14219172298908234 0.080703414976596832
vt 0.14219172298908234 0.16140682995319366
vt 0.29591250419616699 0
vt 0.21520909667015076 0
vt 0.29591250419616699 0.12105511873960495
vt 0.21520909667015076 0.12105511873960495
vt 0.4842204749584198 0.46116235852241516
vt 0.4842204749584198 0.92085987329483032
vt 0.72486585378646851 0.46116235852241516
vt 0.72486585378646851 0.92085987329483032
vt 0.2421102374792099 0.34349629282951355
vt 0.2421102374792099 0.80465865135192871
vt 0.4827556312084198 0.34349629282951355
vt 0.4827556312084198 0.80465865135192871
vt 0.36243292689323425 0.34349629282951355
vt 0.9684409499168396 0.65331333875656128
vt 0.72633069753646851 0.65331333875656128
vt 0.9684409499168396 0.8954235315322876
vt 0.72633069753646851 0.8954235315322876
vt 0 0.34349629282951355
vt 0 0.80465865135192871
vt 0.2406453937292099 0.34349629282951355
vt 0.2406453937292099 0.80465865135192871
vt 0.12032269686460495 0.80465865135192871
vt 0.74211025238037109 0
vt 0.74211025238037109 0.45969751477241516
vt 0.98422044515609741 0
vt 0.98422044515609741 0.45969751477241516
vt 0.72633069753646851 0
vt 0.4842204749584198 0
vt 0.72633069753646851 0.12105511873960495
vt 0.4842204749584198 0.12105511873960495
vn 0 -1 0
vn 0 -1 0
vn 0 -1 0
vn 0 -1 0
vn -1 0 0
vn -1 0 0
vn -1 0 0
vn -1 0 0
vn 0.20791168510913849 0 0.97814762592315674
vn 0.20791168510913849 0 0.97814762592315674
vn 0.20791168510913849 0 0.97814762592315674
vn 0.20791168510913849 0 0.97814762592315674
vn 0.20791168510913849 0 -0.97814762592315674
vn 0.20791168510913849 0 -0.97814762592315674
vn 0.20791168510913849 0 -0.97814762592315674
vn 0.20791168510913849 0 -0.97814762592315674
vn 0 1 0
vn 0 1 0
vn 0 1 0
vn 0 1 0
vn 0 -1 0
vn 0 -1 0
vn 0 -1 0
vn 0 -1 0
vn 0 -1 0
vn 0 -1 0
vn -1 0 0
vn -1 0 0
vn -1 0 0
vn -1 0 0
vn 0 0 -1
vn 0 0 -1
vn 0 0 -1
vn 0 0 -1
vn 0 0 1
vn 0 0 1
vn 0 0 1
vn 0 0 1
vn 0 1 0
vn 0 1 0
vn 0 1 0
vn 0 1 0
vn 0 1 0
vn 0 1 0
vn -1 0 0
vn -1 0 0
vn -1 0 0
vn -1 0 0
vn 0 -1 0
vn 0 -1 0
vn 0 -1 0
vn 0 -1 0
vn 0 0 -1
vn 0 0 -1
vn 0 0 -1
vn 0 0 -1
vn 0 0 -1
vn 1 0 0
vn 1 0 0
vn 1 0 0
vn 1 0 0
vn 0 0 1
vn 0 0 1
vn 0 0 1
vn 0 0 1
vn 0 0 1
vn 0 1 0
vn 0 1 0
vn 0 1 0
vn 0 1 0
vn -1 0 0
vn -1 0 0
vn -1 0 0
vn -1 0 0
f 2/2/2 4/4/4 3/3/3 1/1/1
f 6/6/6 8/8/8 7/7/7 5/5/5
f 10/10/10 12/12/12 11/11/11 9/9/9
f 14/14/14 16/16/16 15/15/15 13/13/13
f 18/18/18 17/17/17 19/19/19 20/20/20
f 22/22/22 21/21/21 25/25/25
f 24/24/24 22/22/22 25/25/25 26/26/26
f 24/24/24 26/26/26 23/23/23
f 28/28/28 27/27/27 29/29/29 30/30/30
f 32/32/32 31/31/31 33/33/33 34/34/34
f 36/36/36 35/35/35 37/37/37 38/38/38
f 40/40/40 43/43/43 39/39/39
f 42/42/42 44/44/44 43/43/43 40/40/40
f 42/42/42 41/41/41 44/44/44
f 46/46/46 45/45/45 47/47/47 48/48/48
f 50/50/50 49/49/49 51/51/51 52/52/52
f 57/57/57 54/54/54 53/53/53
f 56/56/56 57/57/57 55/55/55
f 54/54/54 57/57/57 56/56/56
f 59/59/59 58/58/58 60/60/60 61/61/61
f 66/66/66 63/63/63 62/62/62
f 65/65/65 66/66/66 64/64/64
f 62/62/62 64/64/64 66/66/66
f 68/68/68 70/70/70 69/69/69 67/67/67
f 72/72/72 71/71/71 73/73/73 74/74/74
o object_2
usemtl diffuse_0
v 0 0 0
v -200 0 0
v 0 0 -105
v -200 0 -105
v -200 0 -105
v -200 0 0
v -200 105 -105
v -200 105 0
v -88.361068725585938 52.5 -85.593376159667969
v -15 52.5 -70
v -88.361068725585938 52.5 -19.406623840332031
v -15 52.5 -35
v -88.361068725585938 52.5 -85.593376159667969
v -88.361068725585938 52.5 -19.406623840332031
v -88.361068725585938 105 -85.593376159667969
v -88.361068725585938 105 -19.406623840332031
v -88.361068725585938 52.5 -19.406623840332031
v -15 52.5 -35
v -88.361068725585938 105 -19.406623840332031
v -15 105 -35
v -15 52.5 -70
v -88.361068725585938 52.5 -85.593376159667969
v -15 105 -70
v -88.361068725585938 105 -85.593376159667969
v -15 52.5 0
v 0 52.5 0
v -15 52.5 -105
v 0 52.5 -105
v -15 52.5 -35
v -15 52.5 -70
v -15 52.5 0
v -15 52.5 -35
v -15 105 0
v -15 105 -35
v -15 52.5 -70
v -15 52.5 -105
v -15 105 -70
v -15 105 -105
v 0 0 0
v 0 0 -105
v 0 52.5 0
v 0 52.5 -105
v 0 0 -105
v -200 0 -105
v -200 105 -105
v 0 52.5 -105
v -15 52.5 -105
v -15 105 -105
v -200 0 0
v 0 0 0
v -200 105 0
v -15 52.5 0
v 0 52.5 0
v -15 105 0
v -15 105 0
v -200 105 0
v -200 105 -105
v -88.361068725585938 105 -19.406623840332031
v -88.361068725585938 105 -85.593376159667969
v -15 105 -35
v -15 105 -70
v -15 105 -105
vt 0.4761904776096344 0
vt 0 0
vt 0.4761904776096344 0.25
vt 0 0.25
vt 0.99853515625 0.1785714328289032
vt 0.75 0.1785714328289032
vt 0.99853515625 0.4271065890789032
vt 0.75 0.4271065890789032
vt 0.1785714328289032 0.32758620381355286
vt 0 0.32758620381355286
vt 0.1785714328289032 0.48517370223999023
vt 0 0.48517370223999023
vt 0.60000002384185791 0.18443213403224945
vt 0.60000002384185791 0.34201964735984802
vt 0.72500002384185791 0.18443213403224945
vt 0.72500002384185791 0.34201964735984802
vt 0.875 0
vt 0.875 0.1771065890789032
vt 0.99853515625 0
vt 0.99853515625 0.1771065890789032
vt 0.75 0
vt 0.75 0.1771065890789032
vt 0.87353515625 0
vt 0.87353515625 0.1771065890789032
vt 0.5 0
vt 0.5 0.035714287310838699
vt 0.74853515625 0
vt 0.74853515625 0.035714287310838699
vt 0.58284503221511841 0
vt 0.66569012403488159 0
vt 0.58333331346511841 0.18443213403224945
vt 0.5 0.18443213403224945
vt 0.58333331346511841 0.30943214893341064
vt 0.5 0.30943214893341064
vt 0.5 0.055329643189907074
vt 0.5 0.13866297900676727
vt 0.625 0.055329643189907074
vt 0.625 0.13866297900676727
vt 0.24853515625 0.64945352077484131
vt 0 0.64945352077484131
vt 0.24853515625 0.77445352077484131
vt 0 0.77445352077484131
vt 0.75 0.4285714328289032
vt 0.75 0.9032970666885376
vt 0.99853515625 0.9032970666885376
vt 0.874267578125 0.4285714328289032
vt 0.874267578125 0.46417585015296936
vt 0.99853515625 0.46417585015296936
vt 0.5 0.4285714328289032
vt 0.5 0.9032970666885376
vt 0.74853515625 0.4285714328289032
vt 0.624267578125 0.86769264936447144
vt 0.624267578125 0.9032970666885376
vt 0.74853515625 0.86769264936447144
vt 0.25 0.32758620381355286
vt 0.25 0.76806241273880005
vt 0.49853515625 0.76806241273880005
vt 0.29593551158905029 0.50225543975830078
vt 0.45259964466094971 0.50225543975830078
vt 0.3328450620174408 0.32758620381355286
vt 0.4156900942325592 0.32758620381355286
vt 0.49853515625 0.32758620381355286
vn 0 -1 0
vn 0 -1 0
vn 0 -1 0
vn 0 -1 0
vn -1 0 0
vn -1 0 0
vn -1 0 0
vn -1 0 0
vn 0 1 0
vn 0 1 0
vn 0 1 0
vn 0 1 0
vn 1 0 0
vn 1 0 0
vn 1 0 0
vn 1 0 0
vn -0.20791168510913849 0 -0.97814762592315674
vn -0.20791168510913849 0 -0.97814762592315674
vn -0.20791168510913849 0 -0.97814762592315674
vn -0.20791168510913849 0 -0.97814762592315674
vn -0.20791168510913849 0 0.97814762592315674
vn -0.20791168510913849 0 0.97814762592315674
vn -0.20791168510913849 0 0.97814762592315674
vn -0.20791168510913849 0 0.97814762592315674
vn 0 1 0
vn 0 1 0
vn 0 1 0
vn 0 1 0
vn 0 1 0
vn 0 1 0
vn 1 0 0
vn 1 0 0
vn 1 0 0
vn 1 0 0
vn 1 0 0
vn 1 0 0
vn 1 0 0
vn 1 0 0
vn 1 0 0
vn 1 0 0
vn 1 0 0
vn 1 0 0
vn 0 0 -1
vn 0 0 -1
vn 0 0 -1
vn 0 0 -1
vn 0 0 -1
vn 0 0 -1
vn 0 0 1
vn 0 0 1
vn 0 0 1
vn 0 0 1
vn 0 0 1
vn 0 0 1
vn 0 1 0
vn 0 1 0
vn 0 1 0
vn 0 1 0
vn 0 1 0
vn 0 1 0
vn 0 1 0
vn 0 1 0
f 76/76/76 78/78/78 77/77/77 75/75/75
f 80/80/80 82/82/82 81/81/81 79/79/79
f 84/84/84 83/83/83 85/85/85 86/86/86
f 88/88/88 87/87/87 89/89/89 90/90/90
f 92/92/92 91/91/91 93/93/93 94/94/94
f 96/96/96 95/95/95 97/97/97 98/98/98
f 100/100/100 103/103/103 99/99/99
f 102/102/102 104/104/104 103/103/103 100/100/100
f 102/102/102 101/101/101 104/104/104
f 106/106/106 108/108/108 107/107/107 105/105/105
f 110/110/110 112/112/112 111/111/111 109/109/109
f 114/114/114 116/116/116 115/115/115 113/113/113
f 121/121/121 117/117/117 118/118/118
f 120/120/120 117/117/117 121/121/121
f 119/119/119 122/122/122 121/121/121
f 118/118/118 119/119/119 121/121/121
f 124/124/124 126/126/126 123/123/123
f 125/125/125 123/123/123 126/126/126
f 127/127/127 126/126/126 124/124/124
f 125/125/125 126/126/126 128/128/128
f 132/132/132 129/129/129 134/134/134
f 132/132/132 133/133/133 131/131/131 130/130/130
f 129/129/129 132/132/132 130/130/130
f 133/133/133 135/135/135 136/136/136
f 136/136/136 131/131/131 133/133/133
