# Rhino

mtllib Dovetailed Joint 2.mtl
o object_1
usemtl diffuse_0
v -15 0 -33.75
v 0 0 -33.75
v -15 0 -71.25
v 0 0 -71.25
v -15 0 -33.75
v -15 0 -71.25
v -15 52.5 -33.75
v -15 52.5 -71.25
v -15 52.5 -37.5
v -15 52.5 -67.5
v -15 0 -71.25
v 0 0 -71.25
v -15 52.5 -71.25
v 0 52.5 -71.25
v 0 0 -33.75
v -15 0 -33.75
v 0 52.5 -33.75
v -15 52.5 -33.75
v -88.361068725585938 52.5 -83.093376159667969
v -15 52.5 -67.5
v -88.361068725585938 52.5 -21.906623840332031
v -15 52.5 -37.5
v -88.361068725585938 52.5 -83.093376159667969
v -88.361068725585938 52.5 -21.906623840332031
v -88.361068725585938 105 -83.093376159667969
v -88.361068725585938 105 -21.906623840332031
v -88.361068725585938 52.5 -21.906623840332031
v -15 52.5 -37.5
v -88.361068725585938 105 -21.906623840332031
v -15 105 -37.5
v -15 52.5 -67.5
v -88.361068725585938 52.5 -83.093376159667969
v -15 105 -67.5
v -88.361068725585938 105 -83.093376159667969
v -88.361068725585938 105 -83.093376159667969
v -15 105 -67.5
v -88.361068725585938 105 -21.906623840332031
v -15 105 -37.5
v -15 52.5 0
v -15 52.5 -37.5
v -15 105 0
v -15 105 -37.5
v -15 52.5 -33.75
v -15 52.5 -105
v 0 52.5 -105
v -15 105 -105
v 0 105 -105
v 0 52.5 0
v -15 52.5 0
v 0 105 0
v -15 105 0
v -15 105 0
v 0 105 0
v -15 105 -105
v 0 105 -105
v -15 105 -37.5
v -15 105 -67.5
v -15 52.5 -67.5
v -15 52.5 -105
v -15 105 -67.5
v -15 105 -105
v -15 52.5 -71.25
v 0 0 0
v 200 0 0
v 0 0 -105
v 200 0 -105
v 0 0 -33.75
v 0 0 -71.25
v 0 0 -105
v 200 0 -105
v 0 105 -105
v 200 105 -105
v 0 52.5 -105
v 200 0 -105
v 200 0 0
v 200 105 -105
v 200 105 0
v 200 0 0
v 0 0 0
v 200 105 0
v 0 105 0
v 0 52.5 0
v 0 105 0
v 200 105 0
v 0 105 -105
v 200 105 -105
v 0 0 0
v 0 0 -33.75
v 0 52.5 0
v 0 52.5 -33.75
v -15 52.5 -71.25
v 0 52.5 -71.25
v -15 52.5 -105
v 0 52.5 -105
v -15 52.5 0
v 0 52.5 0
v -15 52.5 -33.75
v 0 52.5 -33.75
v 0 0 -71.25
v 0 0 -105
v 0 52.5 -71.25
v 0 52.5 -105
vt 0.035714287310838699 0.18805447220802307
vt 0 0.18805447220802307
vt 0.035714287310838699 0.27734017372131348
vt 0 0.27734017372131348
vt 0.19454887509346008 0.18805447220802307
vt 0.10526315867900848 0.18805447220802307
vt 0.19454887509346008 0.31305447220802307
vt 0.10526315867900848 0.31305447220802307
vt 0.18562030792236328 0.31305447220802307
vt 0.11419173330068588 0.31305447220802307
vt 0.25 0.37610894441604614
vt 0.25 0.41182324290275574
vt 0.375 0.37610894441604614
vt 0.375 0.41182324290275574
vt 0.21334587037563324 0
vt 0.17763157188892365 0
vt 0.21334587037563324 0.125
vt 0.17763157188892365 0.125
vt 0.41541352868080139 0.18805447220802307
vt 0.23684211075305939 0.18805447220802307
vt 0.41541352868080139 0.33373722434043884
vt 0.23684211075305939 0.33373722434043884
vt 0.39568275213241577 0.46831247210502625
vt 0.25 0.46831247210502625
vt 0.39568275213241577 0.59331244230270386
vt 0.25 0.59331244230270386
vt 0 0.37610894441604614
vt 0 0.55468034744262695
vt 0.12353515625 0.37610894441604614
vt 0.12353515625 0.55468034744262695
vt 0.125 0.66424494981765747
vt 0.125 0.84281635284423828
vt 0.24853515625 0.66424494981765747
vt 0.24853515625 0.84281635284423828
vt 0.41541352868080139 0
vt 0.23684211075305939 0
vt 0.41541352868080139 0.14568275213241577
vt 0.23684211075305939 0.14568275213241577
vt 0.125 0.52017694711685181
vt 0.125 0.6094626784324646
vt 0.24853515625 0.52017694711685181
vt 0.24853515625 0.6094626784324646
vt 0.125 0.60053408145904541
vt 0.1541353315114975 0
vt 0.11842105537652969 0
vt 0.1541353315114975 0.125
vt 0.11842105537652969 0.125
vt 0.088345862925052643 0.18805447220802307
vt 0.052631579339504242 0.18805447220802307
vt 0.088345862925052643 0.31305447220802307
vt 0.052631579339504242 0.31305447220802307
vt 0.25 0.422210693359375
vt 0.25 0.45792499184608459
vt 0.49853515625 0.422210693359375
vt 0.49853515625 0.45792499184608459
vt 0.3387625515460968 0.422210693359375
vt 0.4097726047039032 0.422210693359375
vt 0.125 0.37610894441604614
vt 0.125 0.46539464592933655
vt 0.24853515625 0.37610894441604614
vt 0.24853515625 0.46539464592933655
vt 0.125 0.38503751158714294
vt 0.75 0
vt 0.75 0.4747256338596344
vt 0.99853515625 0
vt 0.99853515625 0.4747256338596344
vt 0.82988631725311279 0
vt 0.91864883899688721 0
vt 0.5 0
vt 0.5 0.4747256338596344
vt 0.74853515625 0
vt 0.74853515625 0.4747256338596344
vt 0.624267578125 0
vt 0.49853515625 0.62966865301132202
vt 0.25 0.62966865301132202
vt 0.49853515625 0.87966865301132202
vt 0.25 0.87966865301132202
vt 0.75 0.4761904776096344
vt 0.75 0.9509161114692688
vt 0.99853515625 0.4761904776096344
vt 0.99853515625 0.9509161114692688
vt 0.874267578125 0.9509161114692688
vt 0.5 0.4761904776096344
vt 0.5 0.9509161114692688
vt 0.74853515625 0.4761904776096344
vt 0.74853515625 0.9509161114692688
vt 0 0.80831295251846313
vt 0 0.88867008686065674
vt 0.12353515625 0.80831295251846313
vt 0.12353515625 0.88867008686065674
vt 0.094924814999103546 0
vt 0.059210527688264847 0
vt 0.094924814999103546 0.0803571417927742
vt 0.059210527688264847 0.0803571417927742
vt 0.035714287310838699 0
vt 0 0
vt 0.035714287310838699 0.0803571417927742
vt 0 0.0803571417927742
vt 0 0.66424494981765747
vt 0 0.74460208415985107
vt 0.12353515625 0.66424494981765747
vt 0.12353515625 0.74460208415985107
vn 0 -1 0
vn 0 -1 0
vn 0 -1 0
vn 0 -1 0
vn -1 0 0
vn -1 0 0
vn -1 0 0
vn -1 0 0
vn -1 0 0
vn -1 0 0
vn 0 0 -1
vn 0 0 -1
vn 0 0 -1
vn 0 0 -1
vn 0 0 1
vn 0 0 1
vn 0 0 1
vn 0 0 1
vn 0 -1 0
vn 0 -1 0
vn 0 -1 0
vn 0 -1 0
vn -1 0 0
vn -1 0 0
vn -1 0 0
vn -1 0 0
vn 0.20791168510913849 0 0.97814762592315674
vn 0.20791168510913849 0 0.97814762592315674
vn 0.20791168510913849 0 0.97814762592315674
vn 0.20791168510913849 0 0.97814762592315674
vn 0.20791168510913849 0 -0.97814762592315674
vn 0.20791168510913849 0 -0.97814762592315674
vn 0.20791168510913849 0 -0.97814762592315674
vn 0.20791168510913849 0 -0.97814762592315674
vn 0 1 0
vn 0 1 0
vn 0 1 0
vn 0 1 0
vn -1 0 0
vn -1 0 0
vn -1 0 0
vn -1 0 0
vn -1 0 0
vn 0 0 -1
vn 0 0 -1
vn 0 0 -1
vn 0 0 -1
vn 0 0 1
vn 0 0 1
vn 0 0 1
vn 0 0 1
vn 0 1 0
vn 0 1 0
vn 0 1 0
vn 0 1 0
vn 0 1 0
vn 0 1 0
vn -1 0 0
vn -1 0 0
vn -1 0 0
vn -1 0 0
vn -1 0 0
vn 0 -1 0
vn 0 -1 0
vn 0 -1 0
vn 0 -1 0
vn 0 -1 0
vn 0 -1 0
vn 0 0 -1
vn 0 0 -1
vn 0 0 -1
vn 0 0 -1
vn 0 0 -1
vn 1 0 0
vn 1 0 0
vn 1 0 0
vn 1 0 0
vn 0 0 1
vn 0 0 1
vn 0 0 1
vn 0 0 1
vn 0 0 1
vn 0 1 0
vn 0 1 0
vn 0 1 0
vn 0 1 0
vn -1 0 0
vn -1 0 0
vn -1 0 0
vn -1 0 0
vn 0 -1 0
vn 0 -1 0
vn 0 -1 0
vn 0 -1 0
vn 0 -1 0
vn 0 -1 0
vn 0 -1 0
vn 0 -1 0
vn -1 0 0
vn -1 0 0
vn -1 0 0
vn -1 0 0
f 2/2/2 1/1/1 3/3/3 4/4/4
f 6/6/6 5/5/5 9/9/9 10/10/10
f 7/7/7 9/9/9 5/5/5
f 6/6/6 10/10/10 8/8/8
f 12/12/12 11/11/11 13/13/13 14/14/14
f 16/16/16 15/15/15 17/17/17 18/18/18
f 20/20/20 22/22/22 21/21/21 19/19/19
f 24/24/24 26/26/26 25/25/25 23/23/23
f 28/28/28 30/30/30 29/29/29 27/27/27
f 32/32/32 34/34/34 33/33/33 31/31/31
f 36/36/36 35/35/35 37/37/37 38/38/38
f 43/43/43 39/39/39 41/41/41 42/42/42
f 40/40/40 43/43/43 42/42/42
f 45/45/45 44/44/44 46/46/46 47/47/47
f 49/49/49 48/48/48 50/50/50 51/51/51
f 53/53/53 56/56/56 52/52/52
f 57/57/57 56/56/56 53/53/53
f 55/55/55 54/54/54 57/57/57
f 53/53/53 55/55/55 57/57/57
f 60/60/60 62/62/62 58/58/58
f 59/59/59 62/62/62 60/60/60 61/61/61
f 64/64/64 63/63/63 67/67/67
f 68/68/68 64/64/64 67/67/67
f 66/66/66 68/68/68 65/65/65
f 64/64/64 68/68/68 66/66/66
f 73/73/73 70/70/70 69/69/69
f 72/72/72 73/73/73 71/71/71
f 70/70/70 73/73/73 72/72/72
f 75/75/75 74/74/74 76/76/76 77/77/77
f 82/82/82 79/79/79 78/78/78
f 81/81/81 82/82/82 80/80/80
f 78/78/78 80/80/80 82/82/82
f 84/84/84 86/86/86 85/85/85 83/83/83
f 88/88/88 87/87/87 89/89/89 90/90/90
f 92/92/92 91/91/91 93/93/93 94/94/94
f 96/96/96 95/95/95 97/97/97 98/98/98
f 100/100/100 99/99/99 101/101/101 102/102/102
o object_2
usemtl diffuse_0
v 0 0 0
v -200 0 0
v 0 0 -105
v -200 0 -105
v -15 0 -71.25
v 0 0 -71.25
v 0 0 -33.75
v -15 0 -33.75
v -200 0 -105
v -200 0 0
v -200 105 -105
v -200 105 0
v -88.361068725585938 52.5 -83.093376159667969
v -15 52.5 -67.5
v -88.361068725585938 52.5 -21.906623840332031
v -15 52.5 -37.5
v -88.361068725585938 52.5 -83.093376159667969
v -88.361068725585938 52.5 -21.906623840332031
v -88.361068725585938 105 -83.093376159667969
v -88.361068725585938 105 -21.906623840332031
v -88.361068725585938 52.5 -21.906623840332031
v -15 52.5 -37.5
v -88.361068725585938 105 -21.906623840332031
v -15 105 -37.5
v -15 52.5 -67.5
v -88.361068725585938 52.5 -83.093376159667969
v -15 105 -67.5
v -88.361068725585938 105 -83.093376159667969
v -15 52.5 0
v -15 52.5 -37.5
v -15 105 0
v -15 105 -37.5
v -15 52.5 -33.75
v -15 52.5 -67.5
v -15 52.5 -105
v -15 105 -67.5
v -15 105 -105
v -15 52.5 -71.25
v 0 0 0
v 0 0 -33.75
v 0 52.5 0
v 0 52.5 -33.75
v 0 0 -105
v -200 0 -105
v -200 105 -105
v -15 52.5 -105
v -15 105 -105
v 0 52.5 -105
v -200 0 0
v 0 0 0
v -200 105 0
v -15 105 0
v -15 52.5 0
v 0 52.5 0
v -15 105 0
v -200 105 0
v -200 105 -105
v -88.361068725585938 105 -21.906623840332031
v -88.361068725585938 105 -83.093376159667969
v -15 105 -37.5
v -15 105 -67.5
v -15 105 -105
v -15 0 -33.75
v -15 0 -71.25
v -15 52.5 -33.75
v -15 52.5 -71.25
v -15 52.5 -37.5
v -15 52.5 -67.5
v -15 0 -71.25
v 0 0 -71.25
v -15 52.5 -71.25
v 0 52.5 -71.25
v 0 0 -33.75
v -15 0 -33.75
v 0 52.5 -33.75
v -15 52.5 -33.75
v -15 52.5 0
v 0 52.5 0
v -15 52.5 -33.75
v 0 52.5 -33.75
v -15 52.5 -71.25
v 0 52.5 -71.25
v -15 52.5 -105
v 0 52.5 -105
v 0 0 -71.25
v 0 0 -105
v 0 52.5 -71.25
v 0 52.5 -105
vt 0 0.43956044316291809
vt 0 0.87912088632583618
vt 0.22930438816547394 0.43956044316291809
vt 0.22930438816547394 0.87912088632583618
vt 0.15559940040111542 0.47252747416496277
vt 0.15559940040111542 0.43956044316291809
vt 0.073704980313777924 0.43956044316291809
vt 0.073704980313777924 0.47252747416496277
vt 0.46153846383094788 0.43956044316291809
vt 0.23076923191547394 0.43956044316291809
vt 0.46153846383094788 0.66886484622955322
vt 0.23076923191547394 0.66886484622955322
vt 0.96703296899795532 0.41612318158149719
vt 0.80219781398773193 0.41612318158149719
vt 0.96703296899795532 0.55059957504272461
vt 0.80219781398773193 0.55059957504272461
vt 0.88461536169052124 0.65861105918884277
vt 0.88461536169052124 0.7930874228477478
vt 0.99853515625 0.65861105918884277
vt 0.99853515625 0.7930874228477478
vt 0.95151907205581665 0
vt 0.78668391704559326 0
vt 0.95151907205581665 0.11538461595773697
vt 0.78668391704559326 0.11538461595773697
vt 0.80073297023773193 0.65861105918884277
vt 0.63736265897750854 0.65861105918884277
vt 0.80073297023773193 0.77399563789367676
vt 0.63736265897750854 0.77399563789367676
vt 0.88315051794052124 0.65861105918884277
vt 0.80219781398773193 0.65861105918884277
vt 0.88315051794052124 0.77399563789367676
vt 0.80219781398773193 0.77399563789367676
vt 0.81029307842254639 0.65861105918884277
vt 0.97575950622558594 0.2080615907907486
vt 0.89334195852279663 0.2080615907907486
vt 0.97575950622558594 0.32344621419906616
vt 0.89334195852279663 0.32344621419906616
vt 0.96751779317855835 0.2080615907907486
vt 0.79395604133605957 0.41612318158149719
vt 0.71978020668029785 0.41612318158149719
vt 0.79395604133605957 0.53150779008865356
vt 0.71978020668029785 0.53150779008865356
vt 0.31868132948875427 0
vt 0.31868132948875427 0.43809559941291809
vt 0.5494505763053894 0.43809559941291809
vt 0.43406593799591064 0.032857172191143036
vt 0.5494505763053894 0.032857172191143036
vt 0.43406593799591064 0
vt 0 0
vt 0 0.43809559941291809
vt 0.23076923191547394 0
vt 0.23076923191547394 0.40523841977119446
vt 0.11538461595773697 0.40523841977119446
vt 0.11538461595773697 0.43809559941291809
vt 0.63589781522750854 0.67032968997955322
vt 0.23076923191547394 0.67032968997955322
vt 0.23076923191547394 0.89963406324386597
vt 0.47524553537368774 0.71817046403884888
vt 0.47524553537368774 0.85179322957992554
vt 0.63589781522750854 0.75222408771514893
vt 0.63589781522750854 0.81773960590362549
vt 0.63589781522750854 0.89963406324386597
vt 0.86910146474838257 0.2080615907907486
vt 0.78668391704559326 0.2080615907907486
vt 0.86910146474838257 0.32344621419906616
vt 0.78668391704559326 0.32344621419906616
vt 0.86085975170135498 0.32344621419906616
vt 0.79492568969726563 0.32344621419906616
vt 0.63736265897750854 0.3120923638343811
vt 0.63736265897750854 0.34505942463874817
vt 0.75274723768234253 0.3120923638343811
vt 0.75274723768234253 0.34505942463874817
vt 0.63736265897750854 0.2080615907907486
vt 0.63736265897750854 0.24102862179279327
vt 0.75274723768234253 0.2080615907907486
vt 0.75274723768234253 0.24102862179279327
vt 0.63736265897750854 0.1040307953953743
vt 0.63736265897750854 0.13699781894683838
vt 0.71153843402862549 0.1040307953953743
vt 0.71153843402862549 0.13699781894683838
vt 0.63736265897750854 0
vt 0.63736265897750854 0.032967034727334976
vt 0.71153843402862549 0
vt 0.71153843402862549 0.032967034727334976
vt 0.71153843402862549 0.41612318158149719
vt 0.63736265897750854 0.41612318158149719
vt 0.71153843402862549 0.53150779008865356
vt 0.63736265897750854 0.53150779008865356
vn 0 -1 0
vn 0 -1 0
vn 0 -1 0
vn 0 -1 0
vn 0 -1 0
vn 0 -1 0
vn 0 -1 0
vn 0 -1 0
vn -1 0 0
vn -1 0 0
vn -1 0 0
vn -1 0 0
vn 0 1 0
vn 0 1 0
vn 0 1 0
vn 0 1 0
vn 1 0 0
vn 1 0 0
vn 1 0 0
vn 1 0 0
vn -0.20791168510913849 0 -0.97814762592315674
vn -0.20791168510913849 0 -0.97814762592315674
vn -0.20791168510913849 0 -0.97814762592315674
vn -0.20791168510913849 0 -0.97814762592315674
vn -0.20791168510913849 0 0.97814762592315674
vn -0.20791168510913849 0 0.97814762592315674
vn -0.20791168510913849 0 0.97814762592315674
vn -0.20791168510913849 0 0.97814762592315674
vn 1 0 0
vn 1 0 0
vn 1 0 0
vn 1 0 0
vn 1 0 0
vn 1 0 0
vn 1 0 0
vn 1 0 0
vn 1 0 0
vn 1 0 0
vn 1 0 0
vn 1 0 0
vn 1 0 0
vn 1 0 0
vn 0 0 -1
vn 0 0 -1
vn 0 0 -1
vn 0 0 -1
vn 0 0 -1
vn 0 0 -1
vn 0 0 1
vn 0 0 1
vn 0 0 1
vn 0 0 1
vn 0 0 1
vn 0 0 1
vn 0 1 0
vn 0 1 0
vn 0 1 0
vn 0 1 0
vn 0 1 0
vn 0 1 0
vn 0 1 0
vn 0 1 0
vn 1 0 0
vn 1 0 0
vn 1 0 0
vn 1 0 0
vn 1 0 0
vn 1 0 0
vn 0 0 1
vn 0 0 1
vn 0 0 1
vn 0 0 1
vn 0 0 -1
vn 0 0 -1
vn 0 0 -1
vn 0 0 -1
vn 0 1 0
vn 0 1 0
vn 0 1 0
vn 0 1 0
vn 0 1 0
vn 0 1 0
vn 0 1 0
vn 0 1 0
vn 1 0 0
vn 1 0 0
vn 1 0 0
vn 1 0 0
f 110/110/110 109/109/109 103/103/103
f 107/107/107 110/110/110 104/104/104
f 103/103/103 104/104/104 110/110/110
f 107/107/107 105/105/105 108/108/108
f 104/104/104 106/106/106 107/107/107
f 105/105/105 107/107/107 106/106/106
f 112/112/112 114/114/114 113/113/113 111/111/111
f 116/116/116 115/115/115 117/117/117 118/118/118
f 120/120/120 119/119/119 121/121/121 122/122/122
f 124/124/124 123/123/123 125/125/125 126/126/126
f 128/128/128 127/127/127 129/129/129 130/130/130
f 135/135/135 134/134/134 133/133/133 131/131/131
f 132/132/132 134/134/134 135/135/135
f 138/138/138 136/136/136 140/140/140
f 137/137/137 139/139/139 138/138/138 140/140/140
f 142/142/142 144/144/144 143/143/143 141/141/141
f 148/148/148 145/145/145 146/146/146
f 150/150/150 145/145/145 148/148/148
f 147/147/147 149/149/149 148/148/148
f 146/146/146 147/147/147 148/148/148
f 152/152/152 155/155/155 151/151/151
f 153/153/153 151/151/151 155/155/155
f 156/156/156 155/155/155 152/152/152
f 153/153/153 155/155/155 154/154/154
f 160/160/160 157/157/157 162/162/162
f 160/160/160 161/161/161 159/159/159 158/158/158
f 157/157/157 160/160/160 158/158/158
f 161/161/161 163/163/163 164/164/164
f 164/164/164 159/159/159 161/161/161
f 166/166/166 170/170/170 169/169/169 165/165/165
f 167/167/167 165/165/165 169/169/169
f 166/166/166 168/168/168 170/170/170
f 172/172/172 174/174/174 173/173/173 171/171/171
f 176/176/176 178/178/178 177/177/177 175/175/175
f 180/180/180 182/182/182 181/181/181 179/179/179
f 184/184/184 186/186/186 185/185/185 183/183/183
f 188/188/188 190/190/190 189/189/189 187/187/187
