# Rhino

mtllib Gooseneck Splice 2.mtl
o object_1
usemtl diffuse_0
v -150 52.5 -37.5
v -76.4925537109375 52.5 -30.074441909790039
v -150 52.5 -67.5
v -76.4925537109375 52.5 -74.925559997558594
v -76.4925537109375 52.5 -67.5
v -76.4925537109375 52.5 -37.5
v -150 52.5 -37.5
v -150 52.5 -67.5
v -150 105 -37.5
v -150 105 -67.5
v -150 52.5 -67.5
v -76.4925537109375 52.5 -74.925559997558594
v -150 105 -67.5
v -76.4925537109375 105 -74.925559997558594
v -76.4925537109375 52.5 -74.925559997558594
v -76.4925537109375 52.5 -67.5
v -76.4925537109375 105 -74.925559997558594
v -76.4925537109375 105 -67.5
v -76.4925537109375 52.5 -30.074441909790039
v -150 52.5 -37.5
v -76.4925537109375 105 -30.074441909790039
v -150 105 -37.5
v -150 105 -37.5
v -76.4925537109375 105 -30.074441909790039
v -150 105 -67.5
v -76.4925537109375 105 -74.925559997558594
v -76.4925537109375 105 -67.5
v -76.4925537109375 105 -37.5
v -76.4925537109375 52.5 -30.074441909790039
v -76.4925537109375 105 -37.5
v -76.4925537109375 105 -30.074441909790039
v -76.4925537109375 52.5 -37.5
v -76.4925537109375 52.5 -37.5
v 0 52.5 -37.5
v 0 52.5 -67.5
v -76.4925537109375 52.5 -67.5
v -76.4925537109375 52.5 -67.5
v 0 52.5 -67.5
v 0 105 -67.5
v -76.4925537109375 105 -67.5
v 0 52.5 -37.5
v -76.4925537109375 52.5 -37.5
v 0 105 -37.5
v -76.4925537109375 105 -37.5
v -76.4925537109375 105 -37.5
v 0 105 -37.5
v 0 105 -67.5
v -76.4925537109375 105 -67.5
v 200 0 -105
v 200 0 0
v 200 105 -105
v 200 105 0
v 200 0 0
v 200 105 0
v 0 105 0
v 15 52.5 0
v 15 0 0
v 0 52.5 0
v 0 105 0
v 200 105 0
v 0 105 -105
v 200 105 -105
v 0 105 -37.5
v 0 105 -67.5
v 15 0 -105
v 15 0 0
v 15 52.5 -105
v 15 52.5 0
v 0 52.5 0
v 15 52.5 0
v 0 52.5 -105
v 15 52.5 -105
v 0 52.5 -37.5
v 0 52.5 -67.5
v 15 0 0
v 200 0 0
v 15 0 -105
v 200 0 -105
v 200 0 -105
v 0 105 -105
v 200 105 -105
v 15 0 -105
v 15 52.5 -105
v 0 52.5 -105
v 0 52.5 -67.5
v 0 52.5 -105
v 0 105 -67.5
v 0 105 -105
v 0 52.5 0
v 0 52.5 -37.5
v 0 105 0
v 0 105 -37.5
vt 0.37632793188095093 0.17930042743682861
vt 0.37632793188095093 0.35458594560623169
vt 0.48273813724517822 0.17930042743682861
vt 0.48273813724517822 0.35458594560623169
vt 0.46512085199356079 0.35458594560623169
vt 0.39394521713256836 0.35458594560623169
vt 0.31882551312446594 0.43162408471107483
vt 0.24911472201347351 0.43162408471107483
vt 0.31882551312446594 0.55618143081665039
vt 0.24911472201347351 0.55618143081665039
vt 0.12455736100673676 0.67835468053817749
vt 0.12455736100673676 0.85364019870758057
vt 0.24764987826347351 0.67835468053817749
vt 0.24764987826347351 0.85364019870758057
vt 0 0.45882648229598999
vt 0 0.47644379734992981
vt 0.12455736100673676 0.45882648229598999
vt 0.12455736100673676 0.47644379734992981
vt 0 0.67835468053817749
vt 0 0.85364019870758057
vt 0.12309251725673676 0.67835468053817749
vt 0.12309251725673676 0.85364019870758057
vt 0.25088527798652649 0.17930042743682861
vt 0.25088527798652649 0.35458594560623169
vt 0.35729551315307617 0.17930042743682861
vt 0.35729551315307617 0.35458594560623169
vt 0.33967819809913635 0.35458594560623169
vt 0.26850256323814392 0.35458594560623169
vt 0 0.44924139976501465
vt 0.12455736100673676 0.43162408471107483
vt 0.12455736100673676 0.44924139976501465
vt 0 0.43162408471107483
vt 0.50030571222305298 0.53408145904541016
vt 0.32029035687446594 0.53408145904541016
vt 0.32029035687446594 0.60525709390640259
vt 0.50030571222305298 0.60525709390640259
vt 0.37544265389442444 0.68776756525039673
vt 0.37544265389442444 0.86924773454666138
vt 0.5 0.86924773454666138
vt 0.5 0.68776756525039673
vt 0.24911472201347351 0.68776756525039673
vt 0.24911472201347351 0.86924773454666138
vt 0.37367206811904907 0.68776756525039673
vt 0.37367206811904907 0.86924773454666138
vt 0.50030571222305298 0.43162408471107483
vt 0.32029035687446594 0.43162408471107483
vt 0.32029035687446594 0.50279974937438965
vt 0.50030571222305298 0.50279974937438965
vt 0 0
vt 0 0.24911472201347351
vt 0.24911472201347351 0
vt 0.24911472201347351 0.24911472201347351
vt 0.75088530778884888 0
vt 0.99853515625 0
vt 0.99853515625 0.47303938865661621
vt 0.87471020221710205 0.43756142258644104
vt 0.75088530778884888 0.43756142258644104
vt 0.87471020221710205 0.47303938865661621
vt 0.50177055597305298 0
vt 0.50177055597305298 0.47303938865661621
vt 0.74942046403884888 0
vt 0.74942046403884888 0.47303938865661621
vt 0.59021693468093872 0
vt 0.66097402572631836 0
vt 0.5 0
vt 0.25088527798652649 0
vt 0.5 0.12455736100673676
vt 0.25088527798652649 0.12455736100673676
vt 0.24911472201347351 0.63653886318206787
vt 0.24911472201347351 0.6721266508102417
vt 0.49822944402694702 0.63653886318206787
vt 0.49822944402694702 0.6721266508102417
vt 0.33808425068855286 0.63653886318206787
vt 0.40925988554954529 0.63653886318206787
vt 0.50177055597305298 0.47450423240661621
vt 0.50177055597305298 0.91342061758041382
vt 0.74942046403884888 0.47450423240661621
vt 0.74942046403884888 0.91342061758041382
vt 0.75088530778884888 0.94754362106323242
vt 0.99853515625 0.47450423240661621
vt 0.99853515625 0.94754362106323242
vt 0.75088530778884888 0.50998216867446899
vt 0.87471020221710205 0.50998216867446899
vt 0.87471020221710205 0.47450423240661621
vt 0.21352690458297729 0.48602890968322754
vt 0.12455736100673676 0.48602890968322754
vt 0.21352690458297729 0.61058622598648071
vt 0.12455736100673676 0.61058622598648071
vt 0.08896954357624054 0.48602890968322754
vt 0 0.48602890968322754
vt 0.08896954357624054 0.61058622598648071
vt 0 0.61058622598648071
vn 0 -1 0
vn 0 -1 0
vn 0 -1 0
vn 0 -1 0
vn 0 -1 0
vn 0 -1 0
vn -1 0 0
vn -1 0 0
vn -1 0 0
vn -1 0 0
vn -0.1005062535405159 0 -0.99493640661239624
vn -0.1005062535405159 0 -0.99493640661239624
vn -0.1005062535405159 0 -0.99493640661239624
vn -0.1005062535405159 0 -0.99493640661239624
vn 1 0 0
vn 1 0 0
vn 1 0 0
vn 1 0 0
vn -0.1005062535405159 0 0.99493640661239624
vn -0.1005062535405159 0 0.99493640661239624
vn -0.1005062535405159 0 0.99493640661239624
vn -0.1005062535405159 0 0.99493640661239624
vn 0 1 0
vn 0 1 0
vn 0 1 0
vn 0 1 0
vn 0 1 0
vn 0 1 0
vn 1 0 0
vn 1 0 0
vn 1 0 0
vn 1 0 0
vn 0 -1 0
vn 0 -1 0
vn 0 -1 0
vn 0 -1 0
vn 0 0 -1
vn 0 0 -1
vn 0 0 -1
vn 0 0 -1
vn 0 0 1
vn 0 0 1
vn 0 0 1
vn 0 0 1
vn 0 1 0
vn 0 1 0
vn 0 1 0
vn 0 1 0
vn 1 0 0
vn 1 0 0
vn 1 0 0
vn 1 0 0
vn 0 0 1
vn 0 0 1
vn 0 0 1
vn 0 0 1
vn 0 0 1
vn 0 0 1
vn 0 1 0
vn 0 1 0
vn 0 1 0
vn 0 1 0
vn 0 1 0
vn 0 1 0
vn -1 0 0
vn -1 0 0
vn -1 0 0
vn -1 0 0
vn 0 -1 0
vn 0 -1 0
vn 0 -1 0
vn 0 -1 0
vn 0 -1 0
vn 0 -1 0
vn 0 -1 0
vn 0 -1 0
vn 0 -1 0
vn 0 -1 0
vn 0 0 -1
vn 0 0 -1
vn 0 0 -1
vn 0 0 -1
vn 0 0 -1
vn 0 0 -1
vn -1 0 0
vn -1 0 0
vn -1 0 0
vn -1 0 0
vn -1 0 0
vn -1 0 0
vn -1 0 0
vn -1 0 0
f 2/2/2 1/1/1 6/6/6
f 1/1/1 3/3/3 5/5/5 6/6/6
f 4/4/4 5/5/5 3/3/3
f 8/8/8 7/7/7 9/9/9 10/10/10
f 12/12/12 11/11/11 13/13/13 14/14/14
f 16/16/16 15/15/15 17/17/17 18/18/18
f 20/20/20 19/19/19 21/21/21 22/22/22
f 24/24/24 28/28/28 23/23/23
f 23/23/23 28/28/28 27/27/27 25/25/25
f 26/26/26 25/25/25 27/27/27
f 29/29/29 32/32/32 30/30/30 31/31/31
f 34/34/34 33/33/33 36/36/36 35/35/35
f 38/38/38 37/37/37 40/40/40 39/39/39
f 42/42/42 41/41/41 43/43/43 44/44/44
f 46/46/46 47/47/47 48/48/48 45/45/45
f 50/50/50 49/49/49 51/51/51 52/52/52
f 57/57/57 53/53/53 56/56/56
f 54/54/54 56/56/56 53/53/53
f 58/58/58 56/56/56 55/55/55
f 54/54/54 55/55/55 56/56/56
f 60/60/60 63/63/63 59/59/59
f 64/64/64 63/63/63 60/60/60
f 62/62/62 61/61/61 64/64/64
f 60/60/60 62/62/62 64/64/64
f 66/66/66 68/68/68 67/67/67 65/65/65
f 70/70/70 69/69/69 73/73/73
f 74/74/74 70/70/70 73/73/73
f 72/72/72 74/74/74 71/71/71
f 70/70/70 74/74/74 72/72/72
f 76/76/76 75/75/75 77/77/77 78/78/78
f 83/83/83 79/79/79 82/82/82
f 81/81/81 83/83/83 80/80/80
f 84/84/84 80/80/80 83/83/83
f 79/79/79 83/83/83 81/81/81
f 86/86/86 85/85/85 87/87/87 88/88/88
f 90/90/90 89/89/89 91/91/91 92/92/92
o object_2
usemtl diffuse_0
v 0 0 0
v 15 0 0
v 0 0 -105
v 15 0 -105
v 0 0 -105
v 15 0 -105
v 0 52.5 -105
v 15 52.5 -105
v 15 0 -105
v 15 0 0
v 15 52.5 -105
v 15 52.5 0
v 15 0 0
v 0 0 0
v 15 52.5 0
v 0 52.5 0
v 0 52.5 0
v 15 52.5 0
v 0 52.5 -105
v 15 52.5 -105
v 0 52.5 -37.5
v 0 52.5 -67.5
v 0 0 0
v -200 0 0
v 0 0 -105
v -200 0 -105
v 0 0 -105
v -200 0 -105
v 0 105 -105
v -200 105 -105
v 0 52.5 -105
v -200 0 -105
v -200 0 0
v -200 105 -105
v -200 105 0
v -200 0 0
v 0 0 0
v -200 105 0
v 0 105 0
v 0 52.5 0
v 0 105 0
v -200 105 0
v 0 105 -105
v -200 105 -105
v -76.4925537109375 105 -30.074441909790039
v -150 105 -37.5
v -150 105 -67.5
v -76.4925537109375 105 -74.925559997558594
v -76.4925537109375 105 -67.5
v 0 105 -67.5
v 0 105 -37.5
v -76.4925537109375 105 -37.5
v 0 52.5 0
v 0 105 0
v 0 105 -37.5
v 0 52.5 -37.5
v -150 52.5 -37.5
v -76.4925537109375 52.5 -30.074441909790039
v -150 52.5 -67.5
v -76.4925537109375 52.5 -74.925559997558594
v -76.4925537109375 52.5 -67.5
v -76.4925537109375 52.5 -37.5
v -150 52.5 -37.5
v -150 52.5 -67.5
v -150 105 -37.5
v -150 105 -67.5
v -150 52.5 -67.5
v -76.4925537109375 52.5 -74.925559997558594
v -150 105 -67.5
v -76.4925537109375 105 -74.925559997558594
v -76.4925537109375 52.5 -74.925559997558594
v -76.4925537109375 52.5 -67.5
v -76.4925537109375 105 -74.925559997558594
v -76.4925537109375 105 -67.5
v -76.4925537109375 52.5 -30.074441909790039
v -150 52.5 -37.5
v -76.4925537109375 105 -30.074441909790039
v -150 105 -37.5
v -76.4925537109375 52.5 -30.074441909790039
v -76.4925537109375 105 -37.5
v -76.4925537109375 105 -30.074441909790039
v -76.4925537109375 52.5 -37.5
v -76.4925537109375 52.5 -37.5
v 0 52.5 -37.5
v 0 52.5 -67.5
v -76.4925537109375 52.5 -67.5
v -76.4925537109375 52.5 -67.5
v 0 52.5 -67.5
v 0 105 -67.5
v -76.4925537109375 105 -67.5
v 0 52.5 -37.5
v -76.4925537109375 52.5 -37.5
v 0 105 -37.5
v -76.4925537109375 105 -37.5
v 0 52.5 -67.5
v 0 52.5 -105
v 0 105 -67.5
v 0 105 -105
vt 0.14642442762851715 0
vt 0.11082497984170914 0
vt 0.14642442762851715 0.25
vt 0.11082497984170914 0.25
vt 0.10936013609170914 0
vt 0.073760688304901123 0
vt 0.10936013609170914 0.125
vt 0.073760688304901123 0.125
vt 0.49054998159408569 0.2021484375
vt 0.24054998159408569 0.2021484375
vt 0.49054998159408569 0.3271484375
vt 0.24054998159408569 0.3271484375
vt 0.072295844554901123 0
vt 0.036696400493383408 0
vt 0.072295844554901123 0.125
vt 0.036696400493383408 0.125
vt 0.75 0.6726190447807312
vt 0.75 0.70686846971511841
vt 0.99853515625 0.6726190447807312
vt 0.99853515625 0.70686846971511841
vt 0.83876258134841919 0.6726190447807312
vt 0.90977257490158081 0.6726190447807312
vt 0.5 0.4761904776096344
vt 0.5 0.9523809552192688
vt 0.74853515625 0.4761904776096344
vt 0.74853515625 0.9523809552192688
vt 0.25 0.359375
vt 0.25 0.83556544780731201
vt 0.49853515625 0.359375
vt 0.49853515625 0.83556544780731201
vt 0.374267578125 0.359375
vt 0.99853515625 0.70833331346511841
vt 0.75 0.70833331346511841
vt 0.99853515625 0.95686846971511841
vt 0.75 0.95686846971511841
vt 0 0.359375
vt 0 0.83556544780731201
vt 0.24853515625 0.359375
vt 0.24853515625 0.83556544780731201
vt 0.124267578125 0.83556544780731201
vt 0.75 0
vt 0.75 0.4747256338596344
vt 0.99853515625 0
vt 0.99853515625 0.4747256338596344
vt 0.82118624448776245 0.18156488239765167
vt 0.83876258134841919 0.3560442328453064
vt 0.90977257490158081 0.3560442328453064
vt 0.92734891176223755 0.18156488239765167
vt 0.90977257490158081 0.18156488239765167
vt 0.90977257490158081 0
vt 0.83876258134841919 0
vt 0.83876258134841919 0.18156488239765167
vt 0.24054998159408569 0
vt 0.36554998159408569 0
vt 0.36554998159408569 0.089285716414451599
vt 0.24054998159408569 0.089285716414451599
vt 0.5 0
vt 0.5 0.17590844631195068
vt 0.60678839683532715 0
vt 0.60678839683532715 0.17590844631195068
vt 0.58910846710205078 0.17590844631195068
vt 0.51767987012863159 0.17590844631195068
vt 0.75 0.60119044780731201
vt 0.75 0.6711542010307312
vt 0.875 0.60119044780731201
vt 0.875 0.6711542010307312
vt 0.5 0.23396109044551849
vt 0.5 0.40986955165863037
vt 0.62353515625 0.23396109044551849
vt 0.62353515625 0.40986955165863037
vt 0.035231556743383408 0
vt 0.018348200246691704 0
vt 0.035231556743383408 0.125
vt 0.018348200246691704 0.125
vt 0.61517876386642456 0
vt 0.61517876386642456 0.17590844631195068
vt 0.74017876386642456 0
vt 0.74017876386642456 0.17590844631195068
vt 0 0
vt 0.016883356496691704 0.125
vt 0 0.125
vt 0.016883356496691704 0
vt 0.42267510294914246 0.1123046875
vt 0.24054998159408569 0.1123046875
vt 0.24054998159408569 0.1837332546710968
vt 0.42267510294914246 0.1837332546710968
vt 0.93212515115737915 0.4761904776096344
vt 0.75 0.4761904776096344
vt 0.75 0.59972560405731201
vt 0.93212515115737915 0.59972560405731201
vt 0.625 0.23396109044551849
vt 0.625 0.41608622670173645
vt 0.74853515625 0.23396109044551849
vt 0.74853515625 0.41608622670173645
vt 0.23717497289180756 0
vt 0.14788927137851715 0
vt 0.23717497289180756 0.125
vt 0.14788927137851715 0.125
vn 0 -1 0
vn 0 -1 0
vn 0 -1 0
vn 0 -1 0
vn 0 0 -1
vn 0 0 -1
vn 0 0 -1
vn 0 0 -1
vn 1 0 0
vn 1 0 0
vn 1 0 0
vn 1 0 0
vn 0 0 1
vn 0 0 1
vn 0 0 1
vn 0 0 1
vn 0 1 0
vn 0 1 0
vn 0 1 0
vn 0 1 0
vn 0 1 0
vn 0 1 0
vn 0 -1 0
vn 0 -1 0
vn 0 -1 0
vn 0 -1 0
vn 0 0 -1
vn 0 0 -1
vn 0 0 -1
vn 0 0 -1
vn 0 0 -1
vn -1 0 0
vn -1 0 0
vn -1 0 0
vn -1 0 0
vn 0 0 1
vn 0 0 1
vn 0 0 1
vn 0 0 1
vn 0 0 1
vn 0 1 0
vn 0 1 0
vn 0 1 0
vn 0 1 0
vn 0 1 0
vn 0 1 0
vn 0 1 0
vn 0 1 0
vn 0 1 0
vn 0 1 0
vn 0 1 0
vn 0 1 0
vn 1 0 0
vn 1 0 0
vn 1 0 0
vn 1 0 0
vn 0 1 0
vn 0 1 0
vn 0 1 0
vn 0 1 0
vn 0 1 0
vn 0 1 0
vn 1 0 0
vn 1 0 0
vn 1 0 0
vn 1 0 0
vn 0.1005062535405159 0 0.99493640661239624
vn 0.1005062535405159 0 0.99493640661239624
vn 0.1005062535405159 0 0.99493640661239624
vn 0.1005062535405159 0 0.99493640661239624
vn -1 0 0
vn -1 0 0
vn -1 0 0
vn -1 0 0
vn 0.1005062535405159 0 -0.99493640661239624
vn 0.1005062535405159 0 -0.99493640661239624
vn 0.1005062535405159 0 -0.99493640661239624
vn 0.1005062535405159 0 -0.99493640661239624
vn -1 0 0
vn -1 0 0
vn -1 0 0
vn -1 0 0
vn 0 1 0
vn 0 1 0
vn 0 1 0
vn 0 1 0
vn 0 0 1
vn 0 0 1
vn 0 0 1
vn 0 0 1
vn 0 0 -1
vn 0 0 -1
vn 0 0 -1
vn 0 0 -1
vn 1 0 0
vn 1 0 0
vn 1 0 0
vn 1 0 0
f 94/94/94 93/93/93 95/95/95 96/96/96
f 98/98/98 97/97/97 99/99/99 100/100/100
f 102/102/102 101/101/101 103/103/103 104/104/104
f 106/106/106 105/105/105 107/107/107 108/108/108
f 110/110/110 113/113/113 109/109/109
f 114/114/114 113/113/113 110/110/110
f 112/112/112 111/111/111 114/114/114
f 110/110/110 112/112/112 114/114/114
f 116/116/116 118/118/118 117/117/117 115/115/115
f 123/123/123 119/119/119 120/120/120
f 122/122/122 121/121/121 123/123/123
f 120/120/120 122/122/122 123/123/123
f 125/125/125 127/127/127 126/126/126 124/124/124
f 132/132/132 128/128/128 129/129/129
f 131/131/131 130/130/130 132/132/132
f 128/128/128 132/132/132 130/130/130
f 137/137/137 133/133/133 143/143/143
f 144/144/144 137/137/137 143/143/143
f 134/134/134 133/133/133 137/137/137
f 134/134/134 137/137/137 138/138/138
f 139/139/139 134/134/134 138/138/138
f 140/140/140 141/141/141 142/142/142
f 135/135/135 140/140/140 142/142/142
f 136/136/136 139/139/139 140/140/140
f 135/135/135 136/136/136 140/140/140
f 134/134/134 139/139/139 136/136/136
f 148/148/148 147/147/147 146/146/146 145/145/145
f 150/150/150 154/154/154 149/149/149
f 149/149/149 154/154/154 153/153/153 151/151/151
f 152/152/152 151/151/151 153/153/153
f 156/156/156 158/158/158 157/157/157 155/155/155
f 160/160/160 162/162/162 161/161/161 159/159/159
f 164/164/164 166/166/166 165/165/165 163/163/163
f 168/168/168 170/170/170 169/169/169 167/167/167
f 171/171/171 173/173/173 172/172/172 174/174/174
f 176/176/176 177/177/177 178/178/178 175/175/175
f 180/180/180 181/181/181 182/182/182 179/179/179
f 184/184/184 186/186/186 185/185/185 183/183/183
f 188/188/188 190/190/190 189/189/189 187/187/187
