# Rhino

mtllib Dovetailed Joint (T Shape).mtl
o object_1
usemtl diffuse_0
v -88.361068725585938 52.5 -83.093376159667969
v -15 52.5 -67.5
v -88.361068725585938 52.5 -21.906623840332031
v -15 52.5 -37.5
v -88.361068725585938 52.5 -83.093376159667969
v -88.361068725585938 52.5 -21.906623840332031
v -88.361068725585938 105 -83.093376159667969
v -88.361068725585938 105 -21.906623840332031
v -88.361068725585938 52.5 -21.906623840332031
v -15 52.5 -37.5
v -88.361068725585938 105 -21.906623840332031
v -15 105 -37.5
v -15 52.5 -67.5
v -88.361068725585938 52.5 -83.093376159667969
v -15 105 -67.5
v -88.361068725585938 105 -83.093376159667969
v -88.361068725585938 105 -83.093376159667969
v -15 105 -67.5
v -88.361068725585938 105 -21.906623840332031
v -15 105 -37.5
v -15 52.5 0
v 0 52.5 0
v -15 52.5 -105
v 0 52.5 -105
v -15 52.5 -37.5
v -15 52.5 -67.5
v -15 52.5 0
v -15 52.5 -37.5
v -15 105 0
v -15 105 -37.5
v -15 52.5 -105
v 0 52.5 -105
v -15 105 -105
v 0 105 -105
v 0 52.5 0
v -15 52.5 0
v 0 105 0
v -15 105 0
v -15 105 0
v 0 105 0
v -15 105 -105
v 0 105 -105
v -15 105 -37.5
v -15 105 -67.5
v -15 52.5 -67.5
v -15 52.5 -105
v -15 105 -67.5
v -15 105 -105
v 0 0 0
v 200 0 0
v 0 0 -105
v 200 0 -105
v 0 0 -105
v 200 0 -105
v 0 105 -105
v 200 105 -105
v 0 52.5 -105
v 200 0 -105
v 200 0 0
v 200 105 -105
v 200 105 0
v 200 0 0
v 0 0 0
v 200 105 0
v 0 105 0
v 0 52.5 0
v 0 105 0
v 200 105 0
v 0 105 -105
v 200 105 -105
v 0 0 0
v 0 0 -105
v 0 52.5 0
v 0 52.5 -105
vt 0.4016781747341156 0.16679954528808594
vt 0.2267252504825592 0.16679954528808594
vt 0.4016781747341156 0.30953022837638855
vt 0.2267252504825592 0.30953022837638855
vt 0 0.59667980670928955
vt 0 0.73941045999526978
vt 0.1210022047162056 0.59667980670928955
vt 0.1210022047162056 0.73941045999526978
vt 0.24493409693241119 0.3611980676651001
vt 0.24493409693241119 0.53615099191665649
vt 0.365936279296875 0.3611980676651001
vt 0.365936279296875 0.53615099191665649
vt 0.1224670484662056 0.59667980670928955
vt 0.1224670484662056 0.77163273096084595
vt 0.24346925318241119 0.59667980670928955
vt 0.24346925318241119 0.77163273096084595
vt 0.367401123046875 0.3611980676651001
vt 0.367401123046875 0.53615099191665649
vt 0.5086669921875 0.3611980676651001
vt 0.5086669921875 0.53615099191665649
vt 0.2050345242023468 0
vt 0.1700439453125 0
vt 0.2050345242023468 0.24493409693241119
vt 0.1700439453125 0.24493409693241119
vt 0.2050345242023468 0.087476462125778198
vt 0.2050345242023468 0.157457634806633
vt 0.45590499043464661 0
vt 0.36842852830886841 0
vt 0.45590499043464661 0.1224670484662056
vt 0.36842852830886841 0.1224670484662056
vt 0.0916718989610672 0
vt 0.056681312620639801 0
vt 0.0916718989610672 0.1224670484662056
vt 0.056681312620639801 0.1224670484662056
vt 0.0349905826151371 0
vt 0 0
vt 0.0349905826151371 0.1224670484662056
vt 0 0.1224670484662056
vt 0.1483532041311264 0
vt 0.1133626252412796 0
vt 0.1483532041311264 0.24493409693241119
vt 0.1133626252412796 0.24493409693241119
vt 0.1483532041311264 0.087476462125778198
vt 0.1483532041311264 0.157457634806633
vt 0.3142017126083374 0
vt 0.2267252504825592 0
vt 0.3142017126083374 0.1224670484662056
vt 0.2267252504825592 0.1224670484662056
vt 0.75506591796875 0
vt 0.75506591796875 0.4650762677192688
vt 0.99853515625 0
vt 0.99853515625 0.4650762677192688
vt 0.5101318359375 0
vt 0.5101318359375 0.4650762677192688
vt 0.75360107421875 0
vt 0.75360107421875 0.4650762677192688
vt 0.631866455078125 0
vt 0.48986819386482239 0.59948313236236572
vt 0.24493409693241119 0.59948313236236572
vt 0.48986819386482239 0.84441721439361572
vt 0.24493409693241119 0.84441721439361572
vt 0.75506591796875 0.4665411114692688
vt 0.75506591796875 0.9316173791885376
vt 0.99853515625 0.4665411114692688
vt 0.99853515625 0.9316173791885376
vt 0.876800537109375 0.9316173791885376
vt 0.5101318359375 0.4665411114692688
vt 0.5101318359375 0.9316173791885376
vt 0.75360107421875 0.4665411114692688
vt 0.75360107421875 0.9316173791885376
vt 0.24346925318241119 0.3611980676651001
vt 0 0.3611980676651001
vt 0.24346925318241119 0.48366513848304749
vt 0 0.48366513848304749
vn 0 -1 0
vn 0 -1 0
vn 0 -1 0
vn 0 -1 0
vn -1 0 0
vn -1 0 0
vn -1 0 0
vn -1 0 0
vn 0.20791168510913849 0 0.97814762592315674
vn 0.20791168510913849 0 0.97814762592315674
vn 0.20791168510913849 0 0.97814762592315674
vn 0.20791168510913849 0 0.97814762592315674
vn 0.20791168510913849 0 -0.97814762592315674
vn 0.20791168510913849 0 -0.97814762592315674
vn 0.20791168510913849 0 -0.97814762592315674
vn 0.20791168510913849 0 -0.97814762592315674
vn 0 1 0
vn 0 1 0
vn 0 1 0
vn 0 1 0
vn 0 -1 0
vn 0 -1 0
vn 0 -1 0
vn 0 -1 0
vn 0 -1 0
vn 0 -1 0
vn -1 0 0
vn -1 0 0
vn -1 0 0
vn -1 0 0
vn 0 0 -1
vn 0 0 -1
vn 0 0 -1
vn 0 0 -1
vn 0 0 1
vn 0 0 1
vn 0 0 1
vn 0 0 1
vn 0 1 0
vn 0 1 0
vn 0 1 0
vn 0 1 0
vn 0 1 0
vn 0 1 0
vn -1 0 0
vn -1 0 0
vn -1 0 0
vn -1 0 0
vn 0 -1 0
vn 0 -1 0
vn 0 -1 0
vn 0 -1 0
vn 0 0 -1
vn 0 0 -1
vn 0 0 -1
vn 0 0 -1
vn 0 0 -1
vn 1 0 0
vn 1 0 0
vn 1 0 0
vn 1 0 0
vn 0 0 1
vn 0 0 1
vn 0 0 1
vn 0 0 1
vn 0 0 1
vn 0 1 0
vn 0 1 0
vn 0 1 0
vn 0 1 0
vn -1 0 0
vn -1 0 0
vn -1 0 0
vn -1 0 0
f 2/2/2 4/4/4 3/3/3 1/1/1
f 6/6/6 8/8/8 7/7/7 5/5/5
f 10/10/10 12/12/12 11/11/11 9/9/9
f 14/14/14 16/16/16 15/15/15 13/13/13
f 18/18/18 17/17/17 19/19/19 20/20/20
f 22/22/22 21/21/21 25/25/25
f 26/26/26 22/22/22 25/25/25
f 24/24/24 26/26/26 23/23/23
f 22/22/22 26/26/26 24/24/24
f 28/28/28 27/27/27 29/29/29 30/30/30
f 32/32/32 31/31/31 33/33/33 34/34/34
f 36/36/36 35/35/35 37/37/37 38/38/38
f 40/40/40 43/43/43 39/39/39
f 44/44/44 43/43/43 40/40/40
f 42/42/42 41/41/41 44/44/44
f 40/40/40 42/42/42 44/44/44
f 46/46/46 45/45/45 47/47/47 48/48/48
f 50/50/50 49/49/49 51/51/51 52/52/52
f 57/57/57 54/54/54 53/53/53
f 56/56/56 57/57/57 55/55/55
f 54/54/54 57/57/57 56/56/56
f 59/59/59 58/58/58 60/60/60 61/61/61
f 66/66/66 63/63/63 62/62/62
f 65/65/65 66/66/66 64/64/64
f 62/62/62 64/64/64 66/66/66
f 68/68/68 70/70/70 69/69/69 67/67/67
f 72/72/72 71/71/71 73/73/73 74/74/74
o object_2
usemtl diffuse_0
v 0 0 50
v 0 0 -150
v -105 0 50
v -105 0 -150
v 0 0 50
v -105 0 50
v 0 105 50
v -105 105 50
v -105 0 50
v -105 0 -150
v -105 105 50
v -105 105 -150
v -105 0 -150
v 0 0 -150
v -105 105 -150
v 0 105 -150
v 0 0 -150
v 0 0 50
v 0 105 -150
v 0 105 50
v 0 52.5 -105
v 0 52.5 0
v 0 105 0
v 0 105 -105
v -88.361068725585938 52.5 -83.093376159667969
v -15 52.5 -67.5
v -88.361068725585938 52.5 -21.906623840332031
v -15 52.5 -37.5
v -88.361068725585938 52.5 -83.093376159667969
v -88.361068725585938 52.5 -21.906623840332031
v -88.361068725585938 105 -83.093376159667969
v -88.361068725585938 105 -21.906623840332031
v -88.361068725585938 52.5 -21.906623840332031
v -15 52.5 -37.5
v -88.361068725585938 105 -21.906623840332031
v -15 105 -37.5
v -15 52.5 -67.5
v -88.361068725585938 52.5 -83.093376159667969
v -15 105 -67.5
v -88.361068725585938 105 -83.093376159667969
v -15 52.5 0
v 0 52.5 0
v -15 52.5 -105
v 0 52.5 -105
v -15 52.5 -37.5
v -15 52.5 -67.5
v -15 52.5 0
v -15 52.5 -37.5
v -15 105 0
v -15 105 -37.5
v -15 52.5 -105
v 0 52.5 -105
v -15 105 -105
v 0 105 -105
v 0 52.5 0
v -15 52.5 0
v 0 105 0
v -15 105 0
v -15 52.5 -67.5
v -15 52.5 -105
v -15 105 -67.5
v -15 105 -105
v 0 105 50
v 0 105 -150
v -105 105 50
v -105 105 -150
v 0 105 0
v 0 105 -105
v -88.361068725585938 105 -83.093376159667969
v -88.361068725585938 105 -21.906623840332031
v -15 105 -37.5
v -15 105 -67.5
v -15 105 0
v -15 105 -105
vt 0.75 0
vt 0.75 0.4747256338596344
vt 0.99853515625 0
vt 0.99853515625 0.4747256338596344
vt 0 0.35087719559669495
vt 0 0.60087716579437256
vt 0.24853515625 0.35087719559669495
vt 0.24853515625 0.60087716579437256
vt 0.5 0
vt 0.5 0.4747256338596344
vt 0.74853515625 0
vt 0.74853515625 0.4747256338596344
vt 0.49853515625 0.60150372982025146
vt 0.25 0.60150372982025146
vt 0.49853515625 0.85150372982025146
vt 0.25 0.85150372982025146
vt 0.75 0.4761904776096344
vt 0.75 0.9509161114692688
vt 0.99853515625 0.4761904776096344
vt 0.99853515625 0.9509161114692688
vt 0.874267578125 0.58300375938415527
vt 0.874267578125 0.83223468065261841
vt 0.99853515625 0.83223468065261841
vt 0.99853515625 0.58300375938415527
vt 0.1785714328289032 0.11543689668178558
vt 0 0.11543689668178558
vt 0.1785714328289032 0.26111963391304016
vt 0 0.26111963391304016
vt 0.37295547127723694 0
vt 0.22727273404598236 0
vt 0.37295547127723694 0.125
vt 0.22727273404598236 0.125
vt 0.375 0.35087719559669495
vt 0.375 0.52944862842559814
vt 0.49853515625 0.35087719559669495
vt 0.49853515625 0.52944862842559814
vt 0.25 0.35087719559669495
vt 0.25 0.52944862842559814
vt 0.37353515625 0.35087719559669495
vt 0.37353515625 0.52944862842559814
vt 0.49025973677635193 0
vt 0.45454546809196472 0
vt 0.49025973677635193 0.25
vt 0.45454546809196472 0.25
vt 0.49025973677635193 0.089285716414451599
vt 0.49025973677635193 0.1607142835855484
vt 0.31655845046043396 0.17543859779834747
vt 0.22727273404598236 0.17543859779834747
vt 0.31655845046043396 0.30043858289718628
vt 0.22727273404598236 0.30043858289718628
vt 0 0.057718448340892792
vt 0 0.093432731926441193
vt 0.125 0.057718448340892792
vt 0.125 0.093432731926441193
vt 0 0
vt 0 0.035714287310838699
vt 0.125 0
vt 0.125 0.035714287310838699
vt 0.43019479513168335 0.17543859779834747
vt 0.34090909361839294 0.17543859779834747
vt 0.43019479513168335 0.30043858289718628
vt 0.34090909361839294 0.30043858289718628
vt 0.5 0.4761904776096344
vt 0.5 0.9509161114692688
vt 0.74853515625 0.4761904776096344
vt 0.74853515625 0.9509161114692688
vt 0.5 0.5948718786239624
vt 0.5 0.84410285949707031
vt 0.70915079116821289 0.79210466146469116
vt 0.70915079116821289 0.64687007665634155
vt 0.53550499677658081 0.6838829517364502
vt 0.53550499677658081 0.75509178638458252
vt 0.53550499677658081 0.5948718786239624
vt 0.53550499677658081 0.84410285949707031
vn 0 -1 0
vn 0 -1 0
vn 0 -1 0
vn 0 -1 0
vn 0 0 1
vn 0 0 1
vn 0 0 1
vn 0 0 1
vn -1 0 0
vn -1 0 0
vn -1 0 0
vn -1 0 0
vn 0 0 -1
vn 0 0 -1
vn 0 0 -1
vn 0 0 -1
vn 1 0 0
vn 1 0 0
vn 1 0 0
vn 1 0 0
vn 1 0 0
vn 1 0 0
vn 1 0 0
vn 1 0 0
vn 0 1 0
vn 0 1 0
vn 0 1 0
vn 0 1 0
vn 1 0 0
vn 1 0 0
vn 1 0 0
vn 1 0 0
vn -0.20791168510913849 0 -0.97814762592315674
vn -0.20791168510913849 0 -0.97814762592315674
vn -0.20791168510913849 0 -0.97814762592315674
vn -0.20791168510913849 0 -0.97814762592315674
vn -0.20791168510913849 0 0.97814762592315674
vn -0.20791168510913849 0 0.97814762592315674
vn -0.20791168510913849 0 0.97814762592315674
vn -0.20791168510913849 0 0.97814762592315674
vn 0 1 0
vn 0 1 0
vn 0 1 0
vn 0 1 0
vn 0 1 0
vn 0 1 0
vn 1 0 0
vn 1 0 0
vn 1 0 0
vn 1 0 0
vn 0 0 1
vn 0 0 1
vn 0 0 1
vn 0 0 1
vn 0 0 -1
vn 0 0 -1
vn 0 0 -1
vn 0 0 -1
vn 1 0 0
vn 1 0 0
vn 1 0 0
vn 1 0 0
vn 0 1 0
vn 0 1 0
vn 0 1 0
vn 0 1 0
vn 0 1 0
vn 0 1 0
vn 0 1 0
vn 0 1 0
vn 0 1 0
vn 0 1 0
vn 0 1 0
vn 0 1 0
f 76/76/76 75/75/75 77/77/77 78/78/78
f 80/80/80 79/79/79 81/81/81 82/82/82
f 84/84/84 83/83/83 85/85/85 86/86/86
f 88/88/88 87/87/87 89/89/89 90/90/90
f 95/95/95 96/96/96 92/92/92 91/91/91
f 93/93/93 95/95/95 91/91/91
f 94/94/94 92/92/92 96/96/96
f 95/95/95 93/93/93 98/98/98
f 96/96/96 97/97/97 94/94/94
f 100/100/100 99/99/99 101/101/101 102/102/102
f 104/104/104 103/103/103 105/105/105 106/106/106
f 108/108/108 107/107/107 109/109/109 110/110/110
f 112/112/112 111/111/111 113/113/113 114/114/114
f 116/116/116 119/119/119 115/115/115
f 120/120/120 119/119/119 116/116/116
f 118/118/118 117/117/117 120/120/120
f 116/116/116 118/118/118 120/120/120
f 122/122/122 124/124/124 123/123/123 121/121/121
f 126/126/126 128/128/128 127/127/127 125/125/125
f 130/130/130 132/132/132 131/131/131 129/129/129
f 134/134/134 136/136/136 135/135/135 133/133/133
f 141/141/141 147/147/147 137/137/137
f 139/139/139 137/137/137 147/147/147
f 148/148/148 142/142/142 138/138/138
f 145/145/145 144/144/144 147/147/147
f 139/139/139 147/147/147 144/144/144
f 139/139/139 144/144/144 143/143/143 140/140/140
f 140/140/140 143/143/143 148/148/148
f 146/146/146 148/148/148 143/143/143
f 138/138/138 140/140/140 148/148/148
