# Rhino

mtllib Gooseneck Splice.mtl
o object_1
usemtl diffuse_0
v -150 52.5 -37.5
v -76.4925537109375 52.5 -30.074441909790039
v -150 52.5 -67.5
v -76.4925537109375 52.5 -74.925559997558594
v -76.4925537109375 52.5 -67.5
v -76.4925537109375 52.5 -37.5
v -150 52.5 -37.5
v -150 52.5 -67.5
v -150 105 -37.5
v -150 105 -67.5
v -150 52.5 -67.5
v -76.4925537109375 52.5 -74.925559997558594
v -150 105 -67.5
v -76.4925537109375 105 -74.925559997558594
v -76.4925537109375 52.5 -74.925559997558594
v -76.4925537109375 52.5 -67.5
v -76.4925537109375 105 -74.925559997558594
v -76.4925537109375 105 -67.5
v -76.4925537109375 52.5 -30.074441909790039
v -150 52.5 -37.5
v -76.4925537109375 105 -30.074441909790039
v -150 105 -37.5
v -150 105 -37.5
v -76.4925537109375 105 -30.074441909790039
v -150 105 -67.5
v -76.4925537109375 105 -74.925559997558594
v -76.4925537109375 105 -67.5
v -76.4925537109375 105 -37.5
v -76.4925537109375 52.5 -30.074441909790039
v -76.4925537109375 105 -37.5
v -76.4925537109375 105 -30.074441909790039
v -76.4925537109375 52.5 -37.5
v -76.4925537109375 52.5 -37.5
v 0 52.5 -37.5
v 0 52.5 -67.5
v -76.4925537109375 52.5 -67.5
v -76.4925537109375 52.5 -67.5
v 0 52.5 -67.5
v 0 105 -67.5
v -76.4925537109375 105 -67.5
v 0 52.5 -37.5
v -76.4925537109375 52.5 -37.5
v 0 105 -37.5
v -76.4925537109375 105 -37.5
v -76.4925537109375 105 -37.5
v 0 105 -37.5
v 0 105 -67.5
v -76.4925537109375 105 -67.5
v 200 0 -105
v 200 0 0
v 200 105 -105
v 200 105 0
v 0 105 0
v 200 105 0
v 0 105 -105
v 200 105 -105
v 0 105 -37.5
v 0 105 -67.5
v 0 0 -37.5
v 15 0 -37.5
v 0 52.5 -37.5
v 15 52.5 -37.5
v 15 0 -37.5
v 15 0 0
v 15 52.5 -37.5
v 15 52.5 0
v 0 52.5 0
v 15 52.5 0
v 0 52.5 -37.5
v 15 52.5 -37.5
v 200 0 0
v 200 0 -105
v 15 0 -37.5
v 0 0 -37.5
v 15 0 0
v 15 0 -67.5
v 15 0 -105
v 0 0 -67.5
v 200 0 0
v 200 105 0
v 0 105 0
v 15 52.5 0
v 15 0 0
v 0 52.5 0
v 0 0 -37.5
v 0 0 -67.5
v 0 52.5 -37.5
v 0 52.5 -67.5
v 0 52.5 0
v 0 52.5 -37.5
v 0 105 0
v 0 105 -37.5
v 0 0 -67.5
v 15 0 -67.5
v 0 52.5 -67.5
v 15 52.5 -67.5
v 15 0 -67.5
v 15 0 -105
v 15 52.5 -67.5
v 15 52.5 -105
v 0 52.5 -105
v 15 52.5 -105
v 0 52.5 -67.5
v 15 52.5 -67.5
v 200 0 -105
v 0 105 -105
v 200 105 -105
v 15 0 -105
v 15 52.5 -105
v 0 52.5 -105
v 0 52.5 -67.5
v 0 52.5 -105
v 0 105 -67.5
v 0 105 -105
vt 0.37806999683380127 0.18026335537433624
vt 0.37806999683380127 0.35290873050689697
vt 0.48298490047454834 0.18026335537433624
vt 0.48298490047454834 0.35290873050689697
vt 0.46561518311500549 0.35290873050689697
vt 0.3954397439956665 0.35290873050689697
vt 0.34720870852470398 0.090131677687168121
vt 0.34720870852470398 0.16030710935592651
vt 0.47001573443412781 0.090131677687168121
vt 0.47001573443412781 0.16030710935592651
vt 0.61403506994247437 0.18027414381504059
vt 0.61403506994247437 0.35309648513793945
vt 0.73537725210189819 0.18027414381504059
vt 0.73537725210189819 0.35309648513793945
vt 0.52723217010498047 0
vt 0.50996255874633789 0
vt 0.52723217010498047 0.12280701845884323
vt 0.50996255874633789 0.12280701845884323
vt 0.49122807383537292 0.18027414381504059
vt 0.49122807383537292 0.35309648513793945
vt 0.61257022619247437 0.18027414381504059
vt 0.61257022619247437 0.35309648513793945
vt 0.264911949634552 0.18026335537433624
vt 0.264911949634552 0.35290873050689697
vt 0.36982682347297668 0.18026335537433624
vt 0.36982682347297668 0.35290873050689697
vt 0.35245710611343384 0.35290873050689697
vt 0.28228166699409485 0.35290873050689697
vt 0.49122807383537292 0
vt 0.50849771499633789 0.12280701845884323
vt 0.49122807383537292 0.12280701845884323
vt 0.50849771499633789 0
vt 0.264911949634552 0
vt 0.264911949634552 0.17879851162433624
vt 0.33508738875389099 0.17879851162433624
vt 0.33508738875389099 0
vt 0.73684209585189819 0.17892995476722717
vt 0.73684209585189819 0.35639506578445435
vt 0.85818427801132202 0.35639506578445435
vt 0.85818427801132202 0.17892995476722717
vt 0.86842107772827148 0
vt 0.86842107772827148 0.17746511101722717
vt 0.99122804403305054 0
vt 0.99122804403305054 0.17746511101722717
vt 0.9298245906829834 0.17892995476722717
vt 0.9298245906829834 0.35639506578445435
vt 0.99853515625 0.35639506578445435
vt 0.99853515625 0.17892995476722717
vt 0 0
vt 0 0.24561403691768646
vt 0.24561403691768646 0
vt 0.24561403691768646 0.24561403691768646
vt 0.24561403691768646 0.35437357425689697
vt 0.24561403691768646 0.82220983505249023
vt 0.48976323008537292 0.35437357425689697
vt 0.48976323008537292 0.82220983505249023
vt 0.3328101634979248 0.35437357425689697
vt 0.40256708860397339 0.35437357425689697
vt 0.9283597469329834 0.17892995476722717
vt 0.89473682641983032 0.17892995476722717
vt 0.9283597469329834 0.301736980676651
vt 0.89473682641983032 0.301736980676651
vt 0.60438615083694458 0.090137071907520294
vt 0.60438615083694458 0.17785637080669403
vt 0.72719317674636841 0.090137071907520294
vt 0.72719317674636841 0.17785637080669403
vt 0.60162925720214844 0
vt 0.56654155254364014 0
vt 0.60162925720214844 0.087719298899173737
vt 0.56654155254364014 0.087719298899173737
vt 0 0.82220983505249023
vt 0.24414919316768646 0.82220983505249023
vt 0.087196141481399536 0.38946127891540527
vt 0.087196141481399536 0.35437357425689697
vt 0 0.38946127891540527
vt 0.15695305168628693 0.38946127891540527
vt 0.24414919316768646 0.38946127891540527
vt 0.15695305168628693 0.35437357425689697
vt 0.74561405181884766 0.35785990953445435
vt 0.99122804403305054 0.35785990953445435
vt 0.99122804403305054 0.82423132658004761
vt 0.86842107772827148 0.78925347328186035
vt 0.74561405181884766 0.78925347328186035
vt 0.86842107772827148 0.82423132658004761
vt 0.34720870852470398 0
vt 0.34720870852470398 0.070175439119338989
vt 0.47001573443412781 0
vt 0.47001573443412781 0.070175439119338989
vt 0.60438615083694458 0
vt 0.60438615083694458 0.087719298899173737
vt 0.72719317674636841 0
vt 0.72719317674636841 0.087719298899173737
vt 0.89327198266983032 0.17892995476722717
vt 0.85964912176132202 0.17892995476722717
vt 0.89327198266983032 0.301736980676651
vt 0.85964912176132202 0.301736980676651
vt 0.73684209585189819 0.089464977383613586
vt 0.73684209585189819 0.17718426883220673
vt 0.85964912176132202 0.089464977383613586
vt 0.85964912176132202 0.17718426883220673
vt 0.56378471851348877 0
vt 0.52869701385498047 0
vt 0.56378471851348877 0.087719298899173737
vt 0.52869701385498047 0.087719298899173737
vt 0.49122807383537292 0.82423132658004761
vt 0.73684209585189819 0.35785990953445435
vt 0.73684209585189819 0.82423132658004761
vt 0.49122807383537292 0.3928377628326416
vt 0.61403506994247437 0.3928377628326416
vt 0.61403506994247437 0.35785990953445435
vt 0.73684209585189819 0
vt 0.73684209585189819 0.087719298899173737
vt 0.85964912176132202 0
vt 0.85964912176132202 0.087719298899173737
vn 0 -1 0
vn 0 -1 0
vn 0 -1 0
vn 0 -1 0
vn 0 -1 0
vn 0 -1 0
vn -1 0 0
vn -1 0 0
vn -1 0 0
vn -1 0 0
vn -0.1005062535405159 0 -0.99493640661239624
vn -0.1005062535405159 0 -0.99493640661239624
vn -0.1005062535405159 0 -0.99493640661239624
vn -0.1005062535405159 0 -0.99493640661239624
vn 1 0 0
vn 1 0 0
vn 1 0 0
vn 1 0 0
vn -0.1005062535405159 0 0.99493640661239624
vn -0.1005062535405159 0 0.99493640661239624
vn -0.1005062535405159 0 0.99493640661239624
vn -0.1005062535405159 0 0.99493640661239624
vn 0 1 0
vn 0 1 0
vn 0 1 0
vn 0 1 0
vn 0 1 0
vn 0 1 0
vn 1 0 0
vn 1 0 0
vn 1 0 0
vn 1 0 0
vn 0 -1 0
vn 0 -1 0
vn 0 -1 0
vn 0 -1 0
vn 0 0 -1
vn 0 0 -1
vn 0 0 -1
vn 0 0 -1
vn 0 0 1
vn 0 0 1
vn 0 0 1
vn 0 0 1
vn 0 1 0
vn 0 1 0
vn 0 1 0
vn 0 1 0
vn 1 0 0
vn 1 0 0
vn 1 0 0
vn 1 0 0
vn 0 1 0
vn 0 1 0
vn 0 1 0
vn 0 1 0
vn 0 1 0
vn 0 1 0
vn 0 0 1
vn 0 0 1
vn 0 0 1
vn 0 0 1
vn -1 0 0
vn -1 0 0
vn -1 0 0
vn -1 0 0
vn 0 -1 0
vn 0 -1 0
vn 0 -1 0
vn 0 -1 0
vn 0 -1 0
vn 0 -1 0
vn 0 -1 0
vn 0 -1 0
vn 0 -1 0
vn 0 -1 0
vn 0 -1 0
vn 0 -1 0
vn 0 0 1
vn 0 0 1
vn 0 0 1
vn 0 0 1
vn 0 0 1
vn 0 0 1
vn -1 0 0
vn -1 0 0
vn -1 0 0
vn -1 0 0
vn -1 0 0
vn -1 0 0
vn -1 0 0
vn -1 0 0
vn 0 0 -1
vn 0 0 -1
vn 0 0 -1
vn 0 0 -1
vn -1 0 0
vn -1 0 0
vn -1 0 0
vn -1 0 0
vn 0 -1 0
vn 0 -1 0
vn 0 -1 0
vn 0 -1 0
vn 0 0 -1
vn 0 0 -1
vn 0 0 -1
vn 0 0 -1
vn 0 0 -1
vn 0 0 -1
vn -1 0 0
vn -1 0 0
vn -1 0 0
vn -1 0 0
f 2/2/2 1/1/1 6/6/6
f 1/1/1 3/3/3 5/5/5 6/6/6
f 4/4/4 5/5/5 3/3/3
f 8/8/8 7/7/7 9/9/9 10/10/10
f 12/12/12 11/11/11 13/13/13 14/14/14
f 16/16/16 15/15/15 17/17/17 18/18/18
f 20/20/20 19/19/19 21/21/21 22/22/22
f 24/24/24 28/28/28 23/23/23
f 23/23/23 28/28/28 27/27/27 25/25/25
f 26/26/26 25/25/25 27/27/27
f 29/29/29 32/32/32 30/30/30 31/31/31
f 34/34/34 33/33/33 36/36/36 35/35/35
f 38/38/38 37/37/37 40/40/40 39/39/39
f 42/42/42 41/41/41 43/43/43 44/44/44
f 46/46/46 47/47/47 48/48/48 45/45/45
f 50/50/50 49/49/49 51/51/51 52/52/52
f 54/54/54 57/57/57 53/53/53
f 58/58/58 57/57/57 54/54/54
f 56/56/56 55/55/55 58/58/58
f 54/54/54 56/56/56 58/58/58
f 60/60/60 62/62/62 61/61/61 59/59/59
f 64/64/64 66/66/66 65/65/65 63/63/63
f 68/68/68 67/67/67 69/69/69 70/70/70
f 76/76/76 71/71/71 73/73/73
f 75/75/75 73/73/73 71/71/71
f 73/73/73 74/74/74 78/78/78 76/76/76
f 76/76/76 77/77/77 72/72/72
f 71/71/71 76/76/76 72/72/72
f 83/83/83 79/79/79 82/82/82
f 80/80/80 82/82/82 79/79/79
f 84/84/84 82/82/82 81/81/81
f 80/80/80 81/81/81 82/82/82
f 86/86/86 85/85/85 87/87/87 88/88/88
f 90/90/90 89/89/89 91/91/91 92/92/92
f 94/94/94 93/93/93 95/95/95 96/96/96
f 98/98/98 97/97/97 99/99/99 100/100/100
f 102/102/102 104/104/104 103/103/103 101/101/101
f 109/109/109 105/105/105 108/108/108
f 107/107/107 109/109/109 106/106/106
f 110/110/110 106/106/106 109/109/109
f 105/105/105 109/109/109 107/107/107
f 112/112/112 111/111/111 113/113/113 114/114/114
o object_2
usemtl diffuse_0
v 0 0 -105
v 15 0 -105
v 0 0 -67.5
v 15 0 -67.5
v 0 0 -67.5
v 15 0 -67.5
v 0 52.5 -67.5
v 15 52.5 -67.5
v 15 0 -67.5
v 15 0 -105
v 15 52.5 -67.5
v 15 52.5 -105
v 15 0 -105
v 0 0 -105
v 15 52.5 -105
v 0 52.5 -105
v 0 52.5 -105
v 15 52.5 -105
v 0 52.5 -67.5
v 15 52.5 -67.5
v 0 0 0
v 15 0 0
v 0 0 -37.5
v 15 0 -37.5
v 0 0 -37.5
v 15 0 -37.5
v 0 52.5 -37.5
v 15 52.5 -37.5
v 15 0 -37.5
v 15 0 0
v 15 52.5 -37.5
v 15 52.5 0
v 15 0 0
v 0 0 0
v 15 52.5 0
v 0 52.5 0
v 0 52.5 0
v 15 52.5 0
v 0 52.5 -37.5
v 15 52.5 -37.5
v 0 0 0
v -200 0 0
v 0 0 -105
v -200 0 -105
v 0 0 -67.5
v 0 0 -37.5
v 0 0 -105
v -200 0 -105
v 0 105 -105
v -200 105 -105
v 0 52.5 -105
v -200 0 -105
v -200 0 0
v -200 105 -105
v -200 105 0
v -200 0 0
v 0 0 0
v -200 105 0
v 0 105 0
v 0 52.5 0
v 0 105 0
v -200 105 0
v 0 105 -105
v -200 105 -105
v -76.4925537109375 105 -30.074441909790039
v -150 105 -37.5
v -150 105 -67.5
v -76.4925537109375 105 -74.925559997558594
v -76.4925537109375 105 -67.5
v 0 105 -67.5
v 0 105 -37.5
v -76.4925537109375 105 -37.5
v 0 52.5 0
v 0 52.5 -37.5
v 0 105 0
v 0 105 -37.5
v -150 52.5 -37.5
v -76.4925537109375 52.5 -30.074441909790039
v -150 52.5 -67.5
v -76.4925537109375 52.5 -74.925559997558594
v -76.4925537109375 52.5 -67.5
v -76.4925537109375 52.5 -37.5
v -150 52.5 -37.5
v -150 52.5 -67.5
v -150 105 -37.5
v -150 105 -67.5
v -150 52.5 -67.5
v -76.4925537109375 52.5 -74.925559997558594
v -150 105 -67.5
v -76.4925537109375 105 -74.925559997558594
v -76.4925537109375 52.5 -74.925559997558594
v -76.4925537109375 52.5 -67.5
v -76.4925537109375 105 -74.925559997558594
v -76.4925537109375 105 -67.5
v -76.4925537109375 52.5 -30.074441909790039
v -150 52.5 -37.5
v -76.4925537109375 105 -30.074441909790039
v -150 105 -37.5
v -76.4925537109375 52.5 -30.074441909790039
v -76.4925537109375 105 -37.5
v -76.4925537109375 105 -30.074441909790039
v -76.4925537109375 52.5 -37.5
v -76.4925537109375 52.5 -37.5
v 0 52.5 -37.5
v 0 52.5 -67.5
v -76.4925537109375 52.5 -67.5
v -76.4925537109375 52.5 -67.5
v 0 52.5 -67.5
v 0 105 -67.5
v -76.4925537109375 105 -67.5
v 0 52.5 -37.5
v -76.4925537109375 52.5 -37.5
v 0 105 -37.5
v -76.4925537109375 105 -37.5
v 0 52.5 -67.5
v 0 52.5 -105
v 0 105 -67.5
v 0 105 -105
v 0 0 -37.5
v 0 0 -67.5
v 0 52.5 -37.5
v 0 52.5 -67.5
vt 0.68850719928741455 0.14003857970237732
vt 0.68850719928741455 0.17088095843791962
vt 0.7656131386756897 0.14003857970237732
vt 0.7656131386756897 0.17088095843791962
vt 0.72155529260635376 0.35114410519599915
vt 0.72155529260635376 0.38198649883270264
vt 0.82950365543365479 0.35114410519599915
vt 0.82950365543365479 0.38198649883270264
vt 0.061684776097536087 0.64373600482940674
vt 0.061684776097536087 0.72084194421768188
vt 0.16963313519954681 0.64373600482940674
vt 0.16963313519954681 0.72084194421768188
vt 0.72155529260635376 0.28077560663223267
vt 0.72155529260635376 0.31161800026893616
vt 0.82950365543365479 0.28077560663223267
vt 0.82950365543365479 0.31161800026893616
vt 0.68850719928741455 0.069670058786869049
vt 0.68850719928741455 0.10051245242357254
vt 0.7656131386756897 0.069670058786869049
vt 0.7656131386756897 0.10051245242357254
vt 0.72155529260635376 0.21040709316730499
vt 0.72155529260635376 0.24124947190284729
vt 0.79866129159927368 0.21040709316730499
vt 0.79866129159927368 0.24124947190284729
vt 0.90423858165740967 0
vt 0.87339615821838379 0
vt 0.90423858165740967 0.10794835537672043
vt 0.87339615821838379 0.10794835537672043
vt 0.84125429391860962 0.63226896524429321
vt 0.7656131386756897 0.63226896524429321
vt 0.84125429391860962 0.74021732807159424
vt 0.7656131386756897 0.74021732807159424
vt 0.86806607246398926 0
vt 0.83722364902496338 0
vt 0.86806607246398926 0.10794835537672043
vt 0.83722364902496338 0.10794835537672043
vt 0.71934956312179565 0.21040709316730499
vt 0.68850719928741455 0.21040709316730499
vt 0.71934956312179565 0.28751304745674133
vt 0.68850719928741455 0.28751304745674133
vt 0.34425359964370728 0
vt 0.34425359964370728 0.40976700186729431
vt 0.56015032529830933 0
vt 0.56015032529830933 0.40976700186729431
vt 0.4830443263053894 0
vt 0.42135956883430481 0
vt 0 0
vt 0 0.40976700186729431
vt 0.21589671075344086 0
vt 0.21589671075344086 0.40976700186729431
vt 0.10794835537672043 0
vt 0.21589671075344086 0.41123184561729431
vt 0 0.41123184561729431
vt 0.21589671075344086 0.62712854146957397
vt 0 0.62712854146957397
vt 0.68704235553741455 0.62712854146957397
vt 0.27727535367012024 0.62712854146957397
vt 0.68704235553741455 0.84156042337417603
vt 0.27727535367012024 0.84156042337417603
vt 0.27727535367012024 0.734344482421875
vt 0.68704235553741455 0.41123184561729431
vt 0.27727535367012024 0.41123184561729431
vt 0.68704235553741455 0.62566369771957397
vt 0.27727535367012024 0.62566369771957397
vt 0.53032171726226807 0.47265011072158813
vt 0.37971711158752441 0.48781463503837585
vt 0.37971711158752441 0.54908090829849243
vt 0.53032171726226807 0.56424540281295776
vt 0.53032171726226807 0.54908090829849243
vt 0.68704235553741455 0.54908090829849243
vt 0.68704235553741455 0.48781463503837585
vt 0.53032171726226807 0.48781463503837585
vt 0.7641482949256897 0.63226896524429321
vt 0.68850719928741455 0.63226896524429321
vt 0.7641482949256897 0.74021732807159424
vt 0.68850719928741455 0.74021732807159424
vt 0.18505433201789856 0.64373600482940674
vt 0.18505433201789856 0.79564821720123291
vt 0.27581050992012024 0.64373600482940674
vt 0.27581050992012024 0.79564821720123291
vt 0.26078489422798157 0.79564821720123291
vt 0.20007993280887604 0.79564821720123291
vt 0.18358948826789856 0.72677320241928101
vt 0.12336955219507217 0.72677320241928101
vt 0.18358948826789856 0.83472156524658203
vt 0.12336955219507217 0.83472156524658203
vt 0.84041941165924072 0.42151263356208801
vt 0.68850719928741455 0.42151263356208801
vt 0.84041941165924072 0.52946096658706665
vt 0.68850719928741455 0.52946096658706665
vt 0.68850719928741455 0.034835029393434525
vt 0.68850719928741455 0.050103161484003067
vt 0.79645556211471558 0.034835029393434525
vt 0.79645556211471558 0.050103161484003067
vt 0.98913586139678955 0.21075631678104401
vt 0.83722364902496338 0.21075631678104401
vt 0.98913586139678955 0.31870466470718384
vt 0.83722364902496338 0.31870466470718384
vt 0.68850719928741455 0.015268129296600819
vt 0.79645556211471558 0
vt 0.79645556211471558 0.015268129296600819
vt 0.68850719928741455 0
vt 0 0.64373600482940674
vt 0 0.80101686716079712
vt 0.060219932347536087 0.80101686716079712
vt 0.060219932347536087 0.64373600482940674
vt 0.99853515625 0.63226896524429321
vt 0.84271913766860962 0.63226896524429321
vt 0.84271913766860962 0.74021732807159424
vt 0.99853515625 0.74021732807159424
vt 0.99853515625 0.42151263356208801
vt 0.84271913766860962 0.42151263356208801
vt 0.99853515625 0.52946096658706665
vt 0.84271913766860962 0.52946096658706665
vt 0.98667466640472412 0
vt 0.90956872701644897 0
vt 0.98667466640472412 0.10794835537672043
vt 0.90956872701644897 0.10794835537672043
vt 0.12190470844507217 0.72677320241928101
vt 0.061684776097536087 0.72677320241928101
vt 0.12190470844507217 0.83472156524658203
vt 0.061684776097536087 0.83472156524658203
vn 0 -1 0
vn 0 -1 0
vn 0 -1 0
vn 0 -1 0
vn 0 0 1
vn 0 0 1
vn 0 0 1
vn 0 0 1
vn 1 0 0
vn 1 0 0
vn 1 0 0
vn 1 0 0
vn 0 0 -1
vn 0 0 -1
vn 0 0 -1
vn 0 0 -1
vn 0 1 0
vn 0 1 0
vn 0 1 0
vn 0 1 0
vn 0 -1 0
vn 0 -1 0
vn 0 -1 0
vn 0 -1 0
vn 0 0 -1
vn 0 0 -1
vn 0 0 -1
vn 0 0 -1
vn 1 0 0
vn 1 0 0
vn 1 0 0
vn 1 0 0
vn 0 0 1
vn 0 0 1
vn 0 0 1
vn 0 0 1
vn 0 1 0
vn 0 1 0
vn 0 1 0
vn 0 1 0
vn 0 -1 0
vn 0 -1 0
vn 0 -1 0
vn 0 -1 0
vn 0 -1 0
vn 0 -1 0
vn 0 0 -1
vn 0 0 -1
vn 0 0 -1
vn 0 0 -1
vn 0 0 -1
vn -1 0 0
vn -1 0 0
vn -1 0 0
vn -1 0 0
vn 0 0 1
vn 0 0 1
vn 0 0 1
vn 0 0 1
vn 0 0 1
vn 0 1 0
vn 0 1 0
vn 0 1 0
vn 0 1 0
vn 0 1 0
vn 0 1 0
vn 0 1 0
vn 0 1 0
vn 0 1 0
vn 0 1 0
vn 0 1 0
vn 0 1 0
vn 1 0 0
vn 1 0 0
vn 1 0 0
vn 1 0 0
vn 0 1 0
vn 0 1 0
vn 0 1 0
vn 0 1 0
vn 0 1 0
vn 0 1 0
vn 1 0 0
vn 1 0 0
vn 1 0 0
vn 1 0 0
vn 0.1005062535405159 0 0.99493640661239624
vn 0.1005062535405159 0 0.99493640661239624
vn 0.1005062535405159 0 0.99493640661239624
vn 0.1005062535405159 0 0.99493640661239624
vn -1 0 0
vn -1 0 0
vn -1 0 0
vn -1 0 0
vn 0.1005062535405159 0 -0.99493640661239624
vn 0.1005062535405159 0 -0.99493640661239624
vn 0.1005062535405159 0 -0.99493640661239624
vn 0.1005062535405159 0 -0.99493640661239624
vn -1 0 0
vn -1 0 0
vn -1 0 0
vn -1 0 0
vn 0 1 0
vn 0 1 0
vn 0 1 0
vn 0 1 0
vn 0 0 1
vn 0 0 1
vn 0 0 1
vn 0 0 1
vn 0 0 -1
vn 0 0 -1
vn 0 0 -1
vn 0 0 -1
vn 1 0 0
vn 1 0 0
vn 1 0 0
vn 1 0 0
vn 1 0 0
vn 1 0 0
vn 1 0 0
vn 1 0 0
f 116/116/116 118/118/118 117/117/117 115/115/115
f 120/120/120 122/122/122 121/121/121 119/119/119
f 124/124/124 126/126/126 125/125/125 123/123/123
f 128/128/128 130/130/130 129/129/129 127/127/127
f 132/132/132 131/131/131 133/133/133 134/134/134
f 136/136/136 135/135/135 137/137/137 138/138/138
f 140/140/140 139/139/139 141/141/141 142/142/142
f 144/144/144 143/143/143 145/145/145 146/146/146
f 148/148/148 147/147/147 149/149/149 150/150/150
f 152/152/152 154/154/154 153/153/153 151/151/151
f 156/156/156 160/160/160 155/155/155
f 159/159/159 160/160/160 156/156/156
f 158/158/158 157/157/157 159/159/159
f 156/156/156 158/158/158 159/159/159
f 165/165/165 161/161/161 162/162/162
f 164/164/164 163/163/163 165/165/165
f 162/162/162 164/164/164 165/165/165
f 167/167/167 169/169/169 168/168/168 166/166/166
f 174/174/174 170/170/170 171/171/171
f 173/173/173 172/172/172 174/174/174
f 170/170/170 174/174/174 172/172/172
f 179/179/179 175/175/175 185/185/185
f 186/186/186 179/179/179 185/185/185
f 176/176/176 175/175/175 179/179/179
f 176/176/176 179/179/179 180/180/180
f 181/181/181 176/176/176 180/180/180
f 182/182/182 183/183/183 184/184/184
f 177/177/177 182/182/182 184/184/184
f 178/178/178 181/181/181 182/182/182
f 177/177/177 178/178/178 182/182/182
f 176/176/176 181/181/181 178/178/178
f 188/188/188 190/190/190 189/189/189 187/187/187
f 192/192/192 196/196/196 191/191/191
f 191/191/191 196/196/196 195/195/195 193/193/193
f 194/194/194 193/193/193 195/195/195
f 198/198/198 200/200/200 199/199/199 197/197/197
f 202/202/202 204/204/204 203/203/203 201/201/201
f 206/206/206 208/208/208 207/207/207 205/205/205
f 210/210/210 212/212/212 211/211/211 209/209/209
f 213/213/213 215/215/215 214/214/214 216/216/216
f 218/218/218 219/219/219 220/220/220 217/217/217
f 222/222/222 223/223/223 224/224/224 221/221/221
f 226/226/226 228/228/228 227/227/227 225/225/225
f 230/230/230 232/232/232 231/231/231 229/229/229
f 234/234/234 236/236/236 235/235/235 233/233/233
