# Rhino

mtllib 勾頭搭掌榫.mtl
o object_1
usemtl diffuse_0
v 105 -40 5
v 105 40 5
v 115 -40 5
v 115 40 5
v 115 -40 5
v 115 40 5
v 115 -40 -5
v 115 40 -5
v 115 -40 -5
v 115 40 -5
v 105 -40 -5
v 105 40 -5
v 105 -40 -5
v 105 40 -5
v 105 -40 5
v 105 40 5
v 105 -40 5
v 115 -40 5
v 105 -40 -5
v 115 -40 -5
v 105 40 5
v 105 40 -5
v 115 40 5
v 115 40 -5
vt 0.99853515625 0.66666668653488159
vt 0.1111111119389534 0.66666668653488159
vt 0.99853515625 0.77777779102325439
vt 0.1111111119389534 0.77777779102325439
vt 0 0
vt 0 0.8874240517616272
vt 0.1096462681889534 0
vt 0.1096462681889534 0.8874240517616272
vt 0.99853515625 0.4444444477558136
vt 0.1111111119389534 0.4444444477558136
vt 0.99853515625 0.55555558204650879
vt 0.1111111119389534 0.55555558204650879
vt 0.99853515625 0.2222222238779068
vt 0.1111111119389534 0.2222222238779068
vt 0.99853515625 0.3333333432674408
vt 0.1111111119389534 0.3333333432674408
vt 0.55555558204650879 0
vt 0.55555558204650879 0.1111111119389534
vt 0.66666668653488159 0
vt 0.66666668653488159 0.1111111119389534
vt 0.1111111119389534 0
vt 0.1111111119389534 0.1111111119389534
vt 0.2222222238779068 0
vt 0.2222222238779068 0.1111111119389534
vn 0 0 1
vn 0 0 1
vn 0 0 1
vn 0 0 1
vn 1 0 0
vn 1 0 0
vn 1 0 0
vn 1 0 0
vn 0 0 -1
vn 0 0 -1
vn 0 0 -1
vn 0 0 -1
vn -1 0 0
vn -1 0 0
vn -1 0 0
vn -1 0 0
vn 0 -1 0
vn 0 -1 0
vn 0 -1 0
vn 0 -1 0
vn 0 1 0
vn 0 1 0
vn 0 1 0
vn 0 1 0
f 2/2/2 1/1/1 3/3/3 4/4/4
f 6/6/6 5/5/5 7/7/7 8/8/8
f 10/10/10 9/9/9 11/11/11 12/12/12
f 14/14/14 13/13/13 15/15/15 16/16/16
f 18/18/18 17/17/17 19/19/19 20/20/20
f 22/22/22 21/21/21 23/23/23 24/24/24
o object_2
usemtl diffuse_0
v 370 30 30
v 370 -30 30
v 370 30 -30
v 370 -30 -30
v 370 30 -30
v 70 30 -30
v 370 30 30
v 70 30 30
v 115 30 5
v 115 30 -5
v 105 30 -5
v 105 30 5
v 70 10 -30
v 110 -10 -30
v 70 10 30
v 110 -10 30
v 110 -10 5
v 105 -7.5 5
v 105 -7.5 -5
v 110 -10 -5
v 70 30 -30
v 70 10 -30
v 70 30 30
v 70 10 30
v 110 10 -30
v 150 -10 -30
v 110 10 30
v 150 -10 30
v 115 7.5 5
v 110 10 5
v 110 10 -5
v 115 7.5 -5
v 150 -10 30
v 150 -10 -30
v 150 -30 -30
v 150 -30 30
v 370 30 -30
v 370 -30 -30
v 70 30 -30
v 70 10 -30
v 110 -10 -30
v 110 10 -30
v 150 -10 -30
v 150 -30 -30
v 70 30 30
v 370 30 30
v 370 -30 30
v 110 -10 30
v 70 10 30
v 150 -10 30
v 110 10 30
v 150 -30 30
v 370 -30 -30
v 370 -30 30
v 150 -30 -30
v 150 -30 30
v 110 10 -30
v 110 10 -5
v 110 -10 -30
v 110 -10 -5
v 110 10 5
v 110 10 30
v 110 -10 5
v 110 -10 30
v 105 30 5
v 115 30 5
v 105 -7.5 5
v 110 -10 5
v 110 10 5
v 115 7.5 5
v 115 7.5 5
v 115 30 5
v 115 7.5 -5
v 115 30 -5
v 115 30 -5
v 105 30 -5
v 110 -10 -5
v 105 -7.5 -5
v 115 7.5 -5
v 110 10 -5
v 105 -7.5 -5
v 105 30 -5
v 105 30 5
v 105 -7.5 5
vt 0.46666666865348816 0
vt 0.46666666865348816 0.1666666716337204
vt 0.63333332538604736 0
vt 0.63333332538604736 0.1666666716337204
vt 0.1666666716337204 0
vt 0.1666666716337204 0.83186846971511841
vt 0.3318684995174408 0
vt 0.3318684995174408 0.83186846971511841
vt 0.2630344033241272 0.70708823204040527
vt 0.2355007529258728 0.70708823204040527
vt 0.2355007529258728 0.73481714725494385
vt 0.2630344033241272 0.73481714725494385
vt 0.5 0.58395487070083618
vt 0.5 0.70818084478378296
vt 0.66520184278488159 0.58395487070083618
vt 0.66520184278488159 0.70818084478378296
vt 0.59636771678924561 0.70818084478378296
vt 0.59636771678924561 0.69265258312225342
vt 0.56883406639099121 0.69265258312225342
vt 0.56883406639099121 0.70818084478378296
vt 0.3333333432674408 0.52640599012374878
vt 0.3333333432674408 0.58196151256561279
vt 0.49853515625 0.52640599012374878
vt 0.49853515625 0.58196151256561279
vt 0.5 0.33457633852958679
vt 0.5 0.45880234241485596
vt 0.66520184278488159 0.33457633852958679
vt 0.66520184278488159 0.45880234241485596
vt 0.59636771678924561 0.35010460019111633
vt 0.59636771678924561 0.33457633852958679
vt 0.56883406639099121 0.33457633852958679
vt 0.56883406639099121 0.35010460019111633
vt 0.49853515625 0.67986965179443359
vt 0.3333333432674408 0.67986965179443359
vt 0.3333333432674408 0.73542517423629761
vt 0.49853515625 0.73542517423629761
vt 0.1652018278837204 0
vt 0 0
vt 0.1652018278837204 0.83186846971511841
vt 0.1101345494389534 0.83186846971511841
vt 0.055067270994186401 0.72095268964767456
vt 0.1101345494389534 0.72095268964767456
vt 0.055067270994186401 0.61003690958023071
vt 0 0.61003690958023071
vt 0.99853515625 0
vt 0.99853515625 0.83186846971511841
vt 0.83333331346511841 0.83186846971511841
vt 0.8884006142616272 0.11091580241918564
vt 0.94346785545349121 0
vt 0.8884006142616272 0.22183160483837128
vt 0.94346785545349121 0.11091580241918564
vt 0.83333331346511841 0.22183160483837128
vt 0.83186846971511841 0
vt 0.66666668653488159 0
vt 0.83186846971511841 0.6111111044883728
vt 0.66666668653488159 0.6111111044883728
vt 0.3333333432674408 0.33457633852958679
vt 0.3333333432674408 0.40402078628540039
vt 0.3888888955116272 0.33457633852958679
vt 0.3888888955116272 0.40402078628540039
vt 0.4166666567325592 0.33457633852958679
vt 0.4166666567325592 0.40402078628540039
vt 0.47222220897674561 0.33457633852958679
vt 0.47222220897674561 0.40402078628540039
vt 0.43333333730697632 0.1111111119389534
vt 0.46111109852790833 0.1111111119389534
vt 0.43333333730697632 0.0069444444961845875
vt 0.44722223281860352 0
vt 0.44722223281860352 0.0555555559694767
vt 0.46111109852790833 0.0486111119389534
vt 0.3333333432674408 0
vt 0.3333333432674408 0.0625
vt 0.3611111044883728 0
vt 0.3611111044883728 0.0625
vt 0.40000000596046448 0.1111111119389534
vt 0.42777776718139648 0.1111111119389534
vt 0.41388890147209167 0
vt 0.42777776718139648 0.0069444444961845875
vt 0.40000000596046448 0.0486111119389534
vt 0.41388890147209167 0.0555555559694767
vt 0.36666667461395264 0
vt 0.36666667461395264 0.1041666641831398
vt 0.39444443583488464 0.1041666641831398
vt 0.39444443583488464 0
vn 1 0 0
vn 1 0 0
vn 1 0 0
vn 1 0 0
vn 0 1 0
vn 0 1 0
vn 0 1 0
vn 0 1 0
vn 0 1 0
vn 0 1 0
vn 0 1 0
vn 0 1 0
vn -0.44721359014511108 -0.89442718029022217 0
vn -0.44721359014511108 -0.89442718029022217 0
vn -0.44721359014511108 -0.89442718029022217 0
vn -0.44721359014511108 -0.89442718029022217 0
vn -0.44721359014511108 -0.89442718029022217 0
vn -0.44721359014511108 -0.89442718029022217 0
vn -0.44721359014511108 -0.89442718029022217 0
vn -0.44721359014511108 -0.89442718029022217 0
vn -1 0 0
vn -1 0 0
vn -1 0 0
vn -1 0 0
vn -0.44721359014511108 -0.89442718029022217 0
vn -0.44721359014511108 -0.89442718029022217 0
vn -0.44721359014511108 -0.89442718029022217 0
vn -0.44721359014511108 -0.89442718029022217 0
vn -0.44721359014511108 -0.89442718029022217 0
vn -0.44721359014511108 -0.89442718029022217 0
vn -0.44721359014511108 -0.89442718029022217 0
vn -0.44721359014511108 -0.89442718029022217 0
vn -1 0 0
vn -1 0 0
vn -1 0 0
vn -1 0 0
vn 0 0 -1
vn 0 0 -1
vn 0 0 -1
vn 0 0 -1
vn 0 0 -1
vn 0 0 -1
vn 0 0 -1
vn 0 0 -1
vn 0 0 1
vn 0 0 1
vn 0 0 1
vn 0 0 1
vn 0 0 1
vn 0 0 1
vn 0 0 1
vn 0 0 1
vn 0 -1 0
vn 0 -1 0
vn 0 -1 0
vn 0 -1 0
vn 1 0 0
vn 1 0 0
vn 1 0 0
vn 1 0 0
vn 1 0 0
vn 1 0 0
vn 1 0 0
vn 1 0 0
vn 0 0 -1
vn 0 0 -1
vn 0 0 -1
vn 0 0 -1
vn 0 0 -1
vn 0 0 -1
vn -1 0 0
vn -1 0 0
vn -1 0 0
vn -1 0 0
vn 0 0 1
vn 0 0 1
vn 0 0 1
vn 0 0 1
vn 0 0 1
vn 0 0 1
vn 1 0 0
vn 1 0 0
vn 1 0 0
vn 1 0 0
f 26/26/26 28/28/28 27/27/27 25/25/25
f 30/30/30 34/34/34 29/29/29
f 33/33/33 29/29/29 34/34/34
f 36/36/36 35/35/35 30/30/30
f 34/34/34 30/30/30 35/35/35
f 32/32/32 31/31/31 33/33/33
f 29/29/29 33/33/33 31/31/31
f 30/30/30 32/32/32 36/36/36
f 33/33/33 36/36/36 32/32/32
f 38/38/38 43/43/43 37/37/37
f 39/39/39 37/37/37 43/43/43
f 43/43/43 38/38/38 44/44/44
f 40/40/40 39/39/39 42/42/42
f 43/43/43 42/42/42 39/39/39
f 42/42/42 41/41/41 40/40/40
f 46/46/46 48/48/48 47/47/47 45/45/45
f 56/56/56 55/55/55 49/49/49
f 53/53/53 56/56/56 50/50/50
f 49/49/49 50/50/50 56/56/56
f 53/53/53 51/51/51 54/54/54
f 50/50/50 52/52/52 53/53/53
f 51/51/51 53/53/53 52/52/52
f 58/58/58 59/59/59 60/60/60 57/57/57
f 62/62/62 67/67/67 61/61/61
f 66/66/66 61/61/61 67/67/67
f 67/67/67 62/62/62 68/68/68
f 66/66/66 64/64/64 63/63/63
f 64/64/64 66/66/66 65/65/65
f 61/61/61 66/66/66 63/63/63
f 75/75/75 69/69/69 73/73/73
f 73/73/73 72/72/72 75/75/75
f 75/75/75 70/70/70 69/69/69
f 71/71/71 70/70/70 74/74/74
f 75/75/75 74/74/74 70/70/70
f 74/74/74 76/76/76 71/71/71
f 78/78/78 80/80/80 79/79/79 77/77/77
f 82/82/82 84/84/84 83/83/83 81/81/81
f 86/86/86 88/88/88 87/87/87 85/85/85
f 93/93/93 91/91/91 89/89/89
f 92/92/92 91/91/91 93/93/93
f 90/90/90 94/94/94 93/93/93
f 89/89/89 90/90/90 93/93/93
f 96/96/96 98/98/98 97/97/97 95/95/95
f 99/99/99 104/104/104 103/103/103
f 100/100/100 104/104/104 99/99/99
f 104/104/104 100/100/100 102/102/102
f 101/101/101 104/104/104 102/102/102
f 106/106/106 107/107/107 108/108/108 105/105/105
o object_3
usemtl diffuse_0
v -150 -30 -30
v -150 30 -30
v -150 -30 30
v -150 30 30
v -150 -30 30
v 150 -30 30
v -150 -30 -30
v 150 -30 -30
v 115 -30 5
v 115 -30 -5
v 105 -30 -5
v 105 -30 5
v 150 -10 30
v 110 10 30
v 150 -10 -30
v 110 10 -30
v 115 7.5 5
v 110 10 5
v 110 10 -5
v 115 7.5 -5
v 150 -30 30
v 150 -10 30
v 150 -30 -30
v 150 -10 -30
v 110 -10 30
v 70 10 30
v 110 -10 -30
v 70 10 -30
v 110 -10 5
v 105 -7.5 5
v 105 -7.5 -5
v 110 -10 -5
v 70 10 -30
v 70 10 30
v 70 30 30
v 70 30 -30
v -150 -30 30
v -150 30 30
v 150 -30 30
v 150 -10 30
v 110 10 30
v 110 -10 30
v 70 10 30
v 70 30 30
v 150 -30 -30
v -150 -30 -30
v -150 30 -30
v 110 10 -30
v 150 -10 -30
v 70 10 -30
v 110 -10 -30
v 70 30 -30
v -150 30 30
v -150 30 -30
v 70 30 30
v 70 30 -30
v 110 -10 -5
v 110 -10 -30
v 110 10 -5
v 110 10 -30
v 105 -30 5
v 115 7.5 5
v 110 10 5
v 110 -10 5
v 105 -7.5 5
v 115 -30 5
v 115 -30 5
v 115 7.5 5
v 115 7.5 -5
v 115 -30 -5
v 115 -30 -5
v 110 10 -5
v 115 7.5 -5
v 105 -7.5 -5
v 110 -10 -5
v 105 -30 -5
v 105 -30 -5
v 105 -7.5 -5
v 105 -7.5 5
v 105 -30 5
v 110 -10 30
v 110 10 30
v 110 10 5
v 110 -10 5
vt 0.46666666865348816 0
vt 0.46666666865348816 0.1666666716337204
vt 0.63333332538604736 0
vt 0.63333332538604736 0.1666666716337204
vt 0.1666666716337204 0
vt 0.1666666716337204 0.83186846971511841
vt 0.3318684995174408 0
vt 0.3318684995174408 0.83186846971511841
vt 0.2355007529258728 0.73481714725494385
vt 0.2630344033241272 0.73481714725494385
vt 0.2630344033241272 0.70708823204040527
vt 0.2355007529258728 0.70708823204040527
vt 0.5 0.58395487070083618
vt 0.5 0.70818084478378296
vt 0.66520184278488159 0.58395487070083618
vt 0.66520184278488159 0.70818084478378296
vt 0.56883406639099121 0.69265258312225342
vt 0.56883406639099121 0.70818084478378296
vt 0.59636771678924561 0.70818084478378296
vt 0.59636771678924561 0.69265258312225342
vt 0.3333333432674408 0.52640599012374878
vt 0.3333333432674408 0.58196151256561279
vt 0.49853515625 0.52640599012374878
vt 0.49853515625 0.58196151256561279
vt 0.5 0.33457633852958679
vt 0.5 0.45880234241485596
vt 0.66520184278488159 0.33457633852958679
vt 0.66520184278488159 0.45880234241485596
vt 0.56883406639099121 0.33457633852958679
vt 0.56883406639099121 0.35010460019111633
vt 0.59636771678924561 0.35010460019111633
vt 0.59636771678924561 0.33457633852958679
vt 0.49853515625 0.67986965179443359
vt 0.3333333432674408 0.67986965179443359
vt 0.3333333432674408 0.73542517423629761
vt 0.49853515625 0.73542517423629761
vt 0.1652018278837204 0
vt 0 0
vt 0.1652018278837204 0.83186846971511841
vt 0.1101345494389534 0.83186846971511841
vt 0.055067270994186401 0.72095268964767456
vt 0.1101345494389534 0.72095268964767456
vt 0.055067270994186401 0.61003690958023071
vt 0 0.61003690958023071
vt 0.99853515625 0
vt 0.99853515625 0.83186846971511841
vt 0.83333331346511841 0.83186846971511841
vt 0.8884006142616272 0.11091580241918564
vt 0.94346785545349121 0
vt 0.8884006142616272 0.22183160483837128
vt 0.94346785545349121 0.11091580241918564
vt 0.83333331346511841 0.22183160483837128
vt 0.83186846971511841 0
vt 0.66666668653488159 0
vt 0.83186846971511841 0.6111111044883728
vt 0.66666668653488159 0.6111111044883728
vt 0.4166666567325592 0.33457633852958679
vt 0.4166666567325592 0.40402078628540039
vt 0.47222220897674561 0.33457633852958679
vt 0.47222220897674561 0.40402078628540039
vt 0.43333333730697632 0
vt 0.46111109852790833 0.1041666641831398
vt 0.44722223281860352 0.1111111119389534
vt 0.44722223281860352 0.0555555559694767
vt 0.43333333730697632 0.0625
vt 0.46111109852790833 0
vt 0.36666667461395264 0
vt 0.36666667461395264 0.1041666641831398
vt 0.39444443583488464 0.1041666641831398
vt 0.39444443583488464 0
vt 0.40000000596046448 0
vt 0.41388890147209167 0.1111111119389534
vt 0.40000000596046448 0.1041666641831398
vt 0.42777776718139648 0.0625
vt 0.41388890147209167 0.0555555559694767
vt 0.42777776718139648 0
vt 0.3333333432674408 0
vt 0.3333333432674408 0.0625
vt 0.3611111044883728 0.0625
vt 0.3611111044883728 0
vt 0.3333333432674408 0.33457633852958679
vt 0.3888888955116272 0.33457633852958679
vt 0.3888888955116272 0.40402078628540039
vt 0.3333333432674408 0.40402078628540039
vn -1 0 0
vn -1 0 0
vn -1 0 0
vn -1 0 0
vn 0 -1 0
vn 0 -1 0
vn 0 -1 0
vn 0 -1 0
vn 0 -1 0
vn 0 -1 0
vn 0 -1 0
vn 0 -1 0
vn 0.44721359014511108 0.89442718029022217 0
vn 0.44721359014511108 0.89442718029022217 0
vn 0.44721359014511108 0.89442718029022217 0
vn 0.44721359014511108 0.89442718029022217 0
vn 0.44721359014511108 0.89442718029022217 0
vn 0.44721359014511108 0.89442718029022217 0
vn 0.44721359014511108 0.89442718029022217 0
vn 0.44721359014511108 0.89442718029022217 0
vn 1 0 0
vn 1 0 0
vn 1 0 0
vn 1 0 0
vn 0.44721359014511108 0.89442718029022217 0
vn 0.44721359014511108 0.89442718029022217 0
vn 0.44721359014511108 0.89442718029022217 0
vn 0.44721359014511108 0.89442718029022217 0
vn 0.44721359014511108 0.89442718029022217 0
vn 0.44721359014511108 0.89442718029022217 0
vn 0.44721359014511108 0.89442718029022217 0
vn 0.44721359014511108 0.89442718029022217 0
vn 1 0 0
vn 1 0 0
vn 1 0 0
vn 1 0 0
vn 0 0 1
vn 0 0 1
vn 0 0 1
vn 0 0 1
vn 0 0 1
vn 0 0 1
vn 0 0 1
vn 0 0 1
vn 0 0 -1
vn 0 0 -1
vn 0 0 -1
vn 0 0 -1
vn 0 0 -1
vn 0 0 -1
vn 0 0 -1
vn 0 0 -1
vn 0 1 0
vn 0 1 0
vn 0 1 0
vn 0 1 0
vn -1 0 0
vn -1 0 0
vn -1 0 0
vn -1 0 0
vn 0 0 -1
vn 0 0 -1
vn 0 0 -1
vn 0 0 -1
vn 0 0 -1
vn 0 0 -1
vn -1 0 0
vn -1 0 0
vn -1 0 0
vn -1 0 0
vn 0 0 1
vn 0 0 1
vn 0 0 1
vn 0 0 1
vn 0 0 1
vn 0 0 1
vn 1 0 0
vn 1 0 0
vn 1 0 0
vn 1 0 0
vn -1 0 0
vn -1 0 0
vn -1 0 0
vn -1 0 0
f 110/110/110 109/109/109 111/111/111 112/112/112
f 114/114/114 113/113/113 120/120/120
f 115/115/115 120/120/120 113/113/113
f 118/118/118 114/114/114 117/117/117
f 120/120/120 117/117/117 114/114/114
f 116/116/116 119/119/119 115/115/115
f 120/120/120 115/115/115 119/119/119
f 114/114/114 118/118/118 116/116/116
f 119/119/119 116/116/116 118/118/118
f 122/122/122 121/121/121 125/125/125
f 128/128/128 125/125/125 121/121/121
f 125/125/125 126/126/126 122/122/122
f 124/124/124 128/128/128 123/123/123
f 121/121/121 123/123/123 128/128/128
f 128/128/128 124/124/124 127/127/127
f 130/130/130 129/129/129 131/131/131 132/132/132
f 138/138/138 133/133/133 137/137/137
f 136/136/136 134/134/134 138/138/138
f 133/133/133 138/138/138 134/134/134
f 139/139/139 140/140/140 135/135/135
f 138/138/138 139/139/139 136/136/136
f 135/135/135 136/136/136 139/139/139
f 142/142/142 141/141/141 144/144/144 143/143/143
f 146/146/146 145/145/145 151/151/151
f 150/150/150 151/151/151 145/145/145
f 151/151/151 152/152/152 146/146/146
f 150/150/150 147/147/147 148/148/148
f 148/148/148 149/149/149 150/150/150
f 145/145/145 147/147/147 150/150/150
f 159/159/159 157/157/157 153/153/153
f 157/157/157 159/159/159 156/156/156
f 159/159/159 153/153/153 154/154/154
f 155/155/155 158/158/158 154/154/154
f 159/159/159 154/154/154 158/158/158
f 158/158/158 155/155/155 160/160/160
f 162/162/162 161/161/161 163/163/163 164/164/164
f 166/166/166 165/165/165 167/167/167 168/168/168
f 169/169/169 173/173/173 172/172/172
f 170/170/170 174/174/174 172/172/172
f 169/169/169 172/172/172 174/174/174
f 171/171/171 170/170/170 172/172/172
f 176/176/176 177/177/177 178/178/178 175/175/175
f 181/181/181 183/183/183 179/179/179
f 184/184/184 179/179/179 183/183/183
f 180/180/180 183/183/183 181/181/181
f 184/184/184 183/183/183 182/182/182
f 186/186/186 187/187/187 188/188/188 185/185/185
f 192/192/192 189/189/189 190/190/190 191/191/191
