# Rhino

mtllib Single Faced Rabbeted Oblique Scarf Splice.mtl
o object_1
usemtl diffuse_0
v 0 80 150
v 105 80 150
v 0 80 -300
v 105 80 -300
v 0 80 150
v 0 80 -300
v 0 135 150
v 0 135 -300
v 0 80 -300
v 105 80 -300
v 0 135 -300
v 105 135 -300
v 105 80 -300
v 105 80 150
v 105 135 -300
v 105 135 150
v 105 80 150
v 0 80 150
v 105 135 150
v 0 135 150
v 0 135 150
v 105 135 150
v 0 135 -300
v 105 135 -300
vt 0.69853514432907104 0
vt 0.46666666865348816 0
vt 0.69853514432907104 0.99853515625
vt 0.46666666865348816 0.99853515625
vt 0.82222223281860352 0
vt 0.82222223281860352 0.99853515625
vt 0.94297957420349121 0
vt 0.94297957420349121 0.99853515625
vt 0.23186849057674408 0.5
vt 0 0.5
vt 0.23186849057674408 0.62222224473953247
vt 0 0.62222224473953247
vt 0.69999998807907104 0
vt 0.69999998807907104 0.99853515625
vt 0.82075738906860352 0
vt 0.82075738906860352 0.99853515625
vt 0.23186849057674408 0
vt 0 0
vt 0.23186849057674408 0.12222222238779068
vt 0 0.12222222238779068
vt 0.46520182490348816 0
vt 0.23333333432674408 0
vt 0.46520182490348816 0.99853515625
vt 0.23333333432674408 0.99853515625
vn 0 -1 0
vn 0 -1 0
vn 0 -1 0
vn 0 -1 0
vn -1 0 0
vn -1 0 0
vn -1 0 0
vn -1 0 0
vn 0 0 -1
vn 0 0 -1
vn 0 0 -1
vn 0 0 -1
vn 1 0 0
vn 1 0 0
vn 1 0 0
vn 1 0 0
vn 0 0 1
vn 0 0 1
vn 0 0 1
vn 0 0 1
vn 0 1 0
vn 0 1 0
vn 0 1 0
vn 0 1 0
f 2/2/2 1/1/1 3/3/3 4/4/4
f 6/6/6 5/5/5 7/7/7 8/8/8
f 10/10/10 9/9/9 11/11/11 12/12/12
f 14/14/14 13/13/13 15/15/15 16/16/16
f 18/18/18 17/17/17 19/19/19 20/20/20
f 22/22/22 24/24/24 23/23/23 21/21/21
o object_2
usemtl diffuse_0
v 205 105 0
v 205 78.75 0
v -95 105 0
v -95 26.25 0
v 105 80 0
v 0 80 0
v 0 105 0
v 105 105 0
v 205 105 0
v 105 105 0
v 205 105 -105
v 105 105 -105
v -95 26.25 0
v 205 78.75 0
v -95 26.25 -105
v 205 78.75 -105
v 17.5 45.9375 -72.5
v 17.5 45.9375 -32.5
v 87.5 58.1875 -32.5
v 87.5 58.1875 -72.5
v 205 78.75 0
v 205 105 0
v 205 78.75 -105
v 205 105 -105
v 205 105 -105
v 205 78.75 -105
v -95 105 -105
v -95 26.25 -105
v 105 105 -105
v 105 80 -105
v 0 80 -105
v 0 105 -105
v -95 105 0
v -295 105 0
v -95 105 -105
v -295 105 -105
v -95 26.25 0
v -95 26.25 -105
v -95 0 0
v -95 0 -105
v -95 105 -105
v -295 105 -105
v -95 0 -105
v -295 0 -105
v -95 26.25 -105
v -295 105 -105
v -295 105 0
v -295 0 -105
v -295 0 0
v -295 105 0
v -95 105 0
v -295 0 0
v -95 0 0
v -95 26.25 0
v -95 0 0
v -295 0 0
v -95 0 -105
v -295 0 -105
v 17.5 45.9375 -32.5
v 17.5 45.9375 -72.5
v 17.5 70 -32.5
v 17.5 70 -72.5
v 17.5 45.9375 -72.5
v 17.5 70 -72.5
v 87.5 70 -72.5
v 87.5 58.1875 -72.5
v 87.5 58.1875 -72.5
v 87.5 58.1875 -32.5
v 87.5 70 -72.5
v 87.5 70 -32.5
v 17.5 45.9375 -32.5
v 87.5 70 -32.5
v 17.5 70 -32.5
v 87.5 58.1875 -32.5
v 17.5 70 -32.5
v 87.5 70 -32.5
v 17.5 70 -72.5
v 87.5 70 -72.5
v 0 80 -105
v 0 105 0
v 0 80 0
v 0 105 -105
v 0 105 0
v -95 105 0
v 0 105 -105
v -95 105 -105
v 0 80 0
v 105 80 0
v 0 80 -105
v 105 80 -105
v 105 80 -105
v 105 80 0
v 105 105 -105
v 105 105 0
vt 0 0.67847788333892822
vt 0 0.8055843710899353
vt 0.49010908603668213 0.67847788333892822
vt 0.49010908603668213 0.8055843710899353
vt 0.16336970031261444 0.75111019611358643
vt 0.3349078893661499 0.72962737083435059
vt 0.3349078893661499 0.67847788333892822
vt 0.16336970031261444 0.67847788333892822
vt 0.16140510141849518 0
vt 0 0
vt 0.16140510141849518 0.16947536170482635
vt 0 0.16947536170482635
vt 0.49157392978668213 0
vt 0.49157392978668213 0.49157392978668213
vt 0.65958446264266968 0
vt 0.65958446264266968 0.49157392978668213
vt 0.60758119821548462 0.1843402236700058
vt 0.54357719421386719 0.1843402236700058
vt 0.54357719421386719 0.29904082417488098
vt 0.60758119821548462 0.29904082417488098
vt 0.45913803577423096 0.43175864219665527
vt 0.41676920652389526 0.43175864219665527
vt 0.45913803577423096 0.60123401880264282
vt 0.41676920652389526 0.60123401880264282
vt 0 0.24671922624111176
vt 0 0.37382572889328003
vt 0.49010908603668213 0.24671922624111176
vt 0.49010908603668213 0.37382572889328003
vt 0.16336970031261444 0.24671922624111176
vt 0.16336970031261444 0.31935152411460876
vt 0.3349078893661499 0.29786872863769531
vt 0.3349078893661499 0.24671922624111176
vt 0.83052462339401245 0.32281020283699036
vt 0.83052462339401245 0.64415556192398071
vt 0.99853515625 0.32281020283699036
vt 0.99853515625 0.64415556192398071
vt 0.3419644832611084 0.43175864219665527
vt 0.3419644832611084 0.60123401880264282
vt 0.38433331251144409 0.43175864219665527
vt 0.38433331251144409 0.60123401880264282
vt 0.66104930639266968 0.32281020283699036
vt 0.66104930639266968 0.64415556192398071
vt 0.82905977964401245 0.32281020283699036
vt 0.82905977964401245 0.64415556192398071
vt 0.78705716133117676 0.32281020283699036
vt 0.23979216814041138 0
vt 0.23979216814041138 0.16947536170482635
vt 0.40926751494407654 0
vt 0.40926751494407654 0.16947536170482635
vt 0.83052462339401245 0
vt 0.83052462339401245 0.32134535908699036
vt 0.99853515625 0
vt 0.99853515625 0.32134535908699036
vt 0.95653253793716431 0.32134535908699036
vt 0.66104930639266968 0
vt 0.66104930639266968 0.32134535908699036
vt 0.82905977964401245 0
vt 0.82905977964401245 0.32134535908699036
vt 0.064562037587165833 0.46645352244377136
vt 0 0.46645352244377136
vt 0.064562037587165833 0.5052916407585144
vt 0 0.5052916407585144
vt 0.11298356950283051 0.6078031063079834
vt 0.11298356950283051 0.64664119482040405
vt 0 0.64664119482040405
vt 0 0.62757521867752075
vt 0.064562037587165833 0.43175864219665527
vt 0 0.43175864219665527
vt 0.064562037587165833 0.45082461833953857
vt 0 0.45082461833953857
vt 0 0.53712832927703857
vt 0.11298356950283051 0.57596641778945923
vt 0 0.57596641778945923
vt 0.11298356950283051 0.55690044164657593
vt 0.85877054929733276 0.64562040567398071
vt 0.74578696489334106 0.64562040567398071
vt 0.85877054929733276 0.70871758460998535
vt 0.74578696489334106 0.70871758460998535
vt 0.27072188258171082 0.60123401880264282
vt 0.31107315421104431 0.43175864219665527
vt 0.27072188258171082 0.43175864219665527
vt 0.31107315421104431 0.60123401880264282
vt 0.74578696489334106 0.71018242835998535
vt 0.74578696489334106 0.86205244064331055
vt 0.91526234149932861 0.71018242835998535
vt 0.91526234149932861 0.86205244064331055
vt 0.66104930639266968 0.64562040567398071
vt 0.49157392978668213 0.64562040567398071
vt 0.66104930639266968 0.81509578227996826
vt 0.49157392978668213 0.81509578227996826
vt 0.19947928190231323 0.43175864219665527
vt 0.19947928190231323 0.60123401880264282
vt 0.23983055353164673 0.43175864219665527
vt 0.23983055353164673 0.60123401880264282
vn 0 0 1
vn 0 0 1
vn 0 0 1
vn 0 0 1
vn 0 0 1
vn 0 0 1
vn 0 0 1
vn 0 0 1
vn 0 1 0
vn 0 1 0
vn 0 1 0
vn 0 1 0
vn 0.17238032817840576 -0.98503047227859497 0
vn 0.17238032817840576 -0.98503047227859497 0
vn 0.17238032817840576 -0.98503047227859497 0
vn 0.17238032817840576 -0.98503047227859497 0
vn 0.17238032817840576 -0.98503047227859497 0
vn 0.17238032817840576 -0.98503047227859497 0
vn 0.17238032817840576 -0.98503047227859497 0
vn 0.17238032817840576 -0.98503047227859497 0
vn 1 0 0
vn 1 0 0
vn 1 0 0
vn 1 0 0
vn 0 0 -1
vn 0 0 -1
vn 0 0 -1
vn 0 0 -1
vn 0 0 -1
vn 0 0 -1
vn 0 0 -1
vn 0 0 -1
vn 0 1 0
vn 0 1 0
vn 0 1 0
vn 0 1 0
vn 1 0 0
vn 1 0 0
vn 1 0 0
vn 1 0 0
vn 0 0 -1
vn 0 0 -1
vn 0 0 -1
vn 0 0 -1
vn 0 0 -1
vn -1 0 0
vn -1 0 0
vn -1 0 0
vn -1 0 0
vn 0 0 1
vn 0 0 1
vn 0 0 1
vn 0 0 1
vn 0 0 1
vn 0 -1 0
vn 0 -1 0
vn 0 -1 0
vn 0 -1 0
vn 1 0 0
vn 1 0 0
vn 1 0 0
vn 1 0 0
vn 0 0 1
vn 0 0 1
vn 0 0 1
vn 0 0 1
vn -1 0 0
vn -1 0 0
vn -1 0 0
vn -1 0 0
vn 0 0 -1
vn 0 0 -1
vn 0 0 -1
vn 0 0 -1
vn 0 -1 0
vn 0 -1 0
vn 0 -1 0
vn 0 -1 0
vn 1 0 0
vn 1 0 0
vn 1 0 0
vn 1 0 0
vn 0 1 0
vn 0 1 0
vn 0 1 0
vn 0 1 0
vn 0 1 0
vn 0 1 0
vn 0 1 0
vn 0 1 0
vn -1 0 0
vn -1 0 0
vn -1 0 0
vn -1 0 0
f 29/29/29 25/25/25 32/32/32
f 28/28/28 26/26/26 29/29/29
f 25/25/25 29/29/29 26/26/26
f 30/30/30 31/31/31 27/27/27
f 29/29/29 30/30/30 28/28/28
f 27/27/27 28/28/28 30/30/30
f 34/34/34 33/33/33 35/35/35 36/36/36
f 43/43/43 37/37/37 42/42/42
f 37/37/37 39/39/39 41/41/41 42/42/42
f 44/44/44 38/38/38 43/43/43
f 37/37/37 43/43/43 38/38/38
f 44/44/44 41/41/41 39/39/39
f 38/38/38 44/44/44 40/40/40
f 39/39/39 40/40/40 44/44/44
f 46/46/46 45/45/45 47/47/47 48/48/48
f 54/54/54 53/53/53 49/49/49
f 52/52/52 54/54/54 50/50/50
f 49/49/49 50/50/50 54/54/54
f 55/55/55 51/51/51 56/56/56
f 54/54/54 52/52/52 55/55/55
f 51/51/51 55/55/55 52/52/52
f 58/58/58 57/57/57 59/59/59 60/60/60
f 62/62/62 61/61/61 63/63/63 64/64/64
f 65/65/65 69/69/69 68/68/68 66/66/66
f 68/68/68 69/69/69 67/67/67
f 71/71/71 70/70/70 72/72/72 73/73/73
f 78/78/78 75/75/75 74/74/74 76/76/76
f 77/77/77 78/78/78 76/76/76
f 80/80/80 82/82/82 81/81/81 79/79/79
f 84/84/84 86/86/86 85/85/85 83/83/83
f 88/88/88 87/87/87 90/90/90
f 90/90/90 89/89/89 88/88/88
f 92/92/92 94/94/94 93/93/93 91/91/91
f 97/97/97 98/98/98 95/95/95
f 98/98/98 97/97/97 96/96/96
f 100/100/100 99/99/99 101/101/101 102/102/102
f 103/103/103 106/106/106 104/104/104 105/105/105
f 108/108/108 107/107/107 109/109/109 110/110/110
f 112/112/112 114/114/114 113/113/113 111/111/111
f 116/116/116 118/118/118 117/117/117 115/115/115
o object_3
usemtl diffuse_0
v -95 0 0
v -95 26.25 0
v 205 0 0
v 205 78.75 0
v 0 0 0
v 105 0 0
v -95 0 0
v 205 0 0
v -95 0 -105
v 205 0 -105
v 105 0 0
v 0 0 0
v 0 0 -105
v 105 0 -105
v 87.5 0 -72.5
v 17.5 0 -72.5
v 17.5 0 -32.5
v 87.5 0 -32.5
v 205 78.75 0
v -95 26.25 0
v 205 78.75 -105
v -95 26.25 -105
v 17.5 45.9375 -72.5
v 87.5 58.1875 -72.5
v 87.5 58.1875 -32.5
v 17.5 45.9375 -32.5
v -95 26.25 0
v -95 0 0
v -95 26.25 -105
v -95 0 -105
v -95 0 -105
v -95 26.25 -105
v 205 0 -105
v 205 78.75 -105
v 0 0 -105
v 105 0 -105
v 205 0 0
v 405 0 0
v 205 0 -105
v 405 0 -105
v 205 78.75 0
v 205 78.75 -105
v 205 105 0
v 205 105 -105
v 205 0 -105
v 405 0 -105
v 205 105 -105
v 405 105 -105
v 205 78.75 -105
v 405 0 -105
v 405 0 0
v 405 105 -105
v 405 105 0
v 405 0 0
v 205 0 0
v 405 105 0
v 205 105 0
v 205 78.75 0
v 205 105 0
v 405 105 0
v 205 105 -105
v 405 105 -105
v 17.5 0 -32.5
v 17.5 0 -72.5
v 17.5 45.9375 -72.5
v 17.5 45.9375 -32.5
v 17.5 0 -72.5
v 87.5 0 -72.5
v 87.5 58.1875 -72.5
v 17.5 45.9375 -72.5
v 87.5 0 -72.5
v 87.5 0 -32.5
v 87.5 58.1875 -32.5
v 87.5 58.1875 -72.5
v 87.5 0 -32.5
v 17.5 0 -32.5
v 87.5 58.1875 -32.5
v 17.5 45.9375 -32.5
vt 0 0
vt 0 0.12710651755332947
vt 0.49010908603668213 0
vt 0.49010908603668213 0.12710651755332947
vt 0.15520121157169342 0
vt 0.32673940062522888 0
vt 0.48421528935432434 0.19887414574623108
vt 0 0.19887414574623108
vt 0.48421528935432434 0.36834949254989624
vt 0 0.36834949254989624
vt 0.16140508651733398 0.19887414574623108
vt 0.33088046312332153 0.19887414574623108
vt 0.33088046312332153 0.36834949254989624
vt 0.16140508651733398 0.36834949254989624
vt 0.18965098261833191 0.31589284539222717
vt 0.30263456702232361 0.31589284539222717
vt 0.30263456702232361 0.25133079290390015
vt 0.18965098261833191 0.25133079290390015
vt 0.49157392978668213 0
vt 0.49157392978668213 0.49157392978668213
vt 0.65958446264266968 0
vt 0.65958446264266968 0.49157392978668213
vt 0.60758119821548462 0.30723372101783752
vt 0.60758119821548462 0.19253313541412354
vt 0.54357719421386719 0.19253313541412354
vt 0.54357719421386719 0.30723372101783752
vt 0.4173639714717865 0.46403965353965759
vt 0.37499514222145081 0.46403965353965759
vt 0.4173639714717865 0.63351500034332275
vt 0.37499514222145081 0.63351500034332275
vt 0 0.72920519113540649
vt 0 0.85631167888641357
vt 0.49010908603668213 0.72920519113540649
vt 0.49010908603668213 0.85631167888641357
vt 0.15520121157169342 0.72920519113540649
vt 0.32673940062522888 0.72920519113540649
vt 0.74578696489334106 0.60526913404464722
vt 0.74578696489334106 0.92661446332931519
vt 0.91526234149932861 0.60526913404464722
vt 0.91526234149932861 0.92661446332931519
vt 0.25841632485389709 0.46403965353965759
vt 0.25841632485389709 0.63351500034332275
vt 0.30078518390655518 0.46403965353965759
vt 0.30078518390655518 0.63351500034332275
vt 0.49157392978668213 0.60526913404464722
vt 0.49157392978668213 0.92661446332931519
vt 0.66104930639266968 0.60526913404464722
vt 0.66104930639266968 0.92661446332931519
vt 0.61868047714233398 0.60526913404464722
vt 0.66104930639266968 0.28245893120765686
vt 0.66104930639266968 0.45193427801132202
vt 0.82905977964401245 0.28245893120765686
vt 0.82905977964401245 0.45193427801132202
vt 0.98385947942733765 0.11298356950283051
vt 0.66104930639266968 0.11298356950283051
vt 0.98385947942733765 0.28099408745765686
vt 0.66104930639266968 0.28099408745765686
vt 0.66104930639266968 0.23899145424365997
vt 0.83052462339401245 0.28245893120765686
vt 0.83052462339401245 0.60380429029464722
vt 0.99853515625 0.28245893120765686
vt 0.99853515625 0.60380429029464722
vt 0 0.46403965353965759
vt 0 0.52860170602798462
vt 0.074145466089248657 0.52860170602798462
vt 0.074145466089248657 0.46403965353965759
vt 0.83052462339401245 0
vt 0.83052462339401245 0.11151872575283051
vt 0.92444223165512085 0.11151872575283051
vt 0.9046701192855835 0
vt 0 0.59662240743637085
vt 0 0.66118448972702026
vt 0.093917593359947205 0.66118448972702026
vt 0.093917593359947205 0.59662240743637085
vt 0.66104930639266968 0
vt 0.66104930639266968 0.11151872575283051
vt 0.7549668550491333 0
vt 0.73519474267959595 0.11151872575283051
vn 0 0 1
vn 0 0 1
vn 0 0 1
vn 0 0 1
vn 0 0 1
vn 0 0 1
vn 0 -1 0
vn 0 -1 0
vn 0 -1 0
vn 0 -1 0
vn 0 -1 0
vn 0 -1 0
vn 0 -1 0
vn 0 -1 0
vn 0 -1 0
vn 0 -1 0
vn 0 -1 0
vn 0 -1 0
vn -0.17238032817840576 0.98503047227859497 0
vn -0.17238032817840576 0.98503047227859497 0
vn -0.17238032817840576 0.98503047227859497 0
vn -0.17238032817840576 0.98503047227859497 0
vn -0.17238032817840576 0.98503047227859497 0
vn -0.17238032817840576 0.98503047227859497 0
vn -0.17238032817840576 0.98503047227859497 0
vn -0.17238032817840576 0.98503047227859497 0
vn -1 0 0
vn -1 0 0
vn -1 0 0
vn -1 0 0
vn 0 0 -1
vn 0 0 -1
vn 0 0 -1
vn 0 0 -1
vn 0 0 -1
vn 0 0 -1
vn 0 -1 0
vn 0 -1 0
vn 0 -1 0
vn 0 -1 0
vn -1 0 0
vn -1 0 0
vn -1 0 0
vn -1 0 0
vn 0 0 -1
vn 0 0 -1
vn 0 0 -1
vn 0 0 -1
vn 0 0 -1
vn 1 0 0
vn 1 0 0
vn 1 0 0
vn 1 0 0
vn 0 0 1
vn 0 0 1
vn 0 0 1
vn 0 0 1
vn 0 0 1
vn 0 1 0
vn 0 1 0
vn 0 1 0
vn 0 1 0
vn 1 0 0
vn 1 0 0
vn 1 0 0
vn 1 0 0
vn 0 0 1
vn 0 0 1
vn 0 0 1
vn 0 0 1
vn -1 0 0
vn -1 0 0
vn -1 0 0
vn -1 0 0
vn 0 0 -1
vn 0 0 -1
vn 0 0 -1
vn 0 0 -1
f 120/120/120 119/119/119 123/123/123
f 124/124/124 120/120/120 123/123/123
f 122/122/122 124/124/124 121/121/121
f 120/120/120 124/124/124 122/122/122
f 130/130/130 125/125/125 135/135/135
f 125/125/125 127/127/127 134/134/134 135/135/135
f 135/135/135 136/136/136 129/129/129 130/130/130
f 126/126/126 129/129/129 136/136/136
f 133/133/133 126/126/126 136/136/136
f 131/131/131 134/134/134 127/127/127
f 133/133/133 134/134/134 131/131/131 132/132/132
f 128/128/128 133/133/133 132/132/132
f 126/126/126 133/133/133 128/128/128
f 138/138/138 137/137/137 143/143/143
f 142/142/142 143/143/143 137/137/137
f 140/140/140 138/138/138 144/144/144 141/141/141
f 143/143/143 144/144/144 138/138/138
f 140/140/140 142/142/142 139/139/139
f 137/137/137 139/139/139 142/142/142
f 142/142/142 140/140/140 141/141/141
f 146/146/146 145/145/145 147/147/147 148/148/148
f 150/150/150 153/153/153 149/149/149
f 154/154/154 153/153/153 150/150/150
f 152/152/152 151/151/151 154/154/154
f 150/150/150 152/152/152 154/154/154
f 156/156/156 155/155/155 157/157/157 158/158/158
f 160/160/160 159/159/159 161/161/161 162/162/162
f 163/163/163 167/167/167 166/166/166 164/164/164
f 166/166/166 167/167/167 165/165/165
f 169/169/169 168/168/168 170/170/170 171/171/171
f 176/176/176 173/173/173 172/172/172 174/174/174
f 175/175/175 176/176/176 174/174/174
f 178/178/178 180/180/180 179/179/179 177/177/177
f 182/182/182 183/183/183 184/184/184 181/181/181
f 185/185/185 186/186/186 187/187/187 188/188/188
f 190/190/190 191/191/191 192/192/192 189/189/189
f 196/196/196 195/195/195 193/193/193 194/194/194
o object_4
usemtl diffuse_0
v 17.5 0 -32.5
v 17.5 0 -72.5
v 17.5 70 -32.5
v 17.5 70 -72.5
v 17.5 0 -72.5
v 87.5 0 -72.5
v 17.5 70 -72.5
v 87.5 70 -72.5
v 87.5 0 -72.5
v 87.5 0 -32.5
v 87.5 70 -72.5
v 87.5 70 -32.5
v 87.5 0 -32.5
v 17.5 0 -32.5
v 87.5 70 -32.5
v 17.5 70 -32.5
v 17.5 70 -32.5
v 87.5 70 -32.5
v 17.5 70 -72.5
v 87.5 70 -72.5
v 0 0 0
v 105 0 0
v 0 0 -105
v 105 0 -105
v 17.5 0 -72.5
v 17.5 0 -32.5
v 87.5 0 -72.5
v 87.5 0 -32.5
v 0 0 0
v 0 0 -105
v 0 -105 0
v 0 -105 -105
v 0 0 -105
v 105 0 -105
v 0 -105 -105
v 105 -105 -105
v 105 0 -105
v 105 0 0
v 105 -105 -105
v 105 -105 0
v 105 0 0
v 0 0 0
v 105 -105 0
v 0 -105 0
v 0 -105 0
v 105 -105 0
v 0 -105 -105
v 105 -105 -105
vt 0.22727273404598236 0
vt 0.22727273404598236 0.10243126004934311
vt 0.40909090638160706 0
vt 0.40909090638160706 0.10243126004934311
vt 0 0.55844157934188843
vt 0 0.74025976657867432
vt 0.18035334348678589 0.55844157934188843
vt 0.18035334348678589 0.74025976657867432
vt 0 0.1428571492433548
vt 0 0.24675324559211731
vt 0.18181818723678589 0.1428571492433548
vt 0.18181818723678589 0.24675324559211731
vt 0.40909090638160706 0.10389610379934311
vt 0.22727273404598236 0.10389610379934311
vt 0.40909090638160706 0.28424945473670959
vt 0.22727273404598236 0.28424945473670959
vt 0.18181818723678589 0
vt 0 0
vt 0.18181818723678589 0.10389610379934311
vt 0 0.10389610379934311
vt 0.27272728085517883 0.28571429848670959
vt 0 0.28571429848670959
vt 0.27272728085517883 0.55697673559188843
vt 0 0.55697673559188843
vt 0.22727271914482117 0.47301453351974487
vt 0.22727271914482117 0.36967647075653076
vt 0.045454550534486771 0.47301453351974487
vt 0.045454550534486771 0.36967647075653076
vt 0.72580790519714355 0.41558441519737244
vt 0.45454546809196472 0.41558441519737244
vt 0.72580790519714355 0.68831169605255127
vt 0.45454546809196472 0.68831169605255127
vt 0.72580790519714355 0
vt 0.45454546809196472 0
vt 0.72580790519714355 0.27272728085517883
vt 0.45454546809196472 0.27272728085517883
vt 0.99853515625 0.41558441519737244
vt 0.72727274894714355 0.41558441519737244
vt 0.99853515625 0.68831169605255127
vt 0.72727274894714355 0.68831169605255127
vt 0.99853515625 0
vt 0.72727274894714355 0
vt 0.99853515625 0.27272728085517883
vt 0.72727274894714355 0.27272728085517883
vt 0.18181818723678589 0.55844157934188843
vt 0.18181818723678589 0.82970398664474487
vt 0.45308062434196472 0.55844157934188843
vt 0.45308062434196472 0.82970398664474487
vn -1 0 0
vn -1 0 0
vn -1 0 0
vn -1 0 0
vn 0 0 -1
vn 0 0 -1
vn 0 0 -1
vn 0 0 -1
vn 1 0 0
vn 1 0 0
vn 1 0 0
vn 1 0 0
vn 0 0 1
vn 0 0 1
vn 0 0 1
vn 0 0 1
vn 0 1 0
vn 0 1 0
vn 0 1 0
vn 0 1 0
vn 0 1 0
vn 0 1 0
vn 0 1 0
vn 0 1 0
vn 0 1 0
vn 0 1 0
vn 0 1 0
vn 0 1 0
vn -1 0 0
vn -1 0 0
vn -1 0 0
vn -1 0 0
vn 0 0 -1
vn 0 0 -1
vn 0 0 -1
vn 0 0 -1
vn 1 0 0
vn 1 0 0
vn 1 0 0
vn 1 0 0
vn 0 0 1
vn 0 0 1
vn 0 0 1
vn 0 0 1
vn 0 -1 0
vn 0 -1 0
vn 0 -1 0
vn 0 -1 0
f 198/198/198 197/197/197 199/199/199 200/200/200
f 202/202/202 201/201/201 203/203/203 204/204/204
f 206/206/206 205/205/205 207/207/207 208/208/208
f 210/210/210 209/209/209 211/211/211 212/212/212
f 214/214/214 216/216/216 215/215/215 213/213/213
f 218/218/218 224/224/224 222/222/222 217/217/217
f 217/217/217 222/222/222 221/221/221 219/219/219
f 223/223/223 224/224/224 218/218/218
f 219/219/219 221/221/221 223/223/223 220/220/220
f 218/218/218 220/220/220 223/223/223
f 226/226/226 228/228/228 227/227/227 225/225/225
f 230/230/230 232/232/232 231/231/231 229/229/229
f 234/234/234 236/236/236 235/235/235 233/233/233
f 238/238/238 240/240/240 239/239/239 237/237/237
f 242/242/242 241/241/241 243/243/243 244/244/244
